<mxfile host="Electron" modified="2023-10-22T15:35:26.283Z" agent="Mozilla/5.0 (Macintosh; Intel Mac OS X 10_15_7) AppleWebKit/537.36 (KHTML, like Gecko) draw.io/22.0.3 Chrome/114.0.5735.289 Electron/25.8.4 Safari/537.36" etag="znMnJI2z3W6OyYW7h4F6" version="22.0.3" type="device" pages="3">
  <diagram id="Ni0HzerxxsWqmTqZtmLy" name="v0.9">
    <mxGraphModel dx="954" dy="616" grid="1" gridSize="10" guides="1" tooltips="1" connect="1" arrows="1" fold="1" page="1" pageScale="1" pageWidth="1654" pageHeight="1169" math="0" shadow="0">
      <root>
        <mxCell id="0" />
        <mxCell id="1" parent="0" />
        <mxCell id="HGETupCOhlLOczf1D24e-1" style="edgeStyle=orthogonalEdgeStyle;rounded=0;orthogonalLoop=1;jettySize=auto;html=1;exitX=0.75;exitY=1;exitDx=0;exitDy=0;strokeWidth=1;fontFamily=Verdana;" edge="1" parent="1" source="HGETupCOhlLOczf1D24e-3" target="HGETupCOhlLOczf1D24e-11">
          <mxGeometry relative="1" as="geometry" />
        </mxCell>
        <mxCell id="HGETupCOhlLOczf1D24e-2" style="edgeStyle=orthogonalEdgeStyle;rounded=0;orthogonalLoop=1;jettySize=auto;html=1;exitX=0.5;exitY=0;exitDx=0;exitDy=0;entryX=0.5;entryY=1;entryDx=0;entryDy=0;strokeWidth=1;fontFamily=Verdana;fontColor=#000000;" edge="1" parent="1" source="HGETupCOhlLOczf1D24e-3" target="HGETupCOhlLOczf1D24e-4">
          <mxGeometry relative="1" as="geometry" />
        </mxCell>
        <mxCell id="HGETupCOhlLOczf1D24e-3" value="&lt;font&gt;&lt;br&gt;&lt;/font&gt;" style="rounded=1;whiteSpace=wrap;html=1;fillColor=#ffcd28;strokeColor=none;shadow=1;fontStyle=0;fontFamily=Verdana;gradientColor=#ffa500;" vertex="1" parent="1">
          <mxGeometry x="310" y="260" width="300" height="160" as="geometry" />
        </mxCell>
        <mxCell id="HGETupCOhlLOczf1D24e-4" value="&lt;font&gt;Cache Server&lt;/font&gt;" style="rounded=1;whiteSpace=wrap;html=1;fillColor=#1ba1e2;strokeColor=none;shadow=1;fontStyle=0;fontFamily=Verdana;fontColor=#ffffff;" vertex="1" parent="1">
          <mxGeometry x="410" y="180" width="100" height="50" as="geometry" />
        </mxCell>
        <mxCell id="HGETupCOhlLOczf1D24e-5" value="&lt;font&gt;Authentication&lt;br&gt;Wrapper&lt;br&gt;&lt;/font&gt;" style="rounded=1;whiteSpace=wrap;html=1;fillColor=#a20025;strokeColor=none;shadow=1;fontStyle=0;fontFamily=Verdana;fontColor=#ffffff;" vertex="1" parent="1">
          <mxGeometry x="480" y="280" width="100" height="50" as="geometry" />
        </mxCell>
        <mxCell id="HGETupCOhlLOczf1D24e-6" value="&lt;font&gt;e-Signet&lt;br&gt;Core&lt;br&gt;&lt;/font&gt;" style="rounded=1;whiteSpace=wrap;html=1;fillColor=#a20025;strokeColor=none;shadow=1;fontStyle=0;fontFamily=Verdana;fontColor=#ffffff;" vertex="1" parent="1">
          <mxGeometry x="480" y="350" width="100" height="50" as="geometry" />
        </mxCell>
        <mxCell id="HGETupCOhlLOczf1D24e-7" style="edgeStyle=orthogonalEdgeStyle;rounded=0;orthogonalLoop=1;jettySize=auto;html=1;entryX=0.5;entryY=0;entryDx=0;entryDy=0;fontFamily=Verdana;strokeWidth=1;" edge="1" parent="1" source="HGETupCOhlLOczf1D24e-8" target="HGETupCOhlLOczf1D24e-10">
          <mxGeometry relative="1" as="geometry" />
        </mxCell>
        <mxCell id="HGETupCOhlLOczf1D24e-8" value="&lt;font&gt;Key Manager&lt;br&gt;&lt;/font&gt;" style="rounded=1;whiteSpace=wrap;html=1;fillColor=#a20025;strokeColor=none;shadow=1;fontStyle=0;fontFamily=Verdana;fontColor=#ffffff;" vertex="1" parent="1">
          <mxGeometry x="350" y="350" width="100" height="50" as="geometry" />
        </mxCell>
        <mxCell id="HGETupCOhlLOczf1D24e-9" value="&lt;font style=&quot;font-size: 14px;&quot;&gt;e-Signet Service&lt;/font&gt;" style="text;html=1;strokeColor=none;fillColor=none;align=center;verticalAlign=middle;whiteSpace=wrap;rounded=0;shadow=1;fontFamily=Verdana;" vertex="1" parent="1">
          <mxGeometry x="340" y="290" width="100" height="30" as="geometry" />
        </mxCell>
        <mxCell id="HGETupCOhlLOczf1D24e-10" value="HSM&#xa;(Hardware Security Module)" style="shape=image;verticalLabelPosition=bottom;labelBackgroundColor=default;verticalAlign=top;aspect=fixed;imageAspect=0;image=data:image/webp,UklGRgZVAABXRUJQVlA4TPpUAAAvz8JyEP8HO5Ikx0rP7km0/MUCgk/swFScwBqtub3Z7nYDcgC2iSQFlul9zAytXGlX2VXB9x7Y3UwkQbBtN230JQfaYWZewSx+9sPMHE8kfcGNBYCg86rv2LaNKq1ac4bMkUuZ1hP8ywgZIJVt204XAABIApAIIAAgACAIIBAB54B8SPzpgyED6Vhdp5OTRRJJQSKLJLIFHOQEJ1qEg50s6hYhRwsqkCQGksggO0nZTlL2qFcoobCqCDgC8A/gG8A3gG8ArwB+AHza+QzgHsArgM8I8kBGIoD2CJIaQWqlHJKIIikZrZpUjUoc1nJgs1zYRiK7QQbASClAFARIIruQle0oEQ4UiRTR1FTUqEosbG6WPNtQUzGmNGQs2flac1P62/6uylz/7f7yRE7ZrU6KMCKd3es12KEkl0VQQSSSpH9ZQjgXay5X87jrnabNZE1N2nF5nTneXzrszl3z2k9fvXfh9mrDw1Nx8jLvhvv4Afen4qjsOdGO9WAQmx+f+0dePUs/iNk3zswyFtEvWJJa4tRVFJ6rE0wsUAM6A2YVzAr0NqQNqsNBZgrFd3CFrttkVv+o5n3aWLW5+Mfg31XbQ9untoe9UCuq7SB7uohVnz9zNmNsDFms80aOe78etO8qK1X1tp3x2GSncly1Bh5XRf6Z7e3Fjk/Eu8Q34hdRJaqODzvenYAmVAsaA5Y849YHxGdtfPnPMU+cpDW5m3M6b5W64PPzxxcffP6Pfl7PPP3vKO8FlPGS9GEcdRPf7SeRy1R0ImbPth3eAZwDuFPFRQn67sjbCNiVeGln8z5YEQuKpSzg4G+tWMzZxrfG4y0Md3sZs8lQonYAqCQj5e72dHqZNSvKYdC2kaR4+LPe73QIImICcpyt6763huRY9umRmRnEjd0aV52UoGARRf+ceZrD3M3hUekd+bL9m/Hw/7drK7GtVRk+Fisv1gIWoQAzC3DnHCQoRZEtzFnMoJIx687xbe3zNs6nzIEkuhWtrR4+e4zeW/u31scccxYntdZbRP+90babt7VtWx1i7yAAUspa0bQjyV8Z+eU5sm3Vtm3biq3oMmZQZ+sv0ui1Fsglt9pb29QLRPRfgttGkiRlVsqRcVXtUdM9PdP9ANzT/79XWuuaXEZZ4AKXq7CWyJK/oQUHMWWnOclus+Ndeo//AkVAN7J7DuYYS4qaIoKGujMDasR9CmCaMJlJ5pTc7nbXvp/y/f5+LM7dmfl8Pt+I/tOCZLduKx0AByD4sDZlxr4SLcmbv59cdbb/7z8+/o+P/+Pj//j4P/7/Oz7/7NPLX1wcsc3js1G19vLF82dHdrti8bMRE3H5wtmR3y59OkLis0tnfzuw85dHxbkRb4Rf02ejIL44+9uFXbKRL3rl7G8bdm7EW0c9d/a3EPtitCv77cQuXm1u7na1ublfGtFGnBXgk/fOHH/pxdZql+zlona8a3ZC106WslMadubDT0ZJ93N0tvfuuWVuciy3cdgmNGxSw6Zwm+ZshrNZ3JZyNofYPGHLhbbA2SqhrSFsrdDWQ3bzjsfOYKWXRzBgaz1+0+QSDRtDt8U5Zrer5WyLKDOS3bzrNu6VNq9eC9tEy41lKyA2Qd0mZxa2fXgWsGtGLlw8yyO2kpExfpyT+4o5sNOQPYy5jSS3h4xDG9uBXUfK+QZo7joM11qD25Y0pbLvEL1sO257DzhFOXJdKgLcv7llgvhvOORlexdHzE5DOETccaZ3nXyPQfcbZo8ynT2Hjgt3qFqAgt2haE+XJrF9ais/zRcjXuz43Hg6VkPoey3mQs5m4jeP3X2oTWE2jNlz8oC6wzDmuHi6CXqXYSoCYqq0CiOTJGfbEfP8oM9HuRk/2T45xtwDp8dDG0TEnbsdgO72mBu9fxD7Dd9LV8BVlI0RxEaIuzc6NCHatZIYPlbqQdo4s2fYVY1yesskcofGyU1xegvY/cX5nYfcBs88c47djemhxNwfUusKbwj4Dch78lTqYxXsTPk04iyXT7yWp0+eZeyz0U13T0J3bozbBjfPt4JtBuwn3O7mxnBKuCMRc5XUOLJngXuUM8Mcr8083I+aNk4rHsju1kwytUlZNtP0CQYXRigEgxPTZjaGCP1zKTcfcGNB7VMUo9tC7FrYwgk7jdZ8FcznOw60Ka42W5BcSSolQeQnSZ77aEST4FY0P4Ycwib3EHL/IVNQ1g3yjdw3uPpkg/gNccAlu6ZRRu5VlbnnQzr5JnC1jruE4LO1xgg+No3Tmlfk7gZORjS9bYLbZ4wf5EYq9F9/B3YtZl54jnzXyLeH0xI/b1aWaiMCznccVz4uWCsWYfcoYSWXbj2Op45zMpLpGQMqnDnZyNy9YTbGoC0mAgg5Q/zdGa0DKQXy7uDcpKdRjZdm92kAkRFQxcnyjxgZyXTDGHA7MD4xOWUzjU1Xd09XIDYz87RHXPqRztQwsW3s1SBpvLrnX1xSh9tshS4USVlqcxSLbZ63ZdVrG5fZCpEtsLaSs2VzMRlsaB8nI5i+OrmEOXJt4zEjtuliVqtLdpJaQ2RLyXEh33nmNGwet2VVvtMU3W/qasTmp6iltbkRTC4x2MjeXZmYDXDfodiTFWgPpW5h4FQwjKcsLIskKYUbgiJguIsLxYRNT2bWOqOYXMNd/ERpgqnZBuBS3s+dWh3TVjRcSkqTCTBAQi85TSAycukWWt0mkyaTzC9ZWgWkIAR3QXqFwikdxeRz7pg3p+ONJ1UvqtWrrCpqaFm69HUCtLnES5wRTC4y2MbkfXoWJefZvYtSaRFmYqAT6lCSaCaILITIaKVTzCHridYLHS27VElIlYZLIuaJECQjle5itW0lIbztEHIAmrsi8kUcPaBIRmD6RulHuRqhEcVm1N9KCz9m9cM0J88dMEvmg5PcKD2UqZsnqlDttHQDL+OXkXTmMgFq6DIhmOQ+6TR5gt0bxakRi+EAiKnWcXQ6ET5ckk8xSskXDA6MLaEpVRlcy2qQioazB0xNRqz0z84xD1acoS4WMctVBvzK5Ap/P6cAt8DHvm+SPk6szVvW0A5YmbFijWjt+QPcgMo90tns8lROYzBQwIDnpKvOgQsdQniQ3CJ9NBvlnEaJFiJhgZeNx9IeG2iTgOUO6VLyOTxI7R64Aha8k8KIZQ0EcoP0kfHkeHeeoLQAYo4OFBWXLCTC7ZNzDOboGUiVLUGD7JXvQ+ApyGWmvdRq5rqRWgKXDlwVT0HOM1ieX82X5QeOKs6tyJJ1YITJzdGXM03znPbbwO8nI3CwQrTcG12gW6rdHUj9wvcc+oXvmyifcs8yPb6EXqZno8NSVPjyvjvEtEzujK4h1uaAxoCcaH/rCJQboyfHl1BLqwwNyIVQl3IvPRjunFxhsDa5XoSchZNOLWxvjfn+EOjwESm3Rc8kL9FCzsJRxx5JEA2jXB9NhBsnFxjcmEXyWZSI7Z1eR3UTjjson/FKL42qSNA7cSPUi+/fDiLknujNRD5TbeH+qITpeUfoltyTD+Yl894qQPDC/1E20+3GfB8DuxyKy5qZBlNpD5E78smPtzD5cUyjdnxpr+LkyiAPrFlBv1MAXm6IfgjkeRGE6sXtBHG51WteV+BH50l6KFh5SiSmYLkfehuRh1WhON5sFuz6htDKVOpDcjs+N/29CT7PSzZE4HagqTyu2CtlWNzvEZyYsXI3dINGXizf7mbz2YAfS75NJOmpPDVyyOescnkkJ15DCaWBtgeq2uXtoRWSRg65yGATmscmE5BghqQ2QnFyLix0gPK0ZSlV7sUnP7J5oKlAnLex3hJsx4EBRo/+unci1GLByyihW9i8iPxSSxHMaIS9LGdcw65XxIrOUyI08TJKKJw3ngXkBBm9op226u05Bwgi+kQIQbyMDrqdzJs3KgmvB8K5We22lgw/lrg3YIoc8H3l+pQLQYCMDk8tRufdpmbl5DcVwxLqas1yVvTIat7ICkN85QVBCEEjhHzBvuoQNRuuMyI8ppgjOapa5gua5ew+CLVEHF0P+bI3ilwICkBGBZ3M5k0xNatAXlO5Ozzo7pbh0B4p7qjYJN0RESd72RtGLhQhMhrooSTi5pnqkKOZ8e7QoV+fV909lKc8u/s9IReiQTIq6BjJzSxL5YQwZZifDaF8rSUxIc8Nm50MgoKX0eBVhzKIdUbBuA4VpVIDYM2A3b7I4UGKWUYjgpxjMDUGqIkJZYLgXJgkTb34WqGvel8flExZVgWlR4BXHdLUGQUDONzohqzG6l7mQaSWX7tPlOS1ZogMf51mdCr5L60wqHyh7piJXl5bU6/7BybYRvcv62MFn2TYPzHvo8o6o2GGfs00Vjd/MHrsshFaMhsNJjnPYGaMbD5F3g3WouAD8zEfEtyRxYDBtbpLC+WJFZvEZbjri2PJfNm48fb7UNO2/9uUGfuJ3EjtKlZrnNmR1XRYWZTMp0ySHu46S74XRmvUQsdVMGzls2F6FIwVKp2+YPxEh5X6BElrkAzzZ358qW05NZpYAVqcw7UGg9Qk0+2Lx+UrRxW5wmDpGEmJqon4NZvJmB4pSf+z+WU9K2Dvr1Yj7koYiBguw1tfHltCUqZmRWhmOt4xG7a7041cPUGI2R8AI4oE95qdYwTRquJK/Vo1gjMkSvXejaRLJ9eSELWPxkIHaDSR4N4n9xhFtJoVool0zO5dDgUDKsvcsO7iMN9hWugcWZXJsNblYxS1St33VXMXhBuzeUax/cgtmgLd+EFE0Kj2Vg/ASGUZznoqP3tjqZKk56po2QG6o6ZN9ShoFXsw7XY0flLAORRUWYazLozRNEV6wbJ3qZjdoX65l3faxWicHgGOnpYMGWNREWHKjtVyUpeh/LIWYzS1yn0XFqO1bkudPVW1tEsxPr8BJ2XKsUDMd5gWOkAjiVxisGrMfQlBjZKOtjtjwc5e6my7pZ9GFc4K0yvegseiAsLiGkK0k/TzpcNerkE0o1ZJ0j/+bcV+BdbDkCvehz2NtXd45IcEYV5KZJFO0M+FMnx17Vi+Vk/yGGGdJmxZGC6XKcNvjxE5jihkqRFJZjdIKsP2qcVeHSOpUciSBTot7ukZf7+ZMTy1ARwiMhE/kRQQF78WNNuwl4sM1pNXQDmrZgShTRtmxpMqXWCDzpaCISBnw24afdH4SQNnhCBViGW46odZyxWn1Qwo1yPmmw6LTOFpuuiW/noyHvN6RDqKECDznAxXvXEsXWA1yyjEjIV/2Sn/zGf/cSyY+B9Pgjh/WBH7ojchfuOAggzVl7UgxzRYKiHNiTPw8LVlxmM/K6iqXFfyAwhrH5QT4FUAuJQDgEyzMkz1ZqLejVaFdbwM9EyD/HXoWV2ficz3Nm6K0VS1IUOGQwl2TzcXh0Fyx6kC1n0MWJlujJNPh6u6Z9TkpTSiMyfACKbA/iiz07XNfn33mI4wonpXcs3SlLXGTKQJEUnFw+CzrwX48qBfj52X4fncNbeMuS8hH62oQZsGGSln6jONru3IdJCMDg99nbNmmpCAfZqJcpmRXQBYUeAiKBeQg5Tp1iAZls/8+NH42JKcCBWV7s4LWDtd5tjodCIRvZuHREM96p5cfsChIKBSJnhMT5k3AGVY6q1jNE3NyT3RuRs5SWdBezZzNZ7QC0guglyLbOJrlEBBshaSP6SASJ8K0ogA6CBkujFchqaSVOfMxCQ4RVBad0do3YkL7zOiQpte+oAmRoZc0ISDGiGfrYF178YaGYJ8KRxAhqPePkbTVPJNpu7s5LJI+xMX3ovxfV6UUbMPImk+VMizQXAjAaGqgSXbA6hiMgPI0FRCPD1JolaTOpJk7aTR8fffgwhK/oDiQxEmyGUbM0mSO1KAPw5CoEIBHbxMzbTMyzDUjWNOSaZzpjDv/qVXR1J4v8bjjL1HBOBJ+fQjnULBXdcgm6mHfSyhowuIVBWk448YQJIsQ1G4l7VoZqGoUqegVYIL04CM9jYdw9G7Zu9ZYBCgJBhuKeSaXTIs2MFTpC2CvLrxEUZyF0oPv2d+3ER92mhC5c7mFC5BQ0YaKDuKI2zGRDHIGYOPFU2+u0WXbAhJkvbxvtZAs3cBqYxk/QRDUM5zr9lJXQGVaevBi9xbRGbqyMmglUHZ4+8ScWaBoc85mEaULEIyQHekSQUF614EcnAyQ7RGPmFk2Ond7SoIm5yjiapSuYkwIfGWawbZq+8xkVm4BahKREN+Xcg7hYB/IEzxPhW0KiBu+FzyuqhJQ2QIqrsTeZrMTD5QtDJTBbitgH2Ns+dMOEeD9biGt0DW1mN8j6ZYJ/ESaZXDrZiYp9i4AvLqhkcgSdoQlE/Zz7tJos1nQnzXaVNKgIcExrg77XDynIhP4/rnt/T22jtIzoO8vbpy80tb2+QdAtKhYn43VhrzRKGxPtwHjMGrEaFQh5tcESpH7SIvFLCnW5GTqPXuOSdsQu7ckLXz4+8oMax6xuzUyo3lz9e97uJV0FIh18ToDp5IbLJsF6ADEMqrlZVhpjsBTR2CdIIKctIA5QKS2lWaIbb25fLaO+NO3hn3GZK331q5vnxnhDgMu+ZT38/Sv1Dq8RXJkAAR+h0TDTW5wmCSgRlACsG9fLQ8H8TPXmOc3V6+vj6u2LykCKpvrd6o+2KTd2aMZuARGUrctPxLA3280RFEUq2NITK8dHf+W67IFCG9oIY1ZIYExbIzAzZ2Ts5yWFu6vn6SsXEeZ7ABIgpGWHeBUTikw1O0am5+RVdDkntDTi4IlV1MZRESZAgOozvI4/j42RidRoTT15fXTwqBM7/n9F9l9XrdF8RdsosXsLaA1rNhskQhVERkNhbRw9KX+x128hnT9tG+T84xlpJ2cIcS8gPZ16gWGZaVpc9PIpMA4hwQQGRlaXmYOqIbLagD47a8kfrc5gI6Dd2DMlOrQIajIqa2fKen645MHwQO32CLkSSvL58/KeKhcT3tBvYRo//ypkvCwUkEomSwVIqrDQWROgBWVKpEhpPeQ/mWqIIDmgYIpdSFLEuFdXznmExcW/pqHEcU8nMna8vXb59XLxH3O7t1zzLn3gVtc5qt35lWiLA41QfoKCFD6ZkfpxjV8OYSlW6AdgXi9zvRWpF3zkZKK3XQjCjJYMS4dPMUGYotgvud/WHJhineWz8+bSPlUj7XmEqqEKsUta5ujW5sdQm5Moz0frJlKg9+LVi6D94FdztRo5NnGazUrXGGIorrIEvxNl+g9C/25n8ug14yhAgDlIv55lQUta6m2FFGhpBOJzPQqhDcTFQ6CICGUTT6aYIbzjhxkQfLENittzkiFQ5O645ht7keNyEFA6SSqgKDWaMiSrKMk+Hz3DWP6qkZScs5oFMQEX4PufMuEhp7Ig+QoGCFJwR5E+kwwroT12a44trsyiRHYZKKUItd3edlMnR0hsnrePTxcOAbddMFbi3f+GknTgVs7GT0Whze8CEuL70dUHwThUsjruh8RKkNSCV/KJS3L6FRkVIybPQRXTXLSegUMG2CcsMuhyJxbrXuy7EYvdFQr4gXse42NcY5Q3rJkK1BaqTVpbKZnVoLVk6bRTtIh7Vc5N6QhKaaAZS5hIBtx/AdKpO7i3KC3al7boxFqkzU1WPmx9ItRHwFcvEP9yzjOMZ41XWpuAF3NdRb2MImxPx5MugWSTZFXu0DfJSZZLjoi/qaqWE1IidF48i0jZ2msrx0klrENtLX1dNebROHE4AbmAl4Ii6u1H1FAG60zaVyTY2a5hzwbU8qT3+LgWKmmnY9AMaFk9lgZajoUk7nFTwdUGPUR4jIWgb8WYpbdetjkTia7Wlva62IOAPcoBxGghBv1N2hety51nKxkLPmAEnynEy8camJQMBoavMxRlEy2xibHib6Eqfz7oUoM7l09Z4vSURto7un2lpuKVl0pms33HhEOFImTRCXlyjOQRe7m7bkE0ohJYkx7kFBY8qjdEjELUSrUXkZIjrHqus4OkJaR8/LxA7JwChnuJyrO4ECbH1dHW2VlmJBRE9gCEpEBiFFaFP3JVe9bWWkWHABaKorRgTF7t1CKCTD46nFXgbUFYMy9vRIPYb8KTGH23VrJzR6rB0sn9ttBcC6QwApWOQL8XfuUBBTvX3lWIsLnDZqqvu8O0RRMps4vAyNpxab55VwCo/Y70m1PgujQB3o0vI1OTGmHiuXCrnmrEk+GTxF/FC3YCe6iMTjWypjiSQNHSqXnDqXYr3gZhrr3DIFZVjocUSpYEFPl1pegDa41sdPOYHESt06gLENMLzUVGLOg5shBZ+L/x4g/xYkMaH8R5SEkuy/CObZBtU0D0l2hCIkByZDQpcDaimDDBu+D3HskHpoPe4yjk2WnRdXVIyh7g4wOOGBWeNuh6vrN25SVg4KBS/sP3110aBdysF/II3JIEmgx9EuylJhT7PT9NZb0+m6VJIsLMNBT4zj+jLyZUDUhsWB1Po90PoUcq5+/RNQ4kd6O9sqYPXmNrAx5yyu30SCNLgJ1d/+BsuvnfxKIiu/ZCQ6EZ8olt8i+Z3hI50gf+AFNgTN1t8a/Jf96pdBMj7ttBVrSIAfOm86XZdIq7gMBV2A8imJbYIg1GH3RG4sXfsEO9KoWoFD5GjJB+Aq4AZknDDkVQZEf+3VXyJOQzGIIoSpg4XDTsJJ/BhNpT4JwxUQi3am2caGjDB6UqJbFq69GasDsx92ZYKJus8/QYT9sa721pYi9NiBcRWBES/RgnAg5HM+swCoBCGEvC4QBm2G3A8vv9tVWvL11gqUaOSR1pbNhkSGgK6CZ/GUtpaI1O+N2B1rqnefHWXKtlK3+QlW5F0Or8hDm59JAH/DgKLP/WLcK79IIN7PKsRTE7o6ARItOnlb1W3UebyN43oSWFR4QYNXqKZzLia8um1UlnMyfJSn3cB9Q2rGfgG+PRzEoeXrS2CfEAw5DyumIXcvj88oh4NzYYXRRZB5KnPAVGZUJxmZ8sm0KWLcDm0AlSuMzDiZdbLg5PcgUzA4Ul8KuvCEJKLsXEIqvf/EvGtZ5W0zVhTAaYdyAcZR33h3SscoXBkT9h3gmzLOo00k+IyRlMAHLOaNA5OJcXJOJ5WBYyYDMDUqSkoESiIOVBU2ur1S8mrF8z1DoeuouoxCmO77J+Y9hSuwpkIiXTCX7pBM9tiU0hroDYoxDPWF5sYMWRidBJ6KoCKOOCDjYyFwFhxhqD9QDQf19unslOoo7B7aw6vousCGK8iQy3BR3Ev5HIB0H9RUEaFL+rIjU3oeRnP4rO4iAi5v9CDfsNOD6XCk4nwF8xJT5UtQz5IaKSrrwgirIC0T1bjceoZCAU8s/a5nJljFRT4HDzyPog3No1P61oQiWo7YPgGMdXfAx1ka68NwC0oxHG+GDEpcQprBLmoIaRBZQuLMDJR7PIUXVW4aTefLB4QHKUv7Xir3flEEiv9AWiADBM9GuLkxpTqhioJ7vkIQIeVKKd/sPI9ph1sxGirF5BQ5Sp5mU0zsJ49qCvR7ohHayDBa+k0Gl15tzdMliE1g00v7X6qaSn8ghf7SX7rBzI2vp3TUZZDW3cFANUMwsjuE4wGsmMIWYxgYF7zrmwVvwjVR5QshZIHE9fQQAWqjaPc3qOT6p4joTnWQY9OFkaVhvAwPXabhVcEMNAB3EVDgWrLYwGUPps2RQ/TAPE3CKziMj3LCLd476RcV5eUdHT8/fn7TsUbK76iic/mpKvpU2nG/wBszM4tj4hQ/XrNgY0ii+oW+TFFZ3uNyQaTJ++WRFyTaSDHXi+zdKzIGUMAmBmrZTctebAZDgYKKRsB3DlgIZcnX9qW2uC+BvDl9RSY7Ki1ugDWrAx5T4Hrr9FUFWUtIWo9Kbz+12M2s1nnpksq3pcB0Q2ra0HTsiowTusVjpKtacb3rOWR2IZxHWIlRfEAOUYIii5Ag8dq+ZE2jpAB7a+qKXG4jA6Azl1RPG5oSWZqTATI8NHE0JCh9g7UNBaGbdRd5oBoPKK0gjpIKxYC1UPzqkRTWQv02ZC1U0sV9SWT8isiwa9MKOkaq+Hg4Q7mklD3zCis9rbfw+eq1uniQYAkGNJY2EDQfuzKJCfAJh2HUclfGj6lNYiJRHII6BhQ9Kd4i0SRroTRAPYY0LdhJpxvl0noEEQR17gLVAJIt5c1YGQ5KULOoO/h0Dffi3d7HJjE0BK7lLj9N6aYbj5YCCgylsli1Rhf3JXOTcQgdnkSQhruYdw+mn4mFodLLeiuS95oHNTztCXyEIYIikHSY9OROBGYOUwBoi2XZQ6HFkEOTvxgPkV+kurhvggq/tk/J2j49GS7TkwOdBNwSDXVYg+NGKDVb0ctyiftFWENKOS43wxP4oMnTjAaR6kgIsrkpAkmAU7Qg3s7ES8i6PpE5z4F2z9K+SI7kRPVK4JI+dq83u98bic7ogFvYVUEFIJZQZ/K5MJq3iBVZS50DnPTwG4u+jXj5Wfea5b2SQR1PTq/YkCFwdIFAHVChsX6nF1dC8RZPwZ0VFQHJFqo6dupNJEKcwYhCDBRF9Dg7tT70sYgkDJK+RqCF59WY9LeOM6rrlGJkZmi5WmPz0Iye9O/3vuYwGoorkgIJoeCPL4bQHOvokUl/XQyPZxZ0FgcU3Coohmx2RocOdYMvrGMRBHUsHw4MaxZKWoOkd59abMN47tVEeVIqUPO28rBxd0ZHXQzsgeLD7D44m0wA5shkQAXfGOPqz1OTE2ESGZmeQXIFH3RnhqMBJmQDh3pdPfYBxUqMCUEmqfW1XGTzGTEKOFXA9NhytQYEsg5qla4bEcAGoMmHKxi3KRNwdgoVgjsjSgsnTFG7qZkpgPEZxBhXZqgIBW3Aks2w5taqcqDCHTrmnbkEUcFU2gWXntXFZHxOjdYKUTX2NUOhHN8WN/l6RqfJsj7jcXWoCp9Z9GNyZpMzD3EVEwAJKuKKtAg0okkRkZpHSZaXqWAy1kr5PX6fUSfVmWhCKtKv+uFkPmdltJBTIkpypCtLc35GdeIUluWvGFyNw3jdSP1OFs5083YgEW/MUEHFlAonmNIUnSGeZopMSbb/wUOxb/AySgYQtblB1yPYRDdNXBbFQslRdVOaT1KtIovmOgQI5SFt1Zpyl2ftDKoxu7lEcNXJcbyuz4PJGYAbj0ggTYBL8umY9CjCbLg8cNnM9KpLeWkabdbgod5u6YpxYM7MNIx01qgVQ0wAnwoexcTIUXUqV6+tcoY64HKtresgmxuetXeY0yRcYHWjrYW/oqxmsrkZDBysULztcZAOcOkVTjD//JyaddJ/5FBfP2yA+ukK2iwXdXa0t0nVNtDmzQTQLFhfsIkWic2PVyLrgshZlaBa50Qe0LC03EN5qXxg7tisjTGnsVlnMYwqGsIQRG95yO88nYFSyg729XZ3dW7gJEs02yed+HoFYm3Vocs4UJaSmwTKLrWt3SufpX3m716WLwDNw5DWWs4pDa6Q4teC3J216VO04ksWsROd9SOTAMHkTDEFFcGNzaYk/X29XfBLXzr7/ZtFsl3qopaSk1iutGrI5qVgdL51tDsav2CXfZwc85Mf72b+hWfmZF6EIcPc+Ds9KYMHvkuzZhS36q4xOh2H0aAZ4uobmvbAr9xA4tSRKwZ3RpQWLg+6aVJFv/WtbeNy0GZB1kXFguRF1MqweUHW2xVuHdfR3LVHKkcireJyTJ0eS7xaa6Z6Di5dAZ+i1uLd8Z2/zFWs8sVp64Bzmja6QTjMclj1FU5DFI0dSPzu12miv7cL3sOUW9Av/YDf+f0oai2X3PzIwTM2Xyi2uGBgzm/dXe2h1iODJE6KGqu9tiwyB6SPqbXm5KDWCnoFbS3F2E2BqujkcA1HA4oybWbY8ZgFrFIOIQIcvBnWGaP/oQcP9fXCPhFGhJUYOztQhH/pl1pcg/ZObtuiWTvqVYDDjCCay8PmtUlHp9u6XiLdYtrWis7JhCw4x5qklioaQTVEDqkz9L9YTqZoqQWrQTERoIpJOOc08ErdRepANypQ7RQjP+swcptkRNVDGFBU9Q8SgAf7emGuhEub4CiPf+kXUSDMZlUFRfgo4y5rNHNBHjrBhLMOKmYilTKypkCL6WgKRSXbUprSYiHz2t4cL0fU7XSTaK027AbR5DsW5hbUXbYFX+di6Q7vRvF5TdF/MYNVl0F5AbCKCsSBD3SABe3v60ZvyhOIGxtFTbssNqMp0lKGt/BIYLtw1AxRg6haZDevlRFxkRXCTARj0j/GuDbniNbYAicn1PdmqViTX2FWgvrlYJvQMD+8oKMoMpHPlq6xmBpuxfedZAwWHHCgHtK3wihw0KkFHejuQG/KE0iRRI2qigKYI2bWYnhjFSJtivSqs2jr0GPAxjFipgLTLSRewdWRPSmp+HZ/SaM2Xk5mvSicTtA0t0K4mFFLOt2QptzdBZ07jSIRu4d1cPIXSGWdEixgKANOPZSgM/K60Yn+EVkIvS5ndJJDLRrw9bCybo7k2M2LkUTGXUNZDQV464pIRAQ2MMhkcKv+UxzZyCrS1fShXOZ1jOBWVR39AppsZHOFywu6eZoEK4yTKVVFn1zFlyGS5ji7wCNx+j+Xhy8TYc+gpHMLrtzVDmf9ck/x4KemSBOKmDmSjdG3eUIvCc5qJBu3hxNVlQDrwcC6dMh7pLgiNpeIIXK8T37cOUE2b1TBsaNWB9l2aEEnsfdUo5WfcaNcRAobuKCJCAbCEKTXv+I/LLBAGVkHvvgcOoVdqHivma9qlrXISuCmBU2BGBD1iKA5F6KmVD2cUwNejqdLx9MZ8rzW0m1GvxxM28r8gr5zmuB23QXGXXGIG3C6uWxjwy6EeYqJcJrAtFLXTz+SKAu8XB7oRB9QQfd5kEzqQ2//AE0yDdhm9vy70SdBd26wg8iX+6k3ik9WizSEyeF01wTdb1TLsUMo59kOz8vkaSo3v6IQWGetOoTOn5htyjnMAyYQ6wRHp0k3BESrS3fmPo5Q+ijOiwwy0ge7tCvo3v4bMklv2iddSe9uJmzN500CSrSQrUmDPpRPeR0jKlPVLLCBqjzT2JyvzIsw7tTSOqNgqsOtpcKenEVxJiMTitUJ381LN5Yv2iU45+6HcXZeBo7Afm6yKxqNtme3e6mRZFHt2izgTAosNiWr1iTzQDnaB/PuTmZJ47UuXWHajgFqOYMU+xl3VuIqlxK8TO7yBr6vg3mE1QkkqwzMRQwZopWlzYt24YPJKf1gcl7kCF7SRHZFo+OJTQlNatgkUOo6D9mnqC2cLqAcTeeyVSSSqn6BCqpyk8bd+bZ5kU1yE1Yxrixf40O0UKMN9ic7LI6QOj9hj6B6+551uPE7/cDJvPNoCV5Z0J5odIDGjZAMqUfpxjJYlIy6+xhq5LgpjMvB9NBk/o9xl2qJxYmKDhk0LrrqubOnJUakN65TXPvkCjnxQH97ueLMRic4WVrhSNBKKAzXCN856SUz8PjWPUpFss86Z80JTWrZ0qI1pWaMlq0elxgsR9NkztRJtFTQh65Ah8mu3YXKnJsh7G0Mfs6oTJNV+fOXh+YXPVitW2OIL6wuf0HvBPZSXDQbRGfcKMKxGTXYp40iSRDVfDx80XWJC57C2Rxll6YJ5Fif/LhvMltJdVqXcazjeCC2XV5KhhbN3glVmUHm5PeLv2exunz9jFE9zRTB8H1m6vtmC4vWjz7Tja5qlTWyT3u7Gk++1ZUn+jDdPWUQGpWTU33y40fLx0kSqVaBFzEPEIaqS/2LNnf+bIy80qvUXp1dQJGxtHqTu9FMTxMw4tWmFm3+QXR+rz3NWXZfdX3tRFsS+09YckZsFZpXH6vnRHIuzchr5Y55A6RV4ILyAKEshcr8ok1zt7VLldy2xNU518N5BxIt3z5zXk0DGsrSFx8hOK+XFs1gzRM6ttmYwk817AWzlowlnxb0+dHy7eMKS+RYSppEbZlquQNRDxDONeeLG4tmY9xtR8vKV9dYPRknod4+Rbh1c42/UWPcBNHKPcfcfXSTss6THDqonvwniuu2Q8z580h+dlM7gMz3llyisT+fBT7mTZJqeZthvYC6XC6N2VyhNLBotukilBCRteULLETG49Qcotsrp5k76fYeyPlsafhj6lUXXO4IOZtochMhdTWQTRxz+dZxayJ97dmNK3WeegweIEfSBTUt4TQI1CbUKluac4WWy4s2v4kzSOONdQ9U9R3RidPvKIn8dHv5qw8/BmA/uWgfD5I7BWpK4ShkENWUpSZ/hnTMBR2/qUfIR5QCciC9Z4pRNMcR1PixUchL8ZsJw6nWj10IbSPzLUG+vAiQMdCgb1ZxlieXPfaRct6ZPZhSTkKlNuOaGx0kOYSY89QDpPtJPmd0lZ4Wc7qxYDaDbEvGsVp0qXwJ2syd4+XsrTs8qDGOI11ZuvPhRwywDTqDXLPb0V1r0f8NcV7PirK8P2hf3/DqNOfgJMfRewHVCAh+pAMKdI8C5wbEyvl3xSx+uY6KF3zqL95eJl/jxojNYKtCo2Q52SLbZrHKxdYBxhByYypujk5yOBV7pZ04EBaX2lNsAZ0f931vLLmzdsFLRKidXlm+M/LBh7yfgwfs7WxvhceC3PaItjwOSWIkj6hG+TxhsYaE+3HkIo2D05xqU4AjFiayazfST6NhZb954do68/WE+C/ahN3ql59H+F5vjHeY+zRSS9RIas1SivmS1hFUpujGfJK8uSpH0wX3wXCCgFK7duexxlEScfLeusg7XJrS27fvSETfXJb3l+adDSLDI4Qhwyx8D/Yk6QJMe6m0HJZFrKE8B6RX9P4ZRhdc7mhWpCMARJuQfux00pexSAUlwFw7OSub/u95Cj4upmGZV/GqNmnSFjXsJbfPskYID5Fe0bXjJCYW3As7iR9oKKNtoPMnPZGl9EWpP0ZwzeLig9SagywDrRKN9gVvuafqE72b0+mLRjIPlD7T3AmxOjvGAIPRSv+nTj5gLDgSz7eWpV7gfVJ/X3dnlVjA6Hml1SNK9JLfQIxITIecLBHaVnPSH08t9snaCV7VgnZkoAMDXgdhMtgY04xDcj//KYwP53p2jxpkQmp5Kpr9x5HWfqX29sNWz7tEeuOpxR6dZVXVsYHA4YJH9xRLlXaUnMNfkdpS+v8MAB6iaMy5nvGnuWonKjTHcNr/qNdg2+/ncFsJSaW/VNlxICkcwaRUC6Vy6+CnIJPvB2flApsjfhFt6gC6/AQ6m6hvNJHtlgViTZEiq3sbknr3RqRcJn2l+o4dvYdYp2i2OVdwrTpQMs5dJFHY/2QAztOo/0H8mdtSwWey1VGJpiFu6SRcFeVvSKSWiaQndD2vJRwXsmkdIqK7sLZu4GBx+sJ73v/tHAHmIqZXta2CxmBMZOujknM0nY0c55ajQkYhbMs0O/Ytk17QR5ayWspxgdeBzqi4O+9aVdpcQBIXfcY3+nAOZ+LH6GIqOMuMLzUgXqhMzuO0//FCboaA9ZNItZzjwn5DMTqd5si1ffrJJIlzU9doxJk7Sw3drn4aQXY3OocuZLZpVgTtL4uUBNGDQuJzbphQ+kdX1rKOA7TP4gUnybV92gf7P2VkHk4ddsnJVJyLi9CWtB/oY64cRM6A3iDbNRLzEVZBf4fss/1MsmynhGqk0gNqjK6stbTjAWsIaXOOBNWOQdc9ifQPHIGz4lVxBBdTye5q3MbRDBBrivol2Dq2U4BATtI7UplPODbHauoUDjighNicOKi45h0bA/0fh8D6B9zbG3wZLO5iKtsgqibpUWI2pnRElXxazKY9OcklWm+aZLUjjg22UNIZJZRwVZ29g7Gfiuv7oKBLuuFLCrWUXBRdlG3UbRxx9DCluW35sjisXIFJnJFfDbr8jHkb86ySS3HHCbpUocPQhMEV5ztUO530uDw57S7qj0/vuN2jHqUHQ4V8YgFbXo1m1deIa8J+RvABfx2Anbx2ylHhDWUGHySA5lIsuSqpQFdG8Gl3SQb+9Rl31UpUsGkgrAgqMWWBfAWeCoDBSdh/oqZrBru/wCrrEDhQENtFJ+AEVEFTJ2Uk9EpsWpA8br/tIyzWdOJspNZRiHqTJLsWJ5NzjHwx2H1eu+kAoJRGnkWYhObyqCkrIhKhjma2QSRrGvgWud/UyGtKjNW+mxCE04hHmeKBHr2B1tmVFXM4HFCoZxFJfa8hBBFVmVmeiDlBl2yrpUy4Fd/DNM5D7nuDT0cZvSnZsTiZnFjHyOeD/ACCKRorVtZiDvY0OGh3VNJ55dk4XJX1PA1jjNAW1dVIxLImeGkc8l6heKR6gLIVpHIyObbiJeZva2aAX0brZaqs1smVjXU9EAXg4HmVaNr5ns/kp/N/T9SUax0zdLf0uyfAbWSGk/ElSzcwfxgoA5y5ic7b6pWFHXxqIELY98pT61KhlrxIe9A3BqxjdM5Mjd3HVbAUxCTLxpZMr3mP/hNPGtznfnx1mvCj6a8OqcPkIIdvExNuZk1GuqNYvcFuxGicAGQenSG7y3yJTa1+8SxpPxvYa6Aen0xGZan2v1pih9CRSQ4L5dpt7ys7Fy34GnC0mLbrLeV/ywBYQWyDJd1a69IGK+9gfmOkA1u5samNnKbS/3fFDp3jktjCDJUVbKuUee75e5TvbYpkBafpuIXEq3WywQIz+NOBrVyg/8ZGZlcH4RQPhM1LYNtGPaMZpIsYFYKYUF+wNyvSOxS7m9VlqY01WBEfDeyZHDozN06GLfV0HGpH5pFQFBaN12QeGQ66ydbMgHItr6dEcLS6Qdq3ycphUEe+tJSipFLTAToYbqgtp1rIMFijGbTL3Z2l0mpL2hXuDTECijUpphBcHKinF+MeTz5BUeaRjtsBSq3kmKlSLQ2qWSiPrsfew8ODpo1OeF/dzlfChduZMpofazCzgsOgznVwlvrDdGlHdtepPPFUGJfBknPpvev4CUKPgk4k97MwwTGXpkOozS3cfJbGoF41cmg68RMvIvNYh8NRv1zHUVPj1mg0w7vWcccHHbg9kG8f96HUGs/EbcUCoVZXbmUwqBddP5JopMHJ5IX2IKczATfvz5xmRHlU8aj93NUoGKGISTl+7kauhFOzmc3Gl628n7lSdVBP45wc83Ei1KCgo5rqxVyXvc6XBV1Lz+00ucC/kVExRbRtZomllUeZC6EGFWfGbWwia3VqdRR06oJyahjkvCp4yEpKNzWfXAU3t/P3b7TI4IyFrWhXkWC23nVsYB+6eJHG9BIby0piWuKFWkB7aA/luuMF5EXEAJRF64KjiECe0sqgQZLmkiLzetMDxwb2PPslGkvb/x2y9Mxq0gCnNk7nAm2qj2vdq04F4NQut3Ws48zcxH7jdJkrzGe54BQrZtNm0/UuDpd+lNvlrmJyiVlSEEECpLZAJ6C+mgEemn3N6lZLedFpDyFGCdI0bu8xnPK/26KxumMPh29/o2DfXe4mpsaXWBZIOnQBQKEY6Luh2RfpBawW8KLqedI51BxGaSeCmEzlST5UMo0/scQyvWtPCbhf203YGPmXCjQzvwA63FZ0NOA+WHDvagS8Re18g7P0mGw+1Rk4CkvrqP3KZ6jv1/G79hTCj90EsVDTtfd6JmNqustmfWXedevkvz9ZbpWoU/9HCQz6V76jZnVynP5e9U17SuG7rmJybMlVHrtlTzG4Am74XsMu8DC7yrOs2tNdXP5SZ+P/E4FNXNVpv+wuLv/GS+GqTpXfvCcw+FeIfdlya19p4buimParNM7E5j0onvj9+gf1zj+MP7I/9r/+k/pX8acRfxZ/bn9Z/8L90xxiLYjpxJbNXXUJjK+9a48OLEO7aOKHcpjObO0d9ea5iaso8E2v7N3TR5h2ErXWjbesnZ+aGL/KcRMRc+sX9x517yVMk2A/nsyG24RWVWyjlm3K7Q6RbSFtR2qe2921bk3t7ta2kraNse247cztl7DtQm3P7tz2RLYNe1s71JjlVg2xp1jbX6lNeBK3e2u9L7VKWOR2P2UPJGZmjtmDqT1Uzl452lovopRtQWyryLbxtt0soG9s2HZhthu0Q4jtQ2w/Z/egdi9s98P2IGgPCexh2A7L7YjMXlGwoy3r26DhCcKejnjmudZeSOyt1t680jlsqVjzypZuyzmgRavtarmaVjvUtijTqhrubxisbRj1MDycMFhLMLb75Oyg80rK2UzO7Tppj+Kk12f4nd+13/Pm67gz/TraAzX0F/IxjTkaXVKBwE1VDVOBUwKo4L6+4q7AzxsccLC9kvsurneK+hBVHz2ptftqg6koSSNEDJfGg5SsT1KZWhE8RWBvP6FvVDGwG9RD5bQOqgoDeBfWVAyko/TUtF8Qe8OGCW3xwVIbVL13oPMSP4mIJPEQ5fKZlkXbzIYHagdUd0arJXVfD2hVz6ehAvksmxJShuVLYm+r1lMYTN0+lBT2O6RHiLwSIQrlC5MND2zpNy3RuqIPwuramrZS+WTvkYWdIC9LSVHiDg0aedVDmFchR7ykgtHSnWFCWxDa2gHdOby0TJG7KClTOgsGKLWSlEYTPDgcAFGqIPW2wtR9zRJwXpxBvaOkeKaFO5kXfYXujKl8G8mUmFPgy9WhmckIqVYSmfUTZgoAH+O8p6z46RvT9IeAEiMlebEKZ+W1JPb0F2ZqXduJ6/lEpDej8ilJ3Inu6GNp+ge7dcFIeKRSLI+GmRmp/DCimQYd6SCF25R1Z0cUOIUzIGpFtMyMR9SuT3Us70DehhBmaoIuXG6NkqpaL+rhcO/d0yibd6UL+sw7Q7VHMFMzdGBGdPaB1FLX89VEn66dkiyWf8UQYiro/PDBTCXQlUfDeD9rqiMeNtkW3pOBIpL4LtQkS+WHD2ZIdGDGTl9u3e/aqRlz8sP6msyJ5bsC7yV04MGKHb/cWksPDYTK9qgXz6ivR8FHw1hnOu69hHU99mgYG8Ja8IzkK4yiCTLSEbj3FXrg0TDKZyR7VBWsQaGHlZd7RPlRyo7V6raHtIdLwPsLw+By6x56agR81I7bKasP09/2Hr8kt2nT4SP0t//hvYukHUn3iGOpHbkv3ZrNiR22eoIye3gzaXH0NGknjN6mB3TxZPL8JcMAW7x2Mr+zo7pPAQ/XindX7Dzc4lYKrxyj7OhhDnaCNBZHT5KWYXPKh4+eIu1od/FUY8OFdusb/f1fayW3oKQd4gyCrPQHSR9m672EuonN2TIweGpIYAtFLx3P7WXCXsrtRcIeoexRyh4j7HHCDpL2K8YO8LYvHLJk16meRbhdit6zFG4vwpvWhC+N22W0OaUBQq911heZ5cXcg2A19xoujwMQHEQbzxZ3anF1JGieth8sSrLDnuZpFBnziIReJIlWU4SXIs+4phtR87oMXho/rQkfaliMEp2URiyQzmNSqlJyDAHhgB4dSsjTVt0rEWhJVxNQyr4AnWBIHZujp+i5115/4a/6C9yKDuoRBZOjNOUVtRJr8sx3TX1YElBteD0SdjZDnR6i5z6+cv5KvfC+f/D6873YOQAS5QjJMQROSMMp72arIe7Bu1hTwWGzmvACnEiI8CL00Tv09MdfxdfuEee/vPD+62/1E7YwdkhEbatQWIwOENXyTn4boamJKNUY1wglWlSnpvUNvfHV19/UOHf+48YuXaivvzVYmFXCFm7ZJSQrQVGaskwbo8lTKpdPTg/qK4oTxWlz79AbjefnztcrH3vTqRft9bc6gWee08FsqIGzncJwBcNSlKVD3MpIpCSdJTXa4vV8D+sQpTyOSNE39PQ3TfuKwute/c3SeOKNj69Uf7/5uVaM2dCiLZXFSyWOexcD6EXbS+N+CFH6SHetLmxpUW34h0NKlOrilf6hr7759utg4KXx9PmvEqtX3n/NXhBhtjUt8PSicFjtFoEOOk3enGzeQM0PINMj9hTuGlJTQiVEI1wbA00G4cq39g2Lt9yKIvkpwBuvsean2hdApF5Vwxag84gSMaILoZu0liT3eKrTcHXowZ7q3pZYYiSW9x3ofuCxLfcoThBEKIeTQpwaTCI8A/Dst2Zf8/SW/bcUw7Pn0p8CriRfhX/cLhhmE9MDQI9Jj3vXjBjpELjgoXCvHNH31aWxABw6sLdUVLUwKe/vfoi5CIC+YqCUQvAIKUR0eiDpjUY5JK0gzn/zbf3qXIam03wdz0OY1cUWBAcJwqTjlGm4zApBu/e3FEFcYKEJ23vg0JZ5CJRGTbEI0EkhTnEkxbGOwRJhkfQBKok32kbjdf/grefLowI4ID4v2W0KD2IyCZyAWjtSLRWZCFn1/ifdsvxXX3tdXnz2h4efOlgt42Hvu1f5RQCiRg0QhFLwjI4SJIWITncX9xFkAL7qGP3im+ZeEwv34tgC0W6C0MICdFARERyFGFrat89FbLbn2aPfiHwbj8b4xuuvvfqK+1zUs8/88PADB6Dqlh33FDjkjSHTDGksB6UmwSmWBgZp1AzCNx2j9761b3i8AGGZKrY4FM4PfIMlnSRswpDtNtrt0F6aQdbz4jf/pd85Uf1e/8uJuBn1xqsv/PDJw4/9zA3bOvfqXjASKHJNkcYAOimDiE53np4E0VZ2idofagG8ZQhK09ad2wY6nHMbIKgwDpSKrNz/7d/c7PnbH0HUyfeggl4kXn/phw+7s3ruuPWWsD3KKiMKEMlwSkSnO43EQ/F1t+iJ5osogSIvArDTB20YHADvphdofWV+nAe+cZNH5M8G0X998+3RN1575aUIQ75xNEbTV555/P5f3rWpcfxeRY2QENVZpEEoBKLxNDh4krCHWZzrVvgNGM+XRXVHsEmFTIOqGkwUCXr/qSX8Xj5bPupmj8s4c3W0B4zxpEXVZ1985dWXXnjmqbvu3nH7LeH36imMXCU4KQRCR3KcRnC4Q3hSgje6Re8VQoGnRmjx/FakywLJ5HXQbMo4yJnpQej/VzFTeF/jwxOP/+wx1cP6Q7cVT/QdqO4DTcvjlGmGxcA6EpxCaIDwFI7oFv2vQijxRHkOzyUi0aOqBuMpHRYpESdyatTWLddUn/mzuUjsb//1XSCeekAes4cfOuwe8/7qfq8m8iDuzsIRJG5vOUGqQmBUsza4VL/u1HnJrwtB/3nyEno6GVWIDMPjmsBCnB9FVqG8Hcbm/uGZAPcfjNDwocMPx+o+V7kvJY8jUxGdlOAURL2A+Aa9bqTHOlsT+nH6ZCXDBhAZi1aq51S96up+1h5AZn9LivtUXD99SHT/XjdYXyoexuHkvCRFhDpF2iDo9CDjD64g1/V90VzXN0gl6k9jmtJPE6ar1nV9VQ1MOO3TSkytKmR01va6Fsj0v5LBjXbI4b6+g/ftgwc9nManYYSogZAOTuW4fzOx9ATubC5UrRRaa/uDNJH+iwAk9Eg63R5hEqZLKse+s5kSCrpEU/exeA3ZH//mKDEM0HPwPtj9HTUFL8MJIZ2U4BQJws9xerBRn04e5kXgUvMwgj8vhV8UgvazTGf0YPrrRlCqRSiCCuPXqaqhhUPEJqlQVQEHeg7sc6imsJ5PhBNRAyICoQeGTncDx99+593q/nYJ3Pn0x43jEe0jyyOaC/EKPm7xHHieXQztQ94ZHUpC9nQVE6W1DCVRfkA+vDaip0c4y78O+KOkQ9X996FhbT8UE/uHhZBQqjhO0QjPqEs4/s7f17/5279r7N23ZQgMfxjPnD+XvsfMj5MnSiiIJ9DroKTQfpbpjCRJmm1SklyDUoe30D2FwyHzN+QxpQBFI5lC8XBCL0SrOCUqAUQ5TncBb/99bRB/2zr2jgQB44/sudfe/9j9fXvh+ex5bDp1naoY2lqrN2gzEoWRUWDCqnDnCFB6Cc/WIYvth9DN+Qwqp0f7etDQutfh4aQexmICESWK4xRC7oXBthyNY8ByH+E16PzzjJ3DHkcgwdIGuppJd1vVM3kSrBt5sRS584Qv4A2BGNTlfAxy5b+mS/uqDMqJl1uL6KiMWlVDshA43QEc//scqcXbGCIGA88mzyFCwP31FyAsJzyz9UVecqir1Z7znOjDBZbCgXY9eBMjcAAitstNHlURVqLIVtMmxXAN9ycdEcZiAiGdlNApFqnTIbzD410EEYOC+uyVr7193oUrH9d6IX0cLo7Wa6D/knApnva+RzcLqi5GLifCdack8rwYlUKForGQNkWGepJ6AS2mENBJVUTipDjdBbzLICwCQAwQ/qA+kf5M2wbeT54nQUIJyrwiXOveH7O/+RXaPU3jBEOZJsylx73paZLJ9TqVQTdDO/6cNjF4LKEvR0dkqCB1CX8P4G0OEYOFO59+o6mo3np/9acoMi8sYGyRvmLn3sqjIb/yaSC1EyR/bAwVCULDQwOVtr00veO/YKAUyUi3pD5gLIpJildY5F50BscQHGfwwH0xOB3i62jfOGnzhUiQREQkVK2UH4S54d+PLc+ZbR3FQS4tX5JigEIbh0h1YccT6DhOut16Dux3rRP6rpDJ4eHhHe9woKknnkd9+VIzgvQeDUNqe1n6+PE4cQHqCJG5BtQfHBNtTptYO0D3e8c/gktIj3n2e5se2Ft+IKFHQKi7iArAU+kM3uHhPYPAQFKRTLUs3ew84J/6+uMk3TpG+zjO1qEAeMnveAogiMLBH5d0pepeSeq1iVAZNsPkHh2it/lhx3sGz4M0a5mtV37BTk/REjvYJ7/3uf6TR4gw63SL+AhRjtSK8LAQzbrqP4tYOmQHVSX27HvoiYQexmIa7iB1CP42Bz+qizs7i782y1CxTuJES2p5mtpaYpV9untPanek2qMDQuQgkmSoCKSnhFO57/9sEKZAFg8e+dkDWn34ycS+WDhihy5lWr7DhKjzku2FI9roMhGoMlLMenUCpdZHHpZHfoCvhkmPbxNBF9k8+AhC3knKJCSJ/SlgNZEje7Hm/0Y+5pUUJk8dlp8djD+MSZdbw1iUhzGQClKAdKzgdVBvv5NfN9Je2NcrFE2r9c/fREiCLdXF1FqyMrSNkR+PufBsaoce57Q0wUaXoLo/A6pYulAyq//15z+i5PeJcPDwM/qkxCee/eETST1GhErCICgfQR4JBIWvU/XmKtVjR10GB/Bs9/F8Yn/5Jguqu171rSk5gaKFjNdHpJewA4+VC6uBkpwkqKiiKj3QAnu/My/+UVxg9se/fRcK+eGL+mx8/Iln9YeJ1/PBWPQ0I6ECnUTKk8CkdJjDs2aDQiEhpUfDcARvDELG62Vle2778uFdp/CAYyRQnzYoF7WQrf7X35Se+OO7bz04bPGZl1571V6Iz74ozz6ZeLk1iLtzFRCKp4gI0nmA8ALA4U7j/rQzEPAMzzV4IdE3AVCJGzXfmhIJkV5uvJDpsy2z5KKp3QcfFVEtR9y5dsqF0Zr0jXf0VV3znHz3t+/VJUQE/kn63TfoXJBOoJ07xekL6iaWy26FP9xiMVOYhAgUhAwYAoY9/Yd/1El6pmn+Vy/8abrISOfRMCxVCiLW6xPP/An6JKZ73XlAKRwSiCUCXgUJQEPkSM/eYv6Bb6Ghfv839ewFj0fdi4SovPIiRIm9kAQlt+OgNGD4YOJ+Q/D0ndHFzjNmTeevXkjpzcYuAEBJMgOJskM79zLQFTR9PLU73GtqcegghqoHE3h0nQC4hsih+6r3PXMUpg4W/HAxGsq/hMbZKu8tFpOgOglLqKkGDfcbiIhnzDrWafHH6QdfeT5ZBJhrqMh7n2nJx9gW8CLAfX+ghr3WeketdVOtTljsPiijEELQzcjxVoUaenE4eeKl17/9RiTyTV8jmTR8KbpdgDwiLukcjgnDZmHOl6RL833fHSTHaZ4xSzvJ8lZLV2Ca41Fh5bGXjNfT2QMTh7wMcLKpemIbWWtSDKnBMMrzwdF+Fpr6mAh/6ftn0GUBzNAAP6yB+xRU6ERolAjOS0bH8K//9I//YfYP/3wCRuO5uQvouS6h/UL+2FpqOgmhmEupyFtTKuXMysoInTmMbHSDbDEi+1xZW3cdwF4aQAiYqPL9rXKoKVSVw08t8WW0nkzk4U5BpCpBdC780q//u7Uw+x//fAwA4QVET7dLl+jZFG1rNCUsTDhMeItAAZTwG5mqqSWYPosbOLu9tdtS27ht16+SYQLoD8l3n0psgAgPh3rj/aMeC/Catg/30h0hRbfwP5OWwv/hGI92VBsJh5A26w7lX0hKEU2zNyXEoiqpFXPNouzLgEf8E+e2xKj5bm0tG9f+dIo8GST0uBiDw6RWAUrpozXoy9LmfBhe0ik82TQCzcKjXUl4azAl8Pa0S2H8IprWaNAtUOygf8+pQuJcqiyaRfLe+bMvhrwGZHtPPh9rt6RmG7ds333g8Qg5mVAiRyU2IEcpZUhVA1cGiwU6A0QP/XsKYvlngNwbEiD9sbED9IsWAL1lZgDInwoJUwoKBCRrlguZO3uxhE2aWyySXQez9LVffePWnftEJEGmGSoCVeViOB4qogwW1dEqjky7hH/7dQpc0oicPKHnS+PZlPjGo+FekR0oEh4dwblaIVjA/An/9Y8a+jqZtuGObbsPoE82JiUabNPSexlqW5WEtfVweDhDi9pEaQxCyb9noJZjABzEG8R/xp/zptuio4SA5LwUfAjHATQ6qWzlzMle9tVxq7e1NxIIiaYgztdgCC3lZjYRyT49kwotuheAtKRb+DWAMzBkJe6eXrZUnJ5mqQ0bDxgP5F5HCZdbY942y2eclOj7bomOQ2cOse8Qr1vsEruRNY9bN2zasn3nofS5bEwBgZ+IjAJamf6D1g0NsqNObRuckmO/Lkjf1O9Epo5fpLAMMmqEtmkVgMJttToESKOqZomsMVtL2PqIuDGyPcPwfYb7Vw8D/mZI2l8n7ZZtzR4lR8UQofeWSQXUAeVIIXysTwgIPyjAb/6rNXevXpO6WsnPZa8PlFBwUki23BqmXCbujIpkB2knIipJhPg7LqB+P+/0LriK2AWrGbMLRlTakn/pvju27dx1aB+AoFEZFNDKFAGdEto6ZAegI0I0+UEK/yuPf9bDt//FGYcukQGALEES82x2gJrR5MmIhkwe8oqj8TdaQ/z7yCv8aXSR+5+T+9/CqvQXmHpb+1umbfesbD21VraxuEdD7+epvGZExJTxylNkG4Dr+o7FPyXDSNUkZCkIqkWmWpTotLw4lfIhkiP9zGIV2KpsBWtqtYxXpeNyLmuW/Eslxq1224a6uNE27aj17u22c9fuQ7XuS/YfMHJvYrI3eaf45jpkSsLVIaMHunge58w/0fiHE/x5HBGpLN8VIXIBgbP3sgiPnc9FiTdhDLwXY80PTBH99IEpShzyZmgRoJMF6XQ3r7s+nixZa66E4iEhHfyoBfcqs//EKZ/Y14pQrIHviVz1cKjge+Tu0jvyL630ce9ci1J3wTn/3FzWl1/XJ8MRFhrLtz9VQ9VEE4tc4ls+x2g7fY3vgh/Ppn/UE2SagdIICU61oKxDuJu0h6CLriOSnDYUli+//0lH8A2NHJPbKc1JllvjVAtfmAL0a39qgev5cnlqD2XOvveZ++htYvHgXtJonK52+CnS7ASDI/Q2HWG+zuoqpoAHOfz4A2uXeWuiYhBNlfLs31Uom6rfltHW2i6rNgja6XfkX0LDo2u/K4Cj5rmZmQ+aGf2rODhygvm9gV3T2g2J/TSzn2X2Ey37noAqFXZwWp++B/NpWnndN/jqBTQ77F3yl2DgGh+z3s3dBg0PNmanaHyfgXPyRSvwXdZ0qcj+nZC0Ne36UFWRjALqRzJW+Hg20g/rlnqDREdyrz5QH7TTNK6jqWaep56e+2MGVfq2hf2rsEgp/NMwqp90M9VagXZoFV1R75CGC/TI4SPyj54no6OUug1O6nDuPfhA9aOvMr956NRyqmUofvhOH9+0sX/4Jm1M6BF3VFPBxw0Sq7nsM3wPpHpt2wM15aMf0r9n2tQjJKNMtJbwiMs/cPajOWBfkviv9kZei0GfhoFzXVIbOhqyvKwr1izsMGU6UJkjyagMh49+ROL8tQxVvjhca0ntp5nV3JKv6drMfjhLWmce91LJSBTNtwWqd3cVVjW0HT8Qen+HtAwpqOSjYOU8eGqV8mrl5rp0bUo1UUoIL5SaZ4i0ee6lyJzLNH7kKnAE7VTrm4uV1jbukbZ26OMGDZkz7F70FA4mOipe6YDlzQ7XB90Jz6udYX5tjQAVSnBUiYWi68Kup3G0rX4n8r4/fRheKidyk8hullhLuNwK222U3U7YBsQWCdvI2ebENklsB2p3w3YXaNt/KbFdvqflqLUGb3sjzGw38KubgexJyO5j7P7MHnAz5jczwz3SvcANl9KnMYvWanY0hWxx9D1mrgwVHqhPmXItc+w80y2iBdOooISj1lsMlwXAsqw0OW42MxO/rLXsOj7IlP/ap1T3adU9+XbAFj1Y20g+KRJt2G4L7bgKO2rz1Ozu7TjE9kC2V2G/xPZJi2SmnDG7/4GWBUZ5ZJ856n3uWp5ql8ku0Xi+PUOW/0eU4NiHFQkvkLzKKwv+MwAAy62qay3hmsKgHOxFysxYc/O2DvC8enWuNmE2FxZhCVP7T8bmBjTSocdm8Y1o29Hmkp7MS5iuzT1krEfrJSugb2nMLDiPxJP5+xkFb2fgvSdna8c9kDGCxq+01/bqKx9xGZjyVijsFQxfxxTqoRL9m8Iq6wJeDYjIKuLmoHVCM9YkhsyaXn4pdc0c4yLgAnrZYkwt4aGRSuSSXhgZIVNINADa3JBlgWB0MxJ1pDEOGE16fM49iQD3m4Kt4PVJkZeNh6Nhsnkbh46k8cNM3i9nuOEaNkz46pR1nAEh52h8295Ms5LE0rin/fDIIhoSoWFEoK/hiKwwdBS80LgpJ+M8r441oIypp3ySaS+ph/qb3S2cMySKZJGfCioXSVoW5DWNOOPJsgoVJogmnrk46lR90urDJz7h+hyxwyKK0w008V19ta2ReGYcFPBt0vERtS0gKtzDIoEWkAFOW63pCGQUqDda7iMxaFT1yo5KopWM0otZMBFE04oNwLI57bTzGFmEdpyLktpE+JbmsXlyh/bCWAUqXOhhLR7If8Rt55NEH+I4laNM84s58jxGqstP3ZmpeLrMQN9ACjEXOQvxRC6ZCfVMwEMdqcqms7pKzwsskhfR0ZpEM3UmG7Dy8xDTccgj5FD2zrqoCIjuAObgPCKCzbaH9wzyeQ83sedhSU5S4dxKqCJmNKsVCmt1uePeFZcvzzJ21CnfM8aQwqqWk1g2DzQnmjgmnpjaffhGMOuBDfbTImhU5XJ5hI+aO1DU1ldg7vBsDktcsMxrPkIcq2R9XgRrcHOADTiaAhN+T53ykhY6KyEqaj3G+X6J6IMaoUuYXCMW/e7HeSYX6J2qSAuhlWBvguqgD21m6YScR8yAePja3NEibh6QbuXmsdvTVE5cdEOtgKbzm5uzHu9UFWXr0wyne8glnInIvRKjIiJoD49iFfVhbjb3r65rQFdDpyX1HE6ckoxyucBB9Zu+XL3RWtZWhGUjqDlbD55BBMcosqxvP8rP2bWhDhBNPT5CFSFztCTOcscGjfOC0Y3EKG5F6KEUry6fAYhhB7rzORPijw9yzdisvmdhZpaOSkhhJZRXT7RlSB4l9ctGHEqg8n0zCV/wo1LI25t0XOpSc0bTUEXjUOb3efNZ1Ke8wI4O8uuCygKiW5FIEs8qGa9pwfub866JTt7kWZUVAfPzq9xDljkwKiTRAivJi9Jjg/Coh4BI7h0+nY1iLoEiqpGj3uoTWcRh+aIFUP7yzptXNQ4wqmZ/sXuJbsuCzLINWCuz9fjZGzM2Rp6KBBpbAczPrwRYBW/06Xxq/tRE3o6sTN5gz0EB5gg++pSzUDtvA524p3/2hOgh4BT+4ROvZvX8GLi6AvY1W1C0UMlCYOmHZ0689Mhjvzq0a3tm/8pM3KccFHuCg/2cHWgNu3zpIGeP0wZeu/RYa48+5LU6y609gtuLUntJaC/L7LjMToB2ErFTuJ3G7YyevapgH8Z7HzG3B9wVUEh1ay96LxYuUD6p1xJi589enbKLfOsW4oJnCgj9V69RN5Kaq1K4RBcReZsic0r93Wvnjn1Ty/mrUg0qssfhvzziEGK5/surVFl2xla7oNX6wxzYtUtXl3Duh8SHZ1QstCBMwvnhatIUX36f+HjRrqoj5u2LvEtIW3XxqlH0i6D91IP8GKlxN6+ka99fuDq0tuvTxq/Q3DHcdMRlnEtXe6apF69Lo/DVIlVaBYkJBy1x7PLVnMCFH1IvrgF8qChMjKYkmAQuXjh/FSZnl6+7lvUIHxoRCdGELvJDHbPrL/9w0S7VC19e9bALtdoXPyQHUph2g2yOdR/r0M9ITZk7dIAo5eybxz+dMyOMjgBzQD7BKlsLuMAahwwA9thrBRGjIlGRKDJHMYRGakFW8UG03IzxTHfU07y1HNt7KleL1QdZD0QZrxjMGmRKpwqw8jDG1HTlr/bJPgaw4y2JOBXBKnIPigr5XFlBNK9EAbGggevTcS8+6InUsuNlFbXSUZ0W+2sk5CCsnDJk2md9Fku5MShnVD0RoUcBc9J5uALSIcuh4WBKeQr0OG8p7BuM+7GT8ypVAa2Ei4gGX0txQa2UUDcQlrNUPsGp9w0VvNWoZD1cwc/Pl0AGwXIuAAydMf7NP8mdSeYzOseNpyugKOURhvByLiC4Fz+W+TjtwL61IvBcJcfj99fDndZiy7mAJFWR/2XF3fNcRvYCG0vfvSE9rp6ZM5gPT1yFQG0D/NCehz5rykBOcP+GOzSYKa+DnUYYSEqBHUrhA71peG5NIYfX55FrORqHT/FDZfY4l9BuYGurpx55gQjkDUaAdYLy3L1CpSuf7FSaD8mx9bA3SOXgcC7F71Ein+tdwzFgjuUEP3sOVgHnBNmoUq9Ce5y5nKG56qxFYJGBXNJyOOVOl5bjeJQUwJkbgyqZN4i5BzSQr0kN2WZrfMCzNNrmqPVTZfFe80xLyJ7qvKse7d3jmrPlavlK7ACpNYZU15IeLh4mt+mOGXMF6ySO2UKGh4ippzwbUGuKjSn3LG3FUuhzn35+JwDcP8aHA6xnsA+2bKmI+TjNAUzh/6Te76Cp9aQPRD/f0/SD3lUj31TPeir/45bac+ca/sKE9XDvqrKzarbaNzC9f3+Pc1x59sfpn3qU3P9D/Wd5zrPc/dt5fvwfH//Hx//x8X98/B//VTcU;fontFamily=Verdana;" vertex="1" parent="1">
          <mxGeometry x="365" y="455.28" width="70" height="44.72" as="geometry" />
        </mxCell>
        <mxCell id="HGETupCOhlLOczf1D24e-11" value="Database" style="image;html=1;image=img/lib/clip_art/computers/Database_128x128.png;shadow=1;fontFamily=Verdana;" vertex="1" parent="1">
          <mxGeometry x="510" y="460" width="50" height="40" as="geometry" />
        </mxCell>
        <mxCell id="HGETupCOhlLOczf1D24e-12" style="edgeStyle=orthogonalEdgeStyle;rounded=0;orthogonalLoop=1;jettySize=auto;html=1;exitX=0.5;exitY=1;exitDx=0;exitDy=0;entryX=0.681;entryY=0.033;entryDx=0;entryDy=0;entryPerimeter=0;strokeWidth=1;fontFamily=Verdana;fontColor=#000000;" edge="1" parent="1" source="HGETupCOhlLOczf1D24e-14" target="HGETupCOhlLOczf1D24e-15">
          <mxGeometry relative="1" as="geometry" />
        </mxCell>
        <mxCell id="HGETupCOhlLOczf1D24e-13" style="edgeStyle=orthogonalEdgeStyle;rounded=0;orthogonalLoop=1;jettySize=auto;html=1;entryX=0.003;entryY=0.344;entryDx=0;entryDy=0;entryPerimeter=0;strokeWidth=1;fontFamily=Verdana;fontSize=13;fontColor=#000000;" edge="1" parent="1" source="HGETupCOhlLOczf1D24e-14" target="HGETupCOhlLOczf1D24e-3">
          <mxGeometry relative="1" as="geometry" />
        </mxCell>
        <mxCell id="HGETupCOhlLOczf1D24e-14" value="&lt;font&gt;e-Signet UI&lt;/font&gt;" style="rounded=1;whiteSpace=wrap;html=1;fillColor=#6a00ff;strokeColor=none;shadow=1;fontStyle=0;fontFamily=Verdana;fontColor=#ffffff;" vertex="1" parent="1">
          <mxGeometry x="140" y="290" width="100" height="50" as="geometry" />
        </mxCell>
        <mxCell id="HGETupCOhlLOczf1D24e-15" value="&lt;font&gt;SBI&lt;/font&gt;" style="rounded=1;whiteSpace=wrap;html=1;fillColor=#6a00ff;strokeColor=none;shadow=1;fontStyle=0;fontFamily=Verdana;fontColor=#ffffff;" vertex="1" parent="1">
          <mxGeometry x="80" y="360" width="160" height="30" as="geometry" />
        </mxCell>
        <mxCell id="HGETupCOhlLOczf1D24e-16" value="" style="shape=image;html=1;verticalAlign=top;verticalLabelPosition=bottom;labelBackgroundColor=#ffffff;imageAspect=0;aspect=fixed;image=https://cdn0.iconfinder.com/data/icons/devices-42/512/Normal_LCD-128.png;shadow=1;fontFamily=Verdana;" vertex="1" parent="1">
          <mxGeometry x="80" y="285" width="60" height="60" as="geometry" />
        </mxCell>
        <mxCell id="HGETupCOhlLOczf1D24e-17" value="" style="endArrow=none;dashed=1;html=1;dashPattern=1 3;strokeWidth=2;rounded=0;fontFamily=Verdana;" edge="1" parent="1">
          <mxGeometry width="50" height="50" relative="1" as="geometry">
            <mxPoint x="640" y="550" as="sourcePoint" />
            <mxPoint x="640" y="170" as="targetPoint" />
          </mxGeometry>
        </mxCell>
        <mxCell id="HGETupCOhlLOczf1D24e-18" value="" style="shape=image;verticalLabelPosition=bottom;labelBackgroundColor=default;verticalAlign=top;aspect=fixed;imageAspect=0;image=data:image/png,iVBORw0KGgoAAAANSUhEUgAAAgAAAAIACAYAAAD0eNT6AAAABHNCSVQICAgIfAhkiAAAAAlwSFlzAAAOxAAADsQBlSsOGwAAABl0RVh0U29mdHdhcmUAd3d3Lmlua3NjYXBlLm9yZ5vuPBoAACAASURBVHic7N13uCRXfSf876lOt/vmCZokTdBIIwmUAxKSQQgJBEIIGzDBfo3Xi82y6/DYy+7Ci+Mua4xf1vs6G4NZG2wjgiWCBErMjNBIGmk0OenO3Jxj59wVzv7RMyMkzb1zb1dVn+qq7+d59CjMrT4/9e2u+tapEwSo6aSU2unTc9doWuh2KXElgCuEkNukRCeAdgBdikskIh+S0oJlSViWBcPQoev1v6rVCmq1GqSUbjafA1CUEnkAwwD6hJCnpNSev/feNx0VQrjaOL2eUF1AUAwPD7cZRvt7pdQ+BFh3AWK16pqIiM6yLAuVShnFYhHFYsHtMPAqUmJBCOyWEt+yrNSj9913X7VpjQcYA4DL+vtnt0upfQrARwH0qK6HiOhCpLRQLBaRzWZQq9Wa3XwawIOhUOjP7rnnlqFmNx4kDAAu6eubv0LT8PsAPgIgpLoeIqJGlEpFpNMpFUHAAPDNUEh87p57bj3d7MaDgAHAYePj4/FSqe3TQuAzAGKq6yEisktKoFDII5VKwrLMZjevA/i7aLT8u3fddVeh2Y37GQOAg/r6Zu/QtNC/AHKr6lqIiJxmGCaSyTmUSiUVzQ9blvjFd7/71r0qGvcjBgAHSClFf//8bwHiiwAiqushInJTLpdFMpkE0PSB+wYg/3jv3tv+xx/9kbCa3bjfMADYdOKEjEajC1+XEh9WXQsRUbOUy2XMzs5AyuZfh6XEg7lc57/70Ife2PSBCX7CAGDDkSMz7W1toX8TAu9SXQsRUbPValXMzEzDNJs+LgAAdpkmfu6++27LqWjcDxgAGjQ+Ph4vl9seB/BW1bUQEalSq9UwPT0Jy1LSI/9MNFq+96677qqoaLzVaaoLaEVSylC5HPsX8OJPRAEXjUaxfv0GaJqS+8m31mqJb+/evTusovFWxwDQgP7+5P8PiPerroOIyAtisTasWXORotble2u1+BcVNd7S+Ahghfr7598rJb4PvndERK+ysDCPfF7JI3kphPjAO99563dVNN6qeBFbgZMn01vCYeMwuKQvEdHrSCkxNTWhYtVAAEgD2nX33vumcRWNtyI+AliBcNj4K/DiT0R0XkIIrFmzVlXzvUJYf66q8VbEALBMp07NvRvAe1XXQUTkZbFYGzo7O5W0LSXe//jjL75HSeMtiAFgGaSUISHEX6iug4ioFfT2rlY1KwBCyP/1R38keW1bBr5Jy9Dfv/BhAJerroOIqBWEQiF0dHSpav7K22574YOqGm8lDAAXIKUUQojPqK6DiKiVdHf3QAhVvQDis1JKDnK/AAaAC+jvn3+LlPIa1XUQEbWScDiMRKJdVfPXPfnk3jerarxVMABcgBDil1TXQETUijo6OpS1zXP3hTEALKG/vz8mJX5edR1ERK0oHk9A00JK2pZSfPjb3z4RVdJ4i2AAWIIQPbcD6FZdBxFRKxJCIJGIq2q+t7u7eJuqxlsBA8ASLAt3qa6BiKiVxWLKAgAAyXP4EhgAlvY21QUQEbWyeLxNZfMMAEtgAFja1aoLICJqZeFwVNl0QIAzuJbCALCIoaHZdQB6VddBRNTKhAAikYiq5lft3r1/jarGvY4BYBG6LrjyHxGRAyIRdYPxdV2/QlnjHscAsChN2ZZWRER+omlKLzWrVTbuZQwAi9A0qFvBgojIR1QGACmhZmvCFhBWXYCHMQCQbwnLBKrV+r/EYpCKFmuhYBBC6b2msl2JvI4BYBFSWlGAe0mQP4hCHrHjBxAdPAVtagKhbAqQ8swfCpjdq2BuuBj65Vei+sYbITt400TOUfkEQAjB1QAXwQBA5GNaNo3Ejx9B9PBL9bv+85ESoUwSoUwS0ZePIPHov6F2w5tQuvt+WN2cCEPkVwwARD4kLBPxHz+K+HM7AcNY8bGxA3sRO7of5Z+5B+W338dHBEQ+xABA5DNauYiOB7+KyGCfvRfSdcR3P4bwcD8Kv/AJWO0cFkPkJ5wFQOQjWj6L7i990f7F/6dERgbQ/eX/BZHPOfaaRKQeAwCRXxgGOv/1y9AW5hx/aW1hDl3f+DLECh8nEJF3MQAQ+UTH976B8Piwa68fHhtC+w8edO31iai5GACIfCAyMoDYoRdcbyd2YC/CQ6ddb4eI3McAQNTqpETiie81rbn2J773yhoCRNSyGACIWly0/yTCY0NNay88MYJI/8tNa4+I3MEAQNTiYgf3Nr/NJjxuICJ3MQAQtTLLQmTAuSl/yxXtPwlYVtPbJSLnMAAQtbDw3DREudT0dkW5hND8TNPbJSLnMAAQtTBtflZZ2yEX1hsgouZhACBqYVoxH8i2icg+BgCiVmYussNfM+i6uraJyDYGAKJWFlW41Xkspq5tIrKNAYCohVldPcraNrt6lbVNRPYxABC1MHPdRnVtX7ReWdtEZB8DAFELM3tWwepZ1fx2V61R0i4ROYcBgKjF1d5wnYI2r296m0TkLAYAohZXufkOQIjmNahpqN58e/PaIyJXMAAQtThz3UZUr7+1ae1Vb7gV5lo+/ydqdQwARD5QeucDQCTifkPhMEp33+9+O0TkOgYAIh+wunpQeO9HXG+neP+HYHVz+h+RHzAAEPlE9aY3o3Lrna69fuXNb0Pllp9x7fWJqLkYAIh8pHT/B1G7wfnxANUbbkPpvg84/rpEpA4DAJGPSC2E/Ad/GcX3/DygOfD11jSU7v1ZFD74MUgtZP/1iMgzwqoLICLnVW6/C+bGS5B47GGEJ0Yaeg3jkm0o3fcB6JsvdbY4IvIEBgAin9K3XobsJ/8roscPIf7cToTHh5d1nLH5UpTvuBu1N17f3PUFiKipGACI/EwI1K65EbVrbkQonURksA+hyTGEMkmIYhEAINvbYfashrlpM/TLroLJJX6JAoEBgCggzN7VMG++A7j5DtWlEJEHcBAgERFRADEAEBERBRADABERUQAxABAREQUQAwAREVEAMQAQEREFEAMAERFRADEAEBERBRADABERUQAxABAREQUQAwAREVEAMQAQEREFEAMAERFRADEAEBERBRADABERUQAxABAREQUQAwAREVEAMQAQEREFEAMAERFRADEAEBERBRADABERUQAxABAREQVQWHUBRNQ8ul5DLpdDuVyGYegAgHA4gng8jq6ubkQiEcUVElGzMAAQBYCUEplMGplMBoB81Z/peu1cMOju7kFvby+EEGoKJaKm4SMAogCYn59DJpPGay/+ryaRzaYxPz/XrLKISCEGACKfy+UyKBYLy/75YrGAbDbrYkVE5AUMAEQ+ZlkW0un0io/LZtOwLMuFiojIKxgAiHysVCo2dCE3TRPFYtGFiojIKxgAiHysUqk0fGy12vixROR9DABEPmaappJjicj7GACIfMzOdD5N4+mByM/4DSfysUgkauNYLgpE5GcMAEQ+1t7eruRYIvI+BgAiH4tGo0gkVn4hTyTabfUeEJH3MQAQ+dyaNWsQCi1/1e9wOITVq9e4WBEReQEDAJHPhUJhrF+/AeHwhUNAOBzBunUbl/WzRNTaGACIAiAajWLTpovR1dV93pkBQgh0d3dj06ZNiEbZ9U8UBIz5RAGhafWu/VWrVqNSKcMw6vP8w+EQ2tri3AGQKGAYAIgCRgiBeDyhugwiUoyPAIiIiAKIAYCIiCiAGACIiIgCiAGAiIgogBgAiIiIAogBgIiIKIAYAIiIiAKIAYCIiCiAGACIiIgCiAGAiIgogBgAiIiIAogBgIiIKIAYAIiIiAKIAYCIiCiAGACIiIgCiAGAiIgogBgAiIiIAogBgIiIKIAYAIiIiAKIAYCIiCiAGACIiIgCKKy6ACJyVrVaRrVag2HoMAwTAFCrVSGlBSnr/wwAhmHAsixEo9FXHR+Lxc78vQ3hcBjhcATRaAzRaASaFmru/wwRuYYBgMjjpJQolYrI5XLI5TIolYqoVMool0solyuoVEqoVCqoVsuoVCqwLMu1WsLhMNraEojH2xCPJxCPJ9DW1oZEogMdHZ3o7OxCR0cnOjo6GBaIPI4BgMgDDMNAKpVELpdGNptFPl+/2OdyORQK2XN38qoZhoFCIYdCIbfkzwkhEI8n0N3dg56eXnR31//q6an/eyQSXfJ4InIfAwBRkxWLBaRSC0ilkpifn0UqtYCFhQVYljcu8k4422tRKhUxPT35uj9PJNqxevVarFq1ChddtA69vWuxatUahMPsNSBqFgYAIhflcllMT09iZmYKCwtzSCYXzj2DD7Kz4WB8fOTcfwuHQ1izZj3WrVuHiy7agHXrNqC7uwdCCHWFEvkYAwCRQ6S0MD8/d+aCP4mpqSkUi3nVZbUMwzAxM1N/786Kxdqwfv0GbNx4MTZuvATr1q3n2AIihzAAEDXIsizMzc1gbGwYU1MTmJmZhmHoqsvylWq1gtHRYYyODgMAIpEw1q3biI0bL8Ell2zF+vXrIQRnMxM1ggGAaAUqlTImJsYwPj6K4eEBlEpF1SUFiq4bmJgYw8TEGPbtew7hcAQbNmzC1q2X4tJLL0dnZ5fqEolaBgMA0RIsy8Ls7DRGR4cwNjaM+fk5SClVl0VnGIaO8fERjI+PYM+eXejtXY1LL70M27ZdhnXrNnD8ANESGACIXkNKiampCQwM9GFw8DRKpZLqkmiZ0ukkDhxI4sCBF9He3o4tW7Zj+/bLccklWzh2gOg1GACIUL/oz8xMYWCgDwMDp1EsFlSXRDYVi0WcPHkUJ08eRSzWhm3btmP79iuwZctWhgEiMABQwM3MTGJg4BT6+09zxL6PVasV9PWdQF/fCSQSCWzffiWuuOJKrF+/SXVpRMowAFDgVKsVDAycwtGjh5BMzqsuh5qsVCrh2LGDOHbsIHp6VmHHjitx1VXXcAAhBQ4DAAWClBKTk2M4fvwohof7YZr+WXWPGpfJpLBv3/N46aUXsHXrNlx11bXYuvVSaBqnFpL/MQCQrxWLRfT1HcfJk0eRzWZUl0MeJaWF4eFBDA8PIpFox1VXXY1rrrkBHR2dqksjcg0DAPnS7OwUDh3aj8HBfkjp3u545D+lUhEHDryIQ4f2Y/v2y3HNNTdg48aLVZdF5DgGAPINKSVGRoZw9OjBV60xT9QIyzLR39+H/v4+rFlzEW644Sbs2PEGrjxIvsEAQC3PNE0MDLyM/fv3IZ1Oqi6HfGhhYQ5PPfUYXnjheVx99XW4+urrEIu1qS6LyBYGAGpZr4zmPoxKpay6HAqAfD6LvXufwcGD+3DttTfg+utvQiwWV10WUUMYAKjlVCplHD16EIcO7Yeu11SXQwFUrVbw0kt7cfjwfrzhDdfgpptuQyLRrrosohVhAKCWUalUcOTIfhw+fIAXfvIEXddx5MhBnDhxDFdffR1uvPFWJBIJ1WURLQsDAHmerutn7vj3oVKpqC6H6HUMQ8fhw/tx/PgRXHfdjbjxxjdxjAB5HgMAeZauGzh58ggOHHiBG/JQSzAMHQcOvIjjx4/ixhtvwXXX3YRwmKdZ8iZ+MslzpJQ4deoE9u7dw015qCVVq2Xs3fsMjh07hFtv/RlceeUbuTUxeQ4DAHnK3NwM9uzZienpKdWlENlWKOSxc+djOHr0IN7ylrdzQSHyFAYA8oRiMY+9e/fg1KmTkFKqLofIUfPzs3j44Qexdet2vPWtd6Orq1t1SUQMAKSWrhs4dOhFHDq0D7puqC6HyFUjI4OYmBjBDTe8CTfddBvHB5BS/PSRMgMDp/Hss7tRKORUl0LUNIZh4qWX9uLUqZO48857sGXLpapLooBiAKCmKxaL2LPnxxgYOK26FCJlcrksHnnkIWzduh133nkPOju7VJdEAcMAQE0jpcSJE0exd+9PUK1WVZdD5An1xwJjePOb34prr72BswWoaRgAqCmy2Qx2734SExOjqksh8hzD0LFnz0709/fh7rvvRW/vatUlUQAwAJCrpLRw9Ogh7N27B4ahqy4nMCzLgpQWLEue+WcJQOKVCRYWpARKpeKZfxcQAhBCgxACmhZCOBxGOBxCKBTmYLUmmZmZxIMPfg033HAzbr31DmhaSHVJ5GP8VpNrksl5PPXUj7CwMKe6FF+xLAumacI0DZimBcsyYZomLMuEZVmwLMvGq5vn/qlarQc407TOvb6U8lw4iESiiEaj5/7OkOAMyzJx4MCLGB8fwTve8R72BpBr+I0lx0kpcfLkUTz77C5O7bNBSgnTNKHrOgxDh2ka0HUDUtq5wK+MEBrCYe11F3cpJWq1CorFPKrVGgyjBiFCaGtrQ1tbG2KxNsTjcbS1tfEutkFzc7P41re+hltuuQM33vgmjg0gxzEAkKNKpRJ27XocIyODqktpOfWLfe3MXzoMw7vhSQiBSKR+91/fBleiVquhWq0ik0m/qheira0NiUQ74vEEEol2xGIxdYW3GMMwsXfvM5iYGMPdd78LHR2dqksiH2EAIMeMjAxi167HuXHPMpmmiVqtglqtBl03YFnmhQ/yLIFoNIZoNIbOzvoOjtVqBdVqBZVK5cwujkkAQDgcRiLRjvb2TnR1dSISiaotvQWMj4/gwQe/hre//Z3Yvn2H6nLIJxgAyLb6XcrTOHr0EJfxXZJEraajVquiVqv5elBkJBJBJBJBR0cndL2GcrmCarUMKQHDMJDLZZHLZTE9DUSjMXR0dKC9vROdnR18ZLCIarWMxx77Pq688o248853IhLh6Zvs4SeIbEkm5/H4448gnU6qLsWT6s/Kq6hUyqjVaoEMSGcfFVhWB8rlEsrl8qseEdRqVaRSVaRSSQihobOzCz093ejs7IIQmsLKvamv7wSSyXnce+8D6OnpVV0OtTAGAGrYwEAfdu58HLru3zvZxpy96FdRq1VgWcG76J+Ppmlob+9Ae3s7KpUqisUCTPPVjz2ktJDLZZDLZaBp4sxjgm50d/dA0xgGzpqfn8O3vvV13HXXO7Fjx1Wqy6EWxQBAKyalhRdeeBYHD+4L5B3tYgzDQKVSRqVS4kV/SeLcbIFqtYpCoQDTfP2AR8uSyOdzyOdzmJ6eRE9PL3p7VyMejyuo2Xt0vYYnn3wUk5PjuPPOu/nohFaMAYBWpFIp4/HHH+GKfmdYljwz0K3EnpAGxGIxRKNRVKvn7xE4y7IspFJJpFJJxOMJ9PT0oqenF6EQL3onThxBKrWAd7/7fWdmZBAtDwMALdvc3Cwee+z7yOezqktRzjRNlEpFVCqVps7L9yMhxLm1A0qlIkqlApbqWKqPIyhhdnYGPT29WLNmDaLRYE8tnJ6exLe+9XW8613vw4YNG1WXQy2CAYCW5fjxI9izZ+eid2hBYRg6SqUSKpWy6lJ8Rwigvb0dbW1xFIuFC77HlmUilVpAKrWAzs4urFmzFu3tHU2q1nuKxQK++91v4m1vewfe8IZrVJdDLYABgJZkWRaefXY3jh49qLoUparVCorFoq+n7nlFKKShq6sLsVgM+Xx+WesjnB0rkEgksGbNRejq6m5Cpd5jWSZ27XocyeQc7rjjLg6cpCUxANCiDEPHE088iuHhAdWlKFOr1VAs5vl8X4FYLIZYLIp8voByeXmLS5VKJYyNjaCtrQ1r165Hd3cwg8CRIweRyaRx773vDfzjEVoc4yGdV6lUxMMPPxjYi3+tVkMqlUQmk+LFXymBzs5OdHf3ruhutlKpYHx8BAMDp5DNBnPMyujoMB566EHk8znVpZBHMQDQ66RSC/jOd/4Vc3OzqktpOl2vIZ2uX/jZ3e8dsVgUq1evXvE+AmeDwNDQQCCXqE4m5/Gd7/wL5ue5Iye9HgMAvcrExOiZu4Zg3TVZlolcLot0mnf8XiWEhu7uHnR2rnxDnFKpiKGhfoyODqNWq7lQnXfVe/O+gbGxEdWlkMcwANA5L798HD/4wUOoViuqS2kaKSVKpSKSySRH9reIeDyBVatWIRRa+ekrn89hYKAPMzPTLb750srouo4f/vBh9Pf3qS6FPIQBgAAAhw/vx65djwfqpFipVJBKzaNQyHMuf4sJhyPo7V3d0E6CliWxsDCH/v5TyOWC09NlmiaefPJRHDlyQHUp5BEMAIQDB17Es8/uDsyyvpZlIptNI5fLwDR54W9Vmqaht7cXbW2NLQ2s6zrGxkYwOjocmMc+Ukrs2bMLe/c+o7oU8gAGgIDbt++5QJ0MyuUyUqkFVKtV1aWQQ7q6utDRsfJxAWfl8zn0959CMrngYFXeduDAi/jJT3YGJvTT+XEdgICSUuK553bj8OFgdAeaZn2Qn64HawBYUCQSCWia1nCXvmWZmJ6eRC6XwaZNmxGNrvzRQqs5duwgLMvE2972DgghVJdDCrAHIIAsy8Lu3U8E5uJfv+tP8uLvc21tbejp6YGda1mxWAxUb8CJE0ewc+djsCw+CgsiBoCAsSwTTz31Q5w8eUx1Ka6TUiKbzSCfz3KQX0BEozH09PTauqOV0sL09CTGxkbOu02x3/T1nTgzAJjfkaBhAAgQy7Lw4x8/FoipQLpeRTK5EKgpjVQXiUTR09MLTbPXrZ3LZdHffwqFQt6hyryrr+8EnnrqhwwBAcMAEBBSSjz99FM4ffpl1aW4rlgsIJ1OB2pKI71aJBJBT88q25vhGIaBkZEhzM/7f1XM/v4+hoCAYQAIiGee2YWTJ4+qLsNVZ7v8i8WC6lLIA8LhMLq7exwZ4DY7O4PR0SHfb4fd39+Hp59+krMDAoIBIAD27n0Gx475eztfw9DPTO9jlz+9IhKJnAkB9l8rn89jaKgflYq/P2MnTx7DM8/sUl0GNQEDgM/t2/c8Dhx4UXUZrqpUKkinU76/O6PGRKNRdHU50xNQrVYxNNSPbDbtQGXedezYQezb97zqMshlDAA+duTIQezb95zqMlxVLBaQy2XYZUlLisViDW0idD6WZWF8fMz3u2Xu2/ccDh9+SXUZ5CIGAJ86efIYnn3Wv914Ukrkclk+76dla2uLI5Fod+z15uZmMDEx7uvw+dxzP8GpUydVl0Eu4UqAPjQ5OY6nn37KtycmKS1ks5nAbeu6EoZhwDRNmKYBwzBhGPq5WRGWZcGyXv3Z0DRxbsR8KBRGKBRGOBw6888hhMP+OFV0dHTAskzHnuNnMvXtozdv3oJQKOTIa3qJlBI7dz6ORCKBSy7Zqroccpg/vtV0Tiq1gB/96Hu+nQJnWSYymTQMw/8LtFyIYRioVCqoVsuo1aqo1fQzf685Hv6E0BCNRhCNxs79PRaLo62treXCQVdXF0zTdGwDoGIxj+HhAWzZsq2h3Qm9zrJMPPbYD/D+938Ea9ZcpLocclBrfXNpSaVSEY888pBvR8KbpolMJpiD/SzLRLlcRrFYQLlcRqVSbuoOdlJaqFar591EKRyOnOlej6O9vQPxeML2/Ht3CXR39yCdTjq2G2SlUsHQ0CC2bbsU0WjMkdf0klqtikceeQgf/OAvorOzS3U55BAGAJ/QdR2PPPIQ8vmc6lJcYRgGMplUYBYpsSwLxWIRxWIOxWIR5XJZdUmLMgwdhYKOQiEHoD4wLh6PI5HoQGdnJxKJds8FAk3T0NXVg3Q6DcCZ3hJdr50LAbFYmyOv6SXFYgGPPvoQPvCBX/BlyAkiBgAfsCwLTz31qG9XK9N1Hdls2vcXf13XkcvlUChkUSgUW3r/gnK5jHK5jGRyHkJo6OjoQEdHF7q6uhGJeOO0E4lE0NHReSa4OMMwdAwNDWDr1ksRjycce12vSCYX8PjjP8D993/Ac6GOVs4b30SyZc+e3RgaGlBdhit0vYZMJu3bAY2GYaBQyCGbzfq290ZKC/l8Dvl8DjMzk4jHE+ju7kZ3dw/C4YjS2hKJOAxDR6XiXA+LaZoYGRnCli2XIpHwXwgYGxvB3r3P4I473qa6FLKJAaDFHTt2yLer/NW7/f05xz+fzyGVSvr2or8YKSVKpSJKpSKmp6fQ2dmF3t5V6OrqVlZTZ2cndL3m6NiSeggYxLZt233ZE3Do0EtYtWoNrrrqatWlkA0MAC1senoKe/bsVl2GK0zTQDqdaulu8NfSdR2pVPLc1DHCuZ6B+uY9vVi1anXTR9ILUR8UmEolHX1dy7IwOjqErVsvQ1ub/8YEPP30k+jp6cWGDZtUl0IN4kOcFlUqlfD44z/w5XQ/0zSRTqd9c/Evl8uYmBjD6dMvY35+lhf/89B1HfPzczh9ug+jo8Mol4tNbT8cDqOjo8Px1zUME8PDg76cmWOaJh577HsoFv2/XbJfMQC0ICktPPHED3z5xatf/FO+CDb5fA7DwwMYHDzt63EMTpJSIp/PYXBwAMPDgygUmvcZTyTaEY063/tgmvUthf24cFWpVMJjj/nzRiQIGABa0LPP7sbk5LjqMhxXX+Ev3fInk2KxiOHhQYyODqNYbO6drJ8UiwWMjAxhaKi/aWG3q6vLkU2DXkvXdYyODvtyDYuZmSk899zTqsugBjAAtJjTp1/GkSP+G/QnpUQ2m2npFf7K5fqFf3h4gHsUOKhUKmF4eAjDw0MolUqutqVpIXR0OLNp0GtVqxWMjg77sifoyJGDOHXquOoyaIUYAFpIMjmPXbueUF2GK/L5XMt2kRqGjsnJCQwNDfLC76JiMY+hoX6MjY24Oo4iHo8jEnFnemKpVMTExJgrr63a7t0/Riq1oLoMWgEGgBZhGDoee+z7MAz/DSArFPKOzsNuFikl5udncfp0H9LppC/v7Lwol8uiv78P8/Nzri0O1dXVDReeBAAAstkMZmdn3HlxhQxDxxNPPALD8N9jDr9iAGgRzzyzC5lMWnUZjqtUyiiVWu85ealUxMDAaczOzvh+hUIvsiwLs7PTGBg4jULB+V6XUCiE9nbnZwWcNT8/i3Q65drrq5JMLuC55/w5NdmPGABawPBwP06ePKq6DMcZht5yC+FYlonp6SnfTu1qNbVaFSMjg5iYGINpOjt+JJFod3WL36mpSZTL7o5pUOHYsUMYGOhTXQYtAwOAxxWLBezc6b/nTg/a3QAAIABJREFU/vUR/621yl8+n0d//ykkk/MtVXcQZDJp9Pc73xvQ2enOgECg/h0YGxv1ZZf5008/1XLhPogYADxMSoldu55oyefjF5LNZlpmSpRlWZiZmcbY2DAX8fEww9AxMjKI6ekpxxaRikZjiMXc2/lO12uYmBhx7fVVqVQqePLJRxmUPY4BwMOOHDmA0dEh1WU4rlDIt8yI/2q1gqGhASwszPFk1iKSyXkMDvajWq068nodHZ2urA1wVqFQ8OWgwOnpSRw5ckB1GbQEBgCPSqUW8MILz6guw3G1WqVlBv1lMmkMDvb7sgfG7yqVCgYGTjkycDYUCiEejztQ1eLm52cd3ZbYK/bufQbJ5LzqMmgRDAAeZFkmnnjiUd89G5TSQi7XGssXz8xMY2JijCP8W5iUEhMTY5icnLDde5NItEMId0+X4+PjLb0Q1vmYpomdOx/j98ijGAA8aP/+F32ZmrPZrOeX+TUMA8PD9S5/8od0OomRkUFbswQ0TUMi4e62vqZp+HKRoLm5WZw4cUR1GXQeDAAek8mkcPDgC6rLcFypVEKt5swzWbfUarUzy/i2xiMKWr5isYjBwQFbUzfr0wLdPWUWCnkkk85uS+wFQ0MDyGT8t+5BqwurLoBeIaXEzp2P+67r3zAMz+9cWCqVMDY25Lv3HgJAdxjoCUN0h4CeyCvf+o4z/1A4c2dsAMjokBkTImtAZg3AR+Mea7UqhoYGsXnzVrS3t6/4eCGARKLD9eltMzNT6OhoRyzW5mo7zVStVvHss7vxnve839UBlbQyDAAecuzYIUxPT6ouw1FSSuRyWU+PoM9mM5iYGHds6pgSnSGIy+PAZXGI7XFgYxTYGINYHwGiDd611ixgRoecqgJTNWCwDKu/AgyUgHxrBqWzW/NecslmdHV1r/j4trY2lEpFV6ewSmlhYmIc27df7lobzabrNczPz6Kv7ziuuuoa1eXQGQwAHpHP57B37x7VZTiuXC56ev+CTCbdks9dxbY24IYOiGvbIa7rAC52Ya56VAM2xyA2v/LaZ9fFk+NV4GgB8kgR8lABGGmdVRHrC/CMYNOmS9Dbu2pFxwohkEi0u94LUC6XsLAwjzVr1rraTrOcnfZ74MAL2Lx5m6vLLNPyMQB4xDPP7ISut8bc+OUyTdPTz9NTqQVMT0+pLmN5YhrEbV0Qt3cBb+6C2BBVWo64JAZcEoN4z+r6f5iuQT6fhXw+B/liHqh6vzdlcnIcpmlhzZo1Kzqura0NxWLR9QGts7Mz6OrqQjTq3kJEzWIY9XObrut4/vmf4B3veI/iighgAPCE06dfxvDwgOoyHJfPe7frf2FhDjMz06rLWFpYQNzeBXFPL/CWHogOD4/Z3RCF+MBaiA+shSxYwDMZyKfSkHtzgOnNzwAAzMxMQkoLa9detOxj6r0ACRQK7o5rkdLC5OQktm271NV2msGyXvkMTEyMYnR0CFu2tP7/V6tjAFBM13U8+6z/ds+qVMqeXe0vmVzw9MVfXBKDePcqiAdWA+vU3uk3QnRowH2rIO5bBSR1yB+mYH13AZjw5iyQ2dlpCCFW1N0ej8dRKhVedWFzQ7GYRyaTRk9Pr6vtNNu+fc9h06bNCId5CVLJw7cUwbB//96WWRlvuSxLenZVs0wm7d2Blrd0IvQX26E99EaIX9vQkhf/11kdgfjYOoQefiO0P78M4hb3NtexY2ZmCun08qffCSHQ1ubuugBnTU9PeX79jJUqFPI4fvyQ6jICj/FLoVwuiyNH9qsuw3GlUt71O6NGZLNpTE6Oqy7j1TQB8fYeiF9ZD7HD3eVmlRKAuKML4o4u4FQJ1j/OQu5Ke2qa4eTkBDQthO7unmX9fCIRR7lccv0xl2kamJ2dxYYNG11tp9mOHTuE7duvQGdnl+pSAos9AAo999zTvpt3bhgGSiXv7XFeLBbPTPXzzhVHvKkToa9fAe1Ptvn74v9aVySgfWEbQg9eBXF3T32tAo+YmBhb9poVmhZCNNqcXppUasGxzY28wjAMvPTS86rLCDQGAEWmpycxNNSvugzHebHrv1qtYmxs2DsX/ysT0L6yA9rfXA5c0ZxuZE/aHof2hUuh/dOVENesfGEeN0gpMTo6uuwVAxOJ5tQtpcTMTIvMWFmB0dEhTE15rFcuQBgAFJBSYs+end65IDmkWq16buCfYegYHR10deGWZVsdgfjDrQh9/UqI6zkP+izxhgS0f9gB7fe3AL3qn0palomRkeFlbcwTiUQQiUSaUFV9rRC3Zx6osG/fc747F7YKBgAFTp48irm5WdVlOM5ry/2eXfClVlO/EJG4uwfaN6+Cdv8qT3V5e4YmIB5YjdBDb4T4uTXK3yNdry271ygeb14vjh97AdLpFAYHT6kuI5AYAJqsVqvixRefVV2G4yqVsue2Mp2enlQ/HmFdFNrfXA7tC5dC9Ki/u/W8zhC0z26G9peXARepnQVRKpUwM3PhGSOxWKxp69tXKhVks+mmtNVMBw++6LnzRxAwADTZ4cMH1F+UXOC1qYyZTBqplNrdx8TbexH6xpUQb/Lm1DcvE7d1IfStqyDuXdlSvU5LJpMX3MWuPiWweRv3zM7O+q7LvFgs4uWXj6kuI3AYAJqoWq3g6NEDqstwnNfu/svlEqamJtQVEBPQ/nALtD/dBnTxrr9hHSFo/3MrtN/dDMTUnaomJydQLpeX/Jm2tubN4qjVqr7sBTh69KCt7Zpp5RgAmujQoZdQqfjvA14sFlSXcI5lWRgfH4NlKVqLfl0U2pevgLh/tZr2fUj87BpoX90BbFSzJr6UEhMTo0vuFhmJRBAKhRb9c6fNzfmvF6BWq+Lo0YOqywgU3p40SaVSxpEj/vtwl8slb4ywP2NmZgq1mpr50uJNndD+xBt3/bJgAeMVYLQCjFQgJ6qQeQsomUDZAgomUDzze2sPAR0hIK4BiRBEpwZxcQzYFn9lN8D25l3czkdckYD29SsgPzMMub/5g02r1Sqmp6exceOmRX8mHnd/f4CzarUaMpn0incz9LqXXz6Gq6++DvG4N6aF+p36M1VAHDy4z3e7/QH1AOAVuVwOqdTyl3N1knhgNbT/dzMQVjN8XQ5WgP35+sXxRBFyfgUzHzKvfnwjcZ4F+tZGIN7YXl/K9+ZOiEub98z7LNEdhvjLyyA/Pwrr0eaP70ilFtDZ2bnoynVtbbGmTtObn5/zXQAwTRPHjx/BLbfcrrqUQGAAaIJisYhjx/x391+tVjzz7N8wDExNjSlpW/vkBoiPb2huo1UJ+XQG8pkM5P4CkHJ5quO8Xm/v6Uz931dHIG7uhHhrN8SdPUCsScEnIiD+YCvEhhjkV5q/odPExDh27LgCodDrT52aFkIkEoGuN2faaa1WRS6XQ1eXv5bS7es7gWuuuaGp4yqCigGgCQ4efAG67o0LpZO8NJthenqy+csqC0D7nYshPrr8rWRt6yvB+lEK8kdJIKvw0UtSh3wiBflEqr773529EPetqvcQuJ0FBKB9YgPkqjCsL04ATdx3wjQNTE9P4eKLN5/3z2OxtqYFAABIJud9FwAMQ8fx44dx881vVl2K7zEAuKxYzOPEiSOqy3CcruueeaSRz+eRzWaa26gGaL+3BeK9TRjsVzRhPbwA+Z15YNob7/lPkwUL+GES8odJYEMU2ofWQrx/DZBwd9yA+OBaaBEB6/NjQBPHfGYyaXR19Zz3wtvW1tbUxwDFYgGlUgmJhL+WlH755eO4+urr2QvgMs4CcNmRIwd9t+EPAJRK3hj5b5pW86f8CUB8xv2LvyxYkF+fhfnACci/nPTkxf91pmuw/mIS5gPH6130OXd7vsT71kD8/lZAa+7Yi+npifPONNE0DdFoc5YGPiuZnG9qe81wtheA3MUA4CJdr+HEiaOqy3CcZZme2Zlsbm6muT0RAtD+2yXQfs7Fi3/BhPXXU7DuPwbrryZdv4i6ImvC+vI0rPcdh/W3U/VeApdo96+C9p8vdu31z0fX9UWX847FmjtAMpfL+vIRY1/fCc/tLeI3DAAuOnHiqC8XtrjQoijNUqvVkEotNLVN7Tc2QXxwrWuvL59Iwfr5k5Bfm3llml4LkwUL8h9nID90AvIp9xavER9eC/HJja69/vkkk/PnDcLN2iL4LCklMhk1s1/cpOs1nD79suoyfI0BwCWWZfl2UQuvBIDp6YmmLoYifnYNxMfWufLacqwK67cGYP3eCOSC+s2LnCbndVifHYb1ydOQQ+6EYu3j610NZ68lpcTs7Os35wmFwgiHmzu8SvWy1245ceKIukW9AoABwCWDg6eRy2VVl+G4Wq0Ky1J/Z5rP55HPN3FBmNu7oX3mEudf15Kw/s8MrI+chNybc/71PUYeKMD6pT7If5pxZfS+9qmLIW5r3qj4XC6HQuH142Ga3Qug6zVPrcjplFKpgJGRAdVl+BYDgEsOH/bfmv+Adxb+mZtr4hzwzTGE/ngrEHJ4oFnGgPU7g5B/NwXo/lrWdUk1C9bfTMH6jQEg6XBvR1hA+8I2YGszN+d5/WcxFmv+ssWqFsFy27Fjh3237LFXMAC4YHJy/Lxdg63OK4P/crls8x5DJELQ/r/t9aVyHSQPFmD9wsuQz/v/rn8x8qU8zI++DPmiwz057SGE/mRbfWnjJiiXS8jnX/17DIcjEKK5p9dcLuvLGUep1AJmZvx3PvUCBgAXHD68X3UJrqhU1F/8pZSLjr52g/b7myG2O3s3Kb8+C+s/nl7Zcr1+lTZg/VY/5L84/Du9LA7ts+dfrMcNMzPTr7pLFUIgEmnudEApJfL5Jq+H0STcKtgdDAAOKxRyGB0dUl2GK7wwoyGXy6BSac7dv3jfGoh7ep17QQlYfzFZn9rHcU2vsM68L3/m7Kp+4l2rIO5rzlr51WrldWN+YrHmjgMAgEzGnwFgfHwExWJRdRm+wwDgsBMnjvpy1KplmZ5Y+W9+fq45DV0cg/Y7i+/8tmKmhPW5UefvdH1EfnMO1h+OAoZzIUD79CX13Qyb4LWfzUik+QGgWCzAMPzXs2RZFvr7T6ouw3e4FLCDLMtCX98J1WW4wgt3/4VCDpVKE+rQgNDntjq3BW7ZgvXpIaWj/EWHBlzSBlwUAeIhIKG9Mq4hf2aL4LIJzOmQY1VlaxDIx1Owcga0L1zqzDP8RAjiD7ZCfuK063sGVCplFAoFdHR0AADC4TA0TWv6DUEul8WqVWua2mYznDr1Mq699iZoGu9bncIA4KCxseHXDQbyi6ZceC9gfr45i/5oH74IuNqh/cgN2fyLf0wA13bUd+u7th3Y0gaxdmXPo+W8DoxUII8WgQP5+t+rzbmQyedzsD41CO3PtwNR+yd7cV07tA+shvUd9z8/Cwtz5wIAAEQikaYPnM1kMr4MAKVSARMTo9i8eZvqUnyDAcBBflz2F6ivt9/MHc7Op1Ipo1h0f96/2BCF+KRDW/taEtYfjDTn4t8egrirB9p9q4Dr2m1fOMXaCLA2Ut/d7+PrgaoFebgIPJ6EtSsLlNztIZAv5WH991Fon9vqyDr/4tc3Ac/kgFl3H2MVCnmUy2XE4/VNbCKRaNMDQKlUhGEYTV+MqBn6+k4wADjIf58QRYrFIkZHh1WX4YpaTf3dfzLZnLt/8amLHdvFzvqzCVeXvwUAXN1e333vrh6gzcWu0ZgGcWsncGsnQv/Ngtydgfz2POQJ9wZmySfTsFZFoH3KgXX+20PQ/vMmWJ92/zuaSiWxaVO95mbPBDirUMihp6c5AyCbaXJyHMViAe3tHRf+YbogPkxxyMsvH/PECnluqNXUTv+zLAvZrPurKopbOyHu7HHktayvzkB+271d2sT1HdD+93aE/vEKiHevcvfi/1pxDeK+VdD+6Qpo/3AFxFu7XWtKfnOuvi+CA8TbeyFucv/Ckc2mz50LVN2FN3WVzKaSGBw8rboI32AAcICU0rfzVKWUynfkymTS7ocrDdB+26Ed5Z7PQn7ZpZUKL4sj9OXLoX1lB8Rb3LvwLpe4rh3an22H9reXQ1zqzup71t9OO/YYRfzXzc6v6PgaPx1YVawHANQfRfjVwECf6hJ8gwHAAZOT48hm/Tn/Vtd15ctwptPub3QiHlgDXBa3/0Lzen0qm9Mjzts0aJ/YgNDXrwRu6HT2tR0gbumE9q9X1bvrnZo9cdbZsRQOLJwktrdBvMv9rvGf3pwnEml+L4BpmiiVvLFst9Oy2QwWFpo0HdjnGAAc0N/v30Sqeu5/pVJ2f/+BsID2Kw7s8mcB1h+OQGac3ZtdXNMO7dtvgPi1DUDE3btXW8IC4iMXIfSNKyHe6NAsirMyBuTvDTuygJL2H9x/H8vl4rnBf+GwunEAfjUwcEp1Cb7AAGCTlBaGh/tVl+Ea1Wv/N6NnRfu51cBG+4vFWF+agnzJwa5XAYiPXgTt73dAbGj+ojIN2xiD9tUd0D6xwZER/GfJgwXILzuwJvyGKLT73e8FOPvZVRcA/PsYYGjoNEzTfwuuNRsDgE3j42O+7WqTUsI0nb2bXSnXt1QOCeBjDkz76ys5NlgNQL3L/4uXQvvPF3v7rn8xIQHxaxvqO/PFnKvf+scZyFP2v2/i3613fSzA2QAQCjn8SGSZyuUypPTnRbJarWJqakx1GS2PAcAmPw9IMYya0uf/5XLZ9R4IcU8PxHqbd2iWhPmn486t798ZgvZXlzk2I0ElcVcPQl/aAXQ7dBG0APn5MftjLDbG6lMnXVStVlCplCGEUDIbQErp25sTABgZGVRdQstjALDBskwMDg6oLsM1tZraxX9cv/tHvYvdLvnwAnDcofnwayPQvnIFxPU+mud8dTtCX9qx4tUIFyNPliB/kLT9OuJjDoz7uICzswFUTQf0cwAYGxvx7dTrZmEAsGF8fBTVapP2pVdA9ep/bi+rLK5ttz9YLW3A+luH9irvDkH768sd337YEy6LQ/z15UCXMxdC668nbQ+2FFclnFvyeRFnn8OrCwD+3UGvVqtiampCdRktjQHAhtOn/dv9D6idAaDrhuvb/oqfs79euvV3U/XNdOxq06D92WWuzaX3AnFpG7S/2O7MJj9ZE3BgQKD2s6vt17KEcrkEXTcQCjEAuGFkxJ9brzcLA0CDTNP09TMowzCUPv93fQpTRwjinl57rzFbg3zUflc0NCD0p9sgrnP3btQLxNXt0P7nNkdmB1jfTwE21wYQ71xV3ynRRcViTlkPgGmaymfyuGl0dMiX2683CwNAg6amxj2xRa5bVO8p7nr3/zt6bS+fa/3zLKDbD0ni4xuA29Wv6tcs4q3dEL/swPP3mgX5z7P2XiOuAXe7OyUwn88r3cLWCzt5uqVWq2JmxqFHcAHEzYAa5NeNf85SPf2vWHS361K80+bdf0qH/J79DYrEzZ3QftWh3QcXk9Qh9+eBIwXIkSrkaBUomK/s6JcI1XtEtsQgtrUB13VA3NwBrHJv/rr2HzbAPFQADhdsvY713QWEfmU90Nv4qUy8oxfy++5tNlUsFiCEQCgUgmk2f9BafZySfwPm+PgoNm50aBnvgGEAaNDoqL+fPRmGugBQrVbcDSCrIxA32ltOV/7rHFC1efffHYL43FZ3+uGKJuSTacgfJiGPFoGlSi3Vw4Ccq9UXMvr2fH0Rous6gPtWQ7u3x7EdEs8JCYQ+vw3mh0/aG0NRsWB9Yw7ar29s+CXELZ31AJF25zNnGAZqtZqyAODnHgAAmJwcA3CH6jJaEh8BNKBQyDVlfXqVVAYAt6cuibt67H3yqxLWw/bvGLXf2ASxxuG77IIJ+ZVpmA+cgPX5McgjF7j4L0YC8nAB8vOjMB84DvkP05AFh5+1ro1A+0+NX7jPkg/NA1UbtWmAeJu7awIUi0VlCwL5PQBks2nXHxn6FQNAA/w+8rS+AqC6+bVuj1wWd3TZOl7+JFPvQrdTwzXtEA84OwJdPpGG9fMnYX15Gsg5GOCyJqy/n4b80AnIJ9POvS4A8f41EG9I2HuRvAn5rL0LgLjD3S7ycrkATVMTAGq1qu8Hyk1MjKouoSUxADTA78//Vd79Ay4HgKgGcaO9RXbkj2yO/NcExGc2O7dOfsGE9ZkhWL83DLng3uBNOa/D+t1hWJ8ddq434Ox7YfOtsPs7EW/qBKLunQ6LxZKyHgAAvh6wDAATE1wWuBEMACtkWabvP2wq7/6llK5OWxI3dth7np3SIV+wt8mKuKsbYocDWw8DkONVWB/rg9zZvO2o5VNpWL/8MjDpzO9JXJWwveyxfD5n7xl+XHN1Gma1WoHm4MZIK1Wrqd3V020zM5PKb1xaEQPACk1NTSjfItdtKmcAuP28Utxk8+7/8TRg2hj8JwDx750Z9S9Pl2H96mnIcQXzvMeqMD9+Guh3ZryG9vH19l7AkJBP2BuXY7dn6EJ0Xd33yu/nLMMwMDfn4GZcAcEAsEJjYyOqS3Cdyh4At1f/wzU2A8Bue3fa4mecufuX41VYvzkApBSu15DUYf6nAWDUgdB2ZcL2Wgi2fzfXuRsAajV13fDVqr8DAADMznI9gJViAFihyclx1SW4TuUGG67urRAWEG+0MeCsYkGesDc+QXzEgc2Hsgas31B88T8rY8D87UFHlkPWPrrW1vHyWBGo2BibcHW7q1sE1x9tqXkMYBj+DwBcEGjlGABWwDAMzM/PqS7DdWp7ANw7UYntcVur/8lDBXsr/62NQNxsb/0BSEB+bhSY8tDyrhNVWH840th0w58i3tQJXBRt/AV0WZ/22Ki45upGTGfXAlAhCD0A8/MzHAewQgwAKzA7Ox2I7SdVThnSdRcvbJfb7Hrfb3Pw332rbX/j5MPzkD9xf5vklZJ7svZX09MEtHvtrdAoD9j7HeEyZwZnnk+tVlM2ENDvYwAAwDQtLCz4/wbNSQwAKzAzM6m6BNdJaSndBKhWc69bW9gMAPIluwHA5przaQPW33i3m9ORLXrfbTMA2PwduRsAqhBCzSlXSun7tQCAYJyjncQAsAJTU/7/cFmWuou/YeiQ0sWTlJ2tdqsS8lTjI97F+ojtrX6tf5h2Zutht2RN4P/YHIl9eQJirY3VEV8uAbXGP0Oai48ALMtS/v3yO44DWBkGgGWSUmJmZlp1Ga5TeZfg5t0/AIiLY40fPFYG7Lw1N9tbfRAp3dUNa5xifXfB/pr6dsZJmBJy3EZ398XuBQBA7QBblWN7mmV+fk5pD2arYQBYpnQ66e4IdY9w9Q78Aly9Q9EArGt8gJkcs/kM9Sabmw89vGB/86FmqFi290kQt9gcKDlmY7rd+ohzKzSeh5QMAG4yDB2ZjL/3aXESdwNcpulp/3f/A2p7ANw8QYmLIkCk8RO7HLE3h1u7wcYqcxKQP3LwpLYpBu32znOBSM7o9ZX0HJpZIH+UBOws7HO9zfn4dtYliGoQq8OQ8+6EUdOUygYCBmWE/MLCPHp7nd1nw68YAJYpKM+WVD6jdDMAyDU2ppcB9u4qYwLYYKP9UyVnVvvb2gbtty9+3WZIZy9Hck8W1p9PAGM22xqrQp4uN7zgkdgUq6/L3+izfLsLE10UBVwKAPUeADWn3SD0AADAwsIsLr/8StVltAQ+AlimublZ1SU0icpBSu7doYgemyddOxfFzW22upWtfTZHtgMQt3ch9E9XLLkTonhLN7SvXQVxm83xCgDwko3d+TRAXGLjcc2ovQAju927QKsM2EGYBQDUewBoeRgAlsGyTKTTwXiupHIAjasDpOwGABvb64rNNgeWHS7YOlzsiEP7wqVA+4UXoREdGrQ/3WZ7Opw8ZHNHRxvvmczZ3Kq5x73FelQOAgzK4LhUKgnTDEbYsYsBYBnS6XQgFgAC1J4kXB2A2GnzpF6yUdt6e48f5JC9Lm3x6c1AfAVf9UQI2u/a3KJ3yOaAWRvvmSjZ/K662APg2++Xh9Rv2Lw/Y8YLGACWIVirS6k8Qbn44jaWAAYAWWz8oiLabbRds4Dpxru0xfUdENeufACiuLod4prGBy7Kyaq9ZZM7Gg9s0k5YA2wNFr0QtQEgGD0AAALTY2sXA8AypFLBSZNSqtuz3M0TlLBzUrekvU1mltH1vhiZM22tPyB+pvHn+eJnbOzOZwHI23hskrBxaipb9d9Zo6L+PC0GKQBwKuDy+POT7rAg9QCo7CZ0dZCSnSmAJWmrY0TGGw8Awu7drJ2FbewsnARAFm3UnrDxyMaS9RDQIBF1swdA3fcrSAEgnU6qLqElMAAsQzIZnB4Aoa4DwNVHANLGKHyh2ztpCztDAKo2n2fbefxgc9yEqNioPWbzg1hr/MMkXdwSWOXgtCAFgEwmrbqElsAAcAHVahmFgv1pWEREQZmLr1qxWECt5qEtsz2KAeACFhaCc/dPROQX7AW4MAaAC8hm+SEiImo1HAh4YQwAF5DLZVWXQEREK8RHtxfGAHAB+byNJU2JiEiJfJ4B4EIYAC6APQBERK2nUOC5+0IYAC6AAYCIqPWwB+DCGACWYJomSiWbm5oQEVHTlcsl6Lo72zr7BQPAEvL5XKAWzyAi8pNCgWO4lsIAsAR2/xMRta5i0d5W2n7HALAEBgAiotZVLpdUl+BpDABLKJWYHomIWlWpxACwFAaAJTA9EhG1Lp7Dl8YAsIRKpay6BCIiahDP4UtjAFhCucwPDxFRq+I07qUxACyB6ZGIqHXxEcDSGACWUC5XVJdAREQNqlZ5Dl8KA8ASqlWmRyKiVqXrOizLEqrr8CoGgEUUi8WYYZiqyyAiogZZlgVdr0RU1+FVDACLSKfT7aprICIiewqFfJvqGryKAWAR5XIhrroGIiKyp1gs8Vy+CAaARRhGld1GREQtrlarxVTX4FUMAIvQdTOsugYiIrKnVCrzEcAiGAAWYRhGSHUNRERkj2nWoqpr8CoGgEVYFnsAiIhanZSSN3OLYABYhK6b/NAQEbU4XWdv7mIYABZhmjp7AIiIWh+vc4vgG7MIy7IYAIjZxS9CAAAgAElEQVSIWpxpsjd3MQwAizBNix8aIqIWJyXP5YthAFgEBwESEbU+yzJ5nVsE35hFnD59cq/qGoiIyJ6hocEXVNfgVQwAizBN01BdAxER2WMYBs/li2AAICIiCiAGACIiogBiACAiIgogBgAiIqIAYgAgIiIKIAYAIiKiAGIAICIiCiAGACIiogBiACAiIgogBgAiIqIAYgAgIiIKIAYAIiKiAGIAICIiCiAGACIiogBiACAiIgogBgAKBCFl4wdbNo4FABuHSynstR1UNn5ntj4rRC2EAYACQaaMxo9NNn4sAMi0jeOTuq22A8vWe27v903UKhgAKBgGymqOBYD+xo+XdtsOKDvvG99zCgoGAAoEebDQ8F2h3JWx1/azWaBiNXbwTnttB5X8cbqxA1M65KGCs8UQeRQDAAWDIWF9dXrFh8mTJchnbF6E8ybkg3Mrb3tPFvJE0V7bASWfyQJ9pZUf99UZwOAYAAoGBgAKDPmdhfqFYbnyJuTvD9saxHeW9ZVp4FB+2T8vF3RYfzJmv+GgkoD5eyNA3lz+Ic/nYP3bvHs1EXkMAwAFhyVhfXYY8rHUhX92Xof16/2QY1Vn2tYlzE8NQe5bRggYq8L6j/3APAcA2jJagfXJ05DTtQv+qNyZgfXpIaDBJzVErSisugCipqpasP5gBGJXBtovrwPekAC0n5pqN69D/mAB1j/PAcXl3z0uS96E9ZsDEO9eBfELF0HsiL/6zyerkA8vwPrWPFDllcgJ8nQZ8hdehvildRDvXQ2xNvLKH1oS8kQJ8mszkD9ZQc8QkU8wAFAgyaczMJ/OAD1hiM0xICIg53VgvOpIl/+iLAn5wyTkD5P1i9HGKKSmAfM1YMKh3gZ6tYIJ+XdTkF+aAja3QawJA7oExqqQGU75o+BiAKBgyxjKLgJyXmc3fzNJAKMVyFHVhRB5A8cAEBERBRADABERUQAxABAREQUQAwAREVEAMQAQEREFEAMAERFRADEAEBERBRADABERUQAxABAREQUQAwAREVEAMQAQEREFEAMAERFRADEAEBERBRB3A6Rg6wwB66MQcQ2Yq0HONG93PtEThlwXBSICYrZW3x2QXCU2RIG1EciyBUzXgIKpuiQiZRgAKJDE7V0Qv7QO4sbOV/eDTVZhfS8J+c05oGK50DAg3t4D7f9ZB7whAWji3B/JoQrkdxcgH5qv71dPzohr0D56EcQDq4FNsVf+uwXIA3nIf56F3JtTVx+RIgwAFCwxDdpnN0Pct+r8f74pBu3XNwLvWw3rvwxCDlYca1p0aBD/YxvEW7rP/+eXtkF86mLI966G/C+DkNM1x9oOrO1xhP73pcDG2Ov/TAPELZ0Qt3TCejQF+SdjQM2F0EfkURwDQMEhAO2Ptix+8f9pF8egfXkHxCXnuXA0Iiwgvrh90Yv/TxM74hB/vwPoZT63ZWMMoS9dfv6L/2to96+C9sdbX9UjQ+R3DAAUGOIDayHu6V3+AV1hiP++FXDgmqD9+/UQN3cu++fFhii0391iv+GgEqhf0HuWH6LE23ogfna1ezUReQwDAAVDSED71fUrPkxc0w5xe5e9tjtCEL940crbvrMbuDJhr+2AEm/phri6feXH/doGIMReAAoGBgAKBHFjB7A60tjB9yzjkcFSbd/RBSRCDR2rvWMFPRZ0jri7sfdNrIlAXL/y4EDUihgAKBgujzd8qNjR+LEAgCts3MXbqDvI7PzOxA43e13Yu0DewQBAniGEe1PfhI0BdWKNvcF4otvG8Y32Wpxt22r8PbVzLABbA+qktHmhXGXjPbdz7AWEw431BBG5gQGAPMS9uyNpZ72XdnsXBFm1cRHusPcVtVKN/4/LBcNW27LBxx4AIEo2F+hpt3GhNd0LohpnGZCHMACQZwjh4snRsHFSjwlbA8NE2cZF2MZFFADQV1RzLADRbuP0YuM9Q1gAMRtt11zsiRI85ZJ38NNInuHqydHuynpxG7XZuJsV3eGGBxACgNydbez/vWZBPp1tuF20h4DOxntOZMHGgjx2Q5OLqzC6GnKJVogBgDzDze5RO3fhgM2u+JyNrnQBe4sRzdUg/21+xYfJf1uwtzfBJTF7T3TyNkKTnZ4HoL5PgEsYAMhLGADIM9zsAZBpe8+zbd2Fj1XttX2FvZkA1t9MQp4sLfvn5fEirL+dstWmsLl+gRxrfAlmaef5PwDY/awsgY8AyEv4aSTPCIddXPo2a/OkvsbGaPxRe/sJrGQFwfOqSli/3g88f+EufflsFtZvDgBVe3fB4uYOW8djpPH3TKy1N3PC9mdlCeEwT7nkHVxsnDwjFHJxilTG5kl9axuwL9/QoXJWr+8s2NbYyV/cembHQjvX5IIJ87cHIe7qhfjQWogbOl6J/6aEPFSA/NY85NMZG42cERIQt9pYPbFkAgs2Hj9saWv8WADS7mdlCZrGUy55Bz+N5BluBgC7O+uJzW1oeGiYBDBQBhpYmhYAsCoCcVsX5PM2t6yVgNyVhtyVroeRddH6f5+tObr1sbitc0Vr8L+WHKig8TcbwGZ7AQAz7u3CGAqFYJo2pzgSOYT9UeQZ4bDNrtul5E1bA8uwxd6ugPJAY70HZ4n3OrxJTcWqP5oYrTh68Qfs1yr323uvtK2N/65k1gAK7l2gQyGecsk7+Gkkz4hE3O2QstULsNXeQDy5v2DrePH2XojNDm1N7CKxOQZxl839C2wGAGxtvAdA2OwpuhBXx7kQrRADAHlGJBJ1twEbg/HEugjQYWMmwOECULNxp60B+JUNjR/fJOITG+2dVaoW5FEbCxB1hmwN2JSjNmdsXIDrn3GiFWAAIM/QNA2hkIt3SAPlxo8VgLjJxmj8igX5gs2u7fesgrjGuzvVies78H/bu/Moua76TuDfe1+92peu6kXqVm9Sy5YtkwSGcOB4DieDM2ExJIEcnMRkmIQEbCbHhrFZbE5CxgvgDBiILMJAJiG2jLzQmIBjY5YYHJY4hnGwCZIsWa2WWla3lt6ruqpree83f5QEji11t/q9V+9V1fdzjo+Pz7HevZKq633v9rvqtc5G//Ivi45OIKiXpxzVH5ADaz8ueb5MM8Q6ABQoDAAUKOGwdyMkcRIAAODlzo62ycOzztpXgP7QgLMyt16JKKgbBx1f5yAPzzj69eoVDo9Mjjn8jKyAo38KmgB+k1A78zQA7Hf25a4dvlzk+/P1TWZOXBCHem+/s2d4QL1vEGrE4e77xRrkcYfr/05maQDIAS8DQPD3cFB7YQCgQIlGHb5EVnKiApx0sMlrJAbkHJxUqArwjbn1//rT9BVdUL/d5fg5blG/0wX9FuenFOThWWf7JHIm1Jb1f35kqgI4KX+8iljMw8820TowAFCgRKPOdtuvRp52sMFMOZ9itnefcHYz4Wn6QwNQv5Zx/Byn1H/pgL5h0PmDqgK554SzvrzS2fo/nGw+XINIhAGAgoUBgALF0xkAAPK0w+N4r3N4xG2qAtuFWQAYCvq2LVCvyzl/1jqp1+egb9vsyreIPDwDOe5s9O30z0KecvbZWI3Xn22i88UAQIFimmFvi6X82GFBnkvTzpYBAMidx52V9T3DVNC3DEG9YyPg4U2KL6IV1Dt7oW8ZBkIutGsJ7Lucjf6RDdUrEDrxI4eVFldgGAY3AVLgMABQ4Hi5DCCHlgEnxV4M5XwW4Mgy7HVc0XtWWkH/aR/0p0egnFxYtEaq24S+Yyv01b2Od/yfYX/pFPCcs/P36g05wHDQocmy81sbV+D10hbRejAAUODE4w5vkluFrOFWvJXoy51Pu8v/mQRm3dtwpi5NQ41eAnVljzuj8hcyFdSVPdCj2+tr7S6RU1Xgb5xdPQwA6o0Oyw//wLvRPwDE48Gt30DtiwGAAsfrL0v7ew6/7C+KAxc4HNEVLNg7jjl7xguopIa+vh/GVy6Bemv3um8f/A+iGvqKLugHLoG+vh9IuHthk+w4Bik4vHp4WxzqQoelmr/vLBSuhgGAgoiFqSlw4vE4lFIQcb5b/qx+tAhZqEFl1v/x13+4EfafjzvqhjwyC7ks6/5u/t4w9A0DwDV9kO/OQ74zD/wkv+YXrUpq4D+lgNdkoV+Tcf2lf4Z8Zw7yTYfFkQCoP9zg7AHzNYjDvSErUUohkYh79nyi9WIAoMAxDAPhcATl8vpr96+oJsB354E3r/8svfqNbH3q2sm6sQD2zYehd18M1evBBrGEAfWmTqg3dQKWAAdLkMNlyJFlYKEGFE8HgrgGMiGooQjUcBTYGnO2nr4Wx8qwb51w/Bg1EIH6dYflh/9prv7n45FoNAqtvbvqmmi9GAAokJLJlHcBAIB8cw7KQQCAPj0LcOsRZx3JW5APjUP93wsB08OXrqGAbfH6dLl3raxNTWD9+WF3rt39417HC5n2t+ad92MFyaS3e1qI1ot7ACiQUin3NpqdjTyZd7zrW12ec2XkLnuW6kHCu0FocAhgf3QC+Jnzojtqown9eocnMibKwFPeTf8DQDKZ9vT5ROvFAECBlEgkoLWHH08B5EFnF88gVD8P70p3HpmF/Rl3NwUGkb3jGOQhh3/up6l39zk+8SBfnfY0eGmtEY9z/Z+CiQGAAkkpjUTC4+OAD83U6/M7oH6zE+qX3dnhLbtOQO456cqzgsi++wRkt8OCP2e8NAl1ucP7Byo2bJfCyLkkEkkoxa9ZCiZ+MimwUimPa93PVJ3vQleA/tCga2fv7U8/B3tn680EyK4TkDtc+n0ZCvoDA86vHv76LDDn8HbGVaTT/t/XQHQuDAAUWJlMBkp5u2XN/uJJ51PAW2PQV3S70h/g9Mvy4xOA3QKbAmzA/sujroYa9fs9js/9QwC519vZFqUU0mmu/1NwMQBQYBmG4fkyAMZKwOMuFIG5qg/oce8onz06DfuDh4C8Czvl/bJYg/2+McgDLpU9BoANYeh3bXT8GPnefL0stIeSyRQMgwetKLgYACjQMpkOz9uwPzfleBZAJTWMjwy5en5e/nkB9tv2Qv7d22tqvSB7i7Devh/yAxcr7BkKxkeGnRcmEkC+cNyVLq2kEZ9dIicYACjQ0umMt6cBAMi+ojsvqpeloN7lzqmAM+R4FfbVByC7TtQLGAVdTSB/fxz2n+wHJt29XEf/j17gpc5nhOSxecjeogs9OjeltPd7WIgcYgCgQDMMoyFfpPL5KVfW3PU7NkC9yuV136rA3nkM1u/thfzI2zPrjvwkD/u/7YP92Un3w8qlGai3Oyz5C9T3JHx+yvlzVpHJZLy91prIBfyEUuDlcg6Pe62B7C9CHnZelx5aQd8yDNXtwdW8E2XY1zwL+8OHnZUgdtvhZdh/Ng7rqmchYx6sq/eEoW8eArTz5RX52nR934fHGvGZJXKKAYACL5FIIBKJeN6O/ZlJd8rTZkPQd2wFkh7UfxdAvjEL64q9sN83Bjzj7VT2isZKsG86Up+Z+NacJ02opIb+9AhUh/PNdFKwGzL6D4cjvP2PmgIDADWFbLYBI6rZqnubw7bGoG8fAcIe/YjZAvneAqz//gzsdx+A/OMMsOT9iQEp2JAHZ2BffQDWlfsgD88Azm7zPbeIhv7UiPMjf2f8zSQwU3XnWSvg6J+aBc+oUFPIZjtx8uQJ2La3Lzn7npMwXpsFLnJevlW9PAn9sWHYN4x7d9ucAPJkAfJkAfj4UahXZ6BelYb61STQ59KsybEy5Md5yBN5yPfngXIDNiNqQN8yBLzMnTshZG8R9v3eV1k0DI1cLud5O0RuYACgpmAYGtlsDjMzLp4pPxtLYH1kAsZd21w50qd+rQP6hgHYt014f9nPsg359hzk26en4/siUL8UBzbHoIajwEAEaqMJxI0XVy6sCVC0IMerwMQy5EgZGC9BfroETFU87vgLKEDdOAR1mcOLfs6oCeSjR7ybqXiebLaTV/9S02AAoKbR1dWN2dlpiHj8Jt1fhNx9AuqPnBecAQD1li7oqIZ9y5HGHuWbLEMmywDmXpw9whqInQ4BJQEqDXg7rkVIQf+vIajXuzeKlruOQw54v/FPKYXOTgdXTBM1GPcAUNMwTbNhxVXsz01BXLiy9gz1hhyMO7Y6L2LjlooNLFj1f4Ly8o9pGJ/c4u7Lf28R9t96X/QHqBf+MU33qkESeY0BgJpKd7cLZ8HXwpL6cTs3N9a9IgX92QsAF3a0t5x0CPozFwCXuljzoWhBPjzesFmXnp4GfTaJXMIAQE0lEokgk3FpbXg1z5Vh/+VRVx+ptsdh/N0293a2twC1LQ595zbXrlUGAAhg3zoBaVC9hI6OHMJh74+qErmJAYCazoYN7qzNr4V8YxZyn8u7xwcj0F/YBnVlj7vPbULqjZ3Qf3sh1IC7L0/ZfQLyT97UJnghpRR6evh3Sc2HAYCaTjgcRjbbuKNW9o5jwFMFdx8a0dDX90O7cblNE1JJDX3bZuibhoCou19D8v/y9aJODZLNcvRPzYkBgJrShg29jau1XhNY7x/zZDpZvS4HvesiqFe4c969KbwiBX33xVD/1YOlnMPL3tZdeAGtDa79U9NiAKCmFAqF0NXVwGnXBQv2ew4CczXXH60GI9CfvQD6UyPAhtbdRa66TOibh2H89QVAv/sjZpmvwb5+DFh0/+/oXHp6NiAU8uDeB6IGYACgptXV1Y1wuIEvzGNlWNePAUVvqhGqV2eg79te3xvgQhGiwDAU1JU90F/eDnV5DvDgtyYFG/Keg5CjjbskKRyOoLOTZX+peTEAUNNSSmPjxr7GNvqzpfpMQMmbs/MqWd8bYDxwOgh4dZdAI4QU1Bs7Ydx/MfT1/d7tdSgL5H0HIfsaezFSb28flGrivx9qe/z0UlNLpzNIp108O74G8vQSrBvHvS2gsylSDwJf3g711u7mCgIRDX1FF/RXLqlv8huKetdW2Yb9gTHIv7m8SXMV6XQGqVS6oW0Sua2JvlWIzq63tx+G0eCd9P+yAPu6Mc9mAn6uNwx9wwD0Vy+BvrrX9eNyblKDEeh390J/9RKoDw5C9Xq8PFO0YF83Bnl80dt2XkBrA319mxraJpEXWJKMmp5phrBhQy8mJ59raLvyozzsa5+F/qutQNLbAKK6TeCdvVDv7IX8dAny9VnIt2aBvPdXAK8oHYJ6bRbq8hzUL7lYyGc1eQv2ew9C/t29cs1r1dvbx41/1BIYAKgl5HKdWFycR6HQ2KlgeXoJ1rsOwPirxu3gV7+cqFfNu34T8PQS7B/nIT/OA/uK3h9/MxTU9nj92OKvpqB+JdHw5QmZqkCuOwgZW25ouwCQTCYbWoOCyEsMANQy+vsHcfDgftRqDR4VHyzBfsd+qE+PQG2LN67dsK6fqT9TQ2DJqq+F71mCHF4GjpYhR5aB8jpDQURBDUWBwSgwFIV6SRzqZUl/Cxc9U4RcNwaZrja86VDIwKZNgw1vl8grDADUMkIhE319A5iYONzwtuVUFXLVs9B/MQT16425sfBFEgbUqzPAqzO/OGlnC3CiCjlWrt/8V7SAog2ULMjp5QOVMoCYAcQ1EDeAjhBUXxjYGPbkyN56yTdnYX90wvt9F+fQ1zcA0+TUP7UOBgBqKel0BtlsDnNzs41vvGjBvvEQ1Fu6oD84AIQC8PbUCugNn3VDXgB6tzaWwP7sJGTXCd+6kMt1Nvy0CZHXeAqAWk5fXz+iUf9u25N/mIb1pwchxxs/Td1ypiqwrzrg68s/Go2it7fB9SaIGoABgFqOUgpDQ8MIhXxcq/5JHnLlHsgjPsxEtAh5dB7WH+yD/LTxO/3PMAwDg4PDLPhDLYmfampJphnGpk2DUMq/iW4p2LD/4jDsPxv35A6BljVThX3jIdg3HvL1mKNSCgMDg7zpj1oWAwC1rFQqHYib2uRbc7Cu2AP7oVmgMZfUNScB5MEZWFfshTw673dv0NOzAckkq/1R62IAoJbW3b0B2awH186erwULcvNh2O/Y70vxmsB7pgj7qgOwbz3if3EjAB0dOXR3+x8eibzEUwDU8vr6BlCpVLG01NgiQWcje5Yg7zwA9aYc9NW9QE/rXv+7FnK8Cvn8JOTrs/UjiwGQSCSxaVO/390g8hxnAKjlKaUwODiMSCQga7m21Ke637wH9scmIKfa8LTAXA32zmOw37oH8tBMYF7+kUgUQ0PDvu4dIWoUzgBQWzAMA5s3j+DQoTFUKo27M35FVYH8wzTkkVno3+qsX//bH5CQ4hE5WobccxLyj9Prr1DokXA4guHhLdDax9MjRA3EAEBtIxQysXnzCMbHn0WlEqBR97IN+0ungC+fgnpNFup3u+sld1tlECqA/FsB8qVTkMfmAzPafz7TNLF58xZW+qO2wgBAbcU0TQwNjWB8fAy1WoBCAADYgDw6B3l0DhiMQP12V/2Wva7mfCnJqSrwyCzka9OQiYDMupyFYYQwPDwC02zv/RjUfhgAqO1EIhFs3rwF4+OHghcCzpgoQ3Yeg/z1JNTLElC/kYW6LAtkA/4jO1uF/egC5NtzwNOFQI72ny8UMjE8vDk4+0OIGijg3yZE3ohEohgZ2Yrx8UPB2RNwNrZAnixAniwAH38OalsMuDQDdWkaanvc//sGqgLZWwQeX4D9w0XgQCnwL/0zwmETw8NbEQ5z5E/tiQGA2pZphk/vCQjQxsCV2ALZVwT2FSF/NwVEFLA9CfXSBNT2ONTWGNAXrl8A5FH7mKxAni1B9hUhTy0BewuB28y3FuFw5PSaP1/+1L4YAKitmaaJLVu2YmJiHMVi0e/unJ+y1O8c+En+FwUG4wbUcATYFAH6IvVrfTtDQIcJ1WFAMiEoQwEx/YvZg5oAJRtiCdR8DbJgAfNVYKZWv0Z4qgIcK0PGl327itdNsVgCw8PDMAx+/VF7408Atb1QqL4J7Nixo1hY8L8ErSNFqz4lv7ceZppvbO6tdDqDgYFBXu5DBBYCIgIAaK0xMDCEnp6NfneFPNLZ2Y2BgSG+/IlO4wwA0fP09GxAOBzGsWNHIcLxcyvQWmPjxj7kcp1+d4UoUBgAiF6goyOLSCSKiYnDqFYrfneHHDDNMAYHhxCLxf3uClHgcC6M6CxisRhGRi5EMpn0uyu0TqlUGiMjF/DlT3QODABE5xAKGRgeHkFvbx/XjZuIUgo9PRsxODiMUIiTnETnwp8OolV0dnYjmUzh6NEJLC+X/O4OrSASiaC/fwixWMzvrhAFHoc1RGtwpnJgZ2c3r4oNqK6uLmzduo0vf6I14gwA0RoppdHb24dsNovnnjvK2YCAiEZj6OvrRzzOtX6i88EAQHSeotEYRkYuwPT0SZw6dRK23fzV8ZqRUho9PT3o6urhrAzROjAAEK2DUgrd3RvQ0ZHDiRNTmJ+f87tLbSWVSqOvbxNr+RM5wABA5IBpmujvH0Qu14WpqUmUSkt+d6ml1af7NyEeT/jdFaKmxwBA5IJ4PI4tW0aQzy/i+PGp5rhdsIlEIlF0d3ejoyPnd1eIWgYDAJFLlFJIpzNIpdLI5xdx4sQUymUGASdMM4yenh5ksyzjS+Q2BgAilz0/CCwuzmN6+hRKJZ4YOB/RaAxdXd3o6Mj63RWilsUAQOQRpRQymSwymSyWlvI4dWoahcKi390KtFQqhc7OHpZgJmoABgCiBkgkUkgkUqhWq1hYmMPMzDSq1arf3QoE0wwhk8khl8shHI743R2itsEAQNRApmmiq6t+dn1xcRHz8zMoFAptV0tAa41kMoWOjizS6Yzf3SFqSwwARD5Jp9NIp9MQsZHPFzA/P4t8Pg+R1gwDSmkkk0lkMhmkUh0wDFYiJ/ITAwCRz5TSPw8Dtm2jVCpicXER+fw8KpXmXiYIhUwkk0mk0xkkk0lobfjdJSI6jQGAKEC01kgkkkgkkujt7UO5XEahUECxWECptBT4QBAOm4jFkkgk4kgkUohEuKZPFFQMAEQBFolEEIlE0NlZPwdfrVZRLC5heXkZ5XIJy8tl34oOhcMRRKNRRCJRRKNRJBIJhEKmL30hovPHAEDUREzTRCbTgczz9s3Zto1yuYxqtYJKpfLzf1tWDbWaBcuyYFm182rHMEIwDAOhkAHDCCEcDsM0wwiHIzBNE5FIBFpzDZ+omTEAEDU5rTVisRhisdiK/59lWRAR2LZ1+r9tKKWgtTr9HANKKRgG1+mJ2gEDAFGb+MWLnT/2RARwDo+IiKgNMQAQERG1IQYAIiKiNsQAQERE1IYYAIiIiNoQAwAREVEbYgAgIiJqQwwAREREbYgBgIiIqA0xABAREbUhBgAiIqI2xABARETUhhgAiIiI2hADABERURtiACAiImpDDABERERtiAGAiIioDTEAEBERtSEGACIiojbEAEBERNSGGACIiIjaEAMAERFRG2IAICIiakMMAERERG2IAYCIiKgNMQAQERG1IQYAIiKiNsQAQERE1IYYAIiIiNoQA8A5iOiK330gImoFIuJj64rf5efAAHAOSknB7z4QEbUCfwMAFv1sPMgYAM7JZgAgInKBiO1b20oh71vjAccAcA5KGaf87gMRUSuwbT9nAKxpHxsPNAaAcyiXrQN+94GIqBVYVs23tsNhvd+3xgOOAeAcPve5208CmPW7H0REza5Ws/xqenbXrl0zfjUedAwAK/uZ3x0gImpm9dG/X0sA8lOfGm4KDAArUEo95ncfiIiaWaXi5yk8foevhAFgBUqp7/rdByKiZlat+hkA7O/42HjgMQCswLKWHgcw73c/iIiakYigUin71fysZZWf8KvxZsAAsIKdO3eWRTDqdz+IiJpRpVLx8wjg/aOjo6wCuAIGgFXJ3X73gIioGS0vF31rWynwu3sVDACr2LnzEz8AwJ2kRETnwbJs3zYAiuCpe+/d9a++NN5EGABWJ4C6ze9OEBE1k2Kx4OMdAPIx+Hf2sGkwAKzB1NShUQCsDEhEtAa2bWN5ueRX8/suvnjkAb8abyYMAGswOjpqAfJev/tBRNQMCk0o7esAAAMvSURBVIW8j6N/9YGbbrrJv9uHmggDwBrdcccnvgHI1/zuBxFRkFWrVd9G/yLywH333fWwL403IQaA86CUfg9YF4CI6KxEBPn8gl/Nz4ZC9v/0q/FmxABwHnbs+N8TSsnbwc0lREQvUijkUav5cvOfKGX/ye7du5/zo/FmxQBwnnbs+MRDSmGH3/0gIgqS5eVllEr+nPsXUZ+6994vftWXxpsYA8A6TE6Ovx/Al/3uBxFREFSrFSwu+jb1/6BtF2/wq/FmxgCwDqOjo9biYvztAL7nd1+IiPxUq1UxPz8Hn1ZG/zka1b9XP6lF54sBYJ3uvPOm5XDYvlwpPOJ3X4iI/FCt1l/+Ph35e7RYDP3mnXfeuexH462AAcCB22+/fSmbjb9ZKdzrd1+IiBqpUiljfn4Wtu3LkfsvptPRNzz44BfyfjTeKgy/O9DsHnvsMeuJJ374lVe+8tI5QF2GJv8zrVTKfu3iJWp5lmVhedmfAWssFkM6nXHlWaVS0a81/xqAWy+6aMt1n/zkJznt75DyuwOt5NprP/gqpbAbwBa/+7Je+fwCSiXfSngStbT6qNmfUiLZbA6bNg04eoZtW1hcXESlUnapV+dlDJA/uO++u5/wo/FWxCUAF+3c+fF/NYzqSwDcDIDrUkTUEkQEpVIRMzPTfrz8q4DcYZryK3z5u4szAB657robt9Zq1oeVUm8DEPK7P2vFGQAi7zTjDEC5vIxCoQDLavjSYBXAPSLq1vvvv2us0Y23AwYAj11zzfs3K6WvVwpvA5Dzuz+rYQAg8k6lUqnMz8+F/Wj7fAKAbQvK5RJKpaIfe4JmRbBbKf2p++6783CjG28nDAANcu2110aA2BsB/K5SuAxAt999OhsGACLv1GrV47Ozsxv9aHu1ACBio1KpolxeRrm83OijfSeVUt8BrPtrtfLXR0dHK41svF0xAPhDXXPNDS/RWv4zoC5USi4SwRYAKUAlAUn71bF8fqFaKpVMv9onamWWZe2ZmZm+xI+2OzqyVl/fgAHYEBFYlo1arQbLslCtVlCrVb3uwiKAglLIi+AQIM8opfbbtvzw/vvv3gPesdJw/x8wyWhC9r9QgwAAAABJRU5ErkJggg==;" vertex="1" parent="1">
          <mxGeometry x="87" y="405" width="32" height="32" as="geometry" />
        </mxCell>
        <mxCell id="HGETupCOhlLOczf1D24e-19" value="" style="shape=image;verticalLabelPosition=bottom;labelBackgroundColor=default;verticalAlign=top;aspect=fixed;imageAspect=0;image=data:image/png,iVBORw0KGgoAAAANSUhEUgAAAgAAAAIACAYAAAD0eNT6AAAABHNCSVQICAgIfAhkiAAAAAlwSFlzAAAOxAAADsQBlSsOGwAAABl0RVh0U29mdHdhcmUAd3d3Lmlua3NjYXBlLm9yZ5vuPBoAACAASURBVHic7N13nF1VuT7w59379CnpbZIASQgJCU1ARBAhEBSiKCBBpClXsRGa14ot6gWViyIkKKI/RRRQiiggKAQSpCOhps6kkmQSSJt+2t7r/f0xE24SkjAzmbPX3uc838+HNuWsh5yZvd69VwOIiIiIiIiIiIiIiIiIiIiIiIiIiIiIiIiIiIiIiIiIiIiIiIiIiIiIiIiIiIiIiIiIiIiIiIiIiIiIiIiIiIiIiIiIiIiIiIiIiIiIiIiIiIiIiIiIiIiIiIiIiIiIiIiIiIiIiIiIiIiIiIiIiIiIiIiIiIiIiIiIiIiIiIiIiIiIiIiIiIiIiIiIiIiIiIiIiIiIiIiIiIiIiIiIiIiIiIgo1KS7X3jlM5ouFPIfcKAfADBRIYOh6FfCbGVNRfKi+hYEjQKsgnEemXVi4lXbuYiISuXKf+pAL1k40age5QgOUKA/gGrbuSJN0CzQTapYLJCnWpF86tYpkuvet76LS+d2jFI43wbwKYAdfomtBfBn1/euu2Fq9Zu2wxAR9YVLHst+UBy5EsBHAMRt5ylzTaK4E2KumTUls3ZPX7jbAuDSh7QW6fxVClwGIN3nEWlP2gH8yiD5g19OkTbbYYiIeuPSx3Lj1MUvofiQ7SwVKAvoDZJN/XjWNGnZ1RfssgDoetPuh2JSafPRniiwVByZPvv45Ou2sxAR9cQl83InC3APFLW2s1S4BkA+NntKcsnOn3B2/sCMudkT1MF/2PnbJ8AEGH320nm502xnISLqrhlzc18UxUPs/ENhPMQ8PWNu9oSdP7HDE4AZc/MTAX0OHOsPm5yIfmjWCeknbQchItqTGY/nz4Xo7bZz0I4UaHUhx9w4Jblg28feLgAumdMySGKJF6AYaycevYsmV3H0DSemltoOQkS0K1+akz/EjemzUGRsZ6FdWllA4ahbptRuArYbApBY8ufs/EOtvy/4DVS7vXSTiCgon5mrKdfVe9n5h9qYhCav3fYfDgDMeCJ/MIyeby8TddNxM+blzrMdgohoZ9UoXAFgf9s56F2IXnjZ3PxBwLYnAEavgbxzQiCFkfyQTwGIKEwufUiTEL3Sdg7qFteIXg0Azhcf6xgJ4FTLgaj7xlzyeO442yGIiLYxqcLHoRhqOwd1k+IjX3ysY6QTc50zAbi281D3OY5cYDsDEdE2IuZM2xmoR1zXdT7mqOKDtpNQzyhwsu0MRET/Rz5gOwH1jAM9wRFgsu0g1GP7XjFX+9sOQUR05T91IICRtnNQz6jKZAfCNy6Kilrg+0ZE1uVihVG2M1CvjHKgqLKdgnpOHeFaWyKyLiaSsp2BeqXaAScARpOiaDsCEZEBPNsZqFdcrv2PqLhfWG87AxGRD+9N2xmod1gARFPzDSdVvWU7BBHRzSemGwE02c5BPccCIIoEz0NEbccgIoKICvCc7RjUcywAIkgUD9jOQET0NtU7bUegnmMBED15x/futh2CiGibZDF1L4A22zmoZ1gARM+fbphazUk3RBQa131Y2qH4je0c1DMsAKKl3TPm+7ZDEBHtLJNIfh/AOts5qPtYAESJ4us3n5ThLxgRhc61H5BWiPBI4AhhARAZ+pfZU5K/sp2CiGh3Zp+QvBuQmbZzUPewAIiGR9uQ+gyX/hFR2M2ekvyBKHizEgEsAEJP/iTZ5Gm3TpGc7SRERN0x68TUl6H4AgQF21lo91gAhNdWQD83e0ryglnTJG87DBFRT8w+MXWLwpwAYIntLLRrLABCRoFWBX4mbnHC7Cnp/2c7DxFRb910QubZwU8kJ0PkbAWW2s5DO5IZc3McV7bLA7BSVJ5T4J+pYuLv131Y2m2HIiLqSzNnqrPp+OLhgH4EwIchOhmKWtu5KllYCoD5Cp0FdV40RrO2wwQmmdw6zEPrzCnC4zSJqOJ8/lHt5zjZalEnaTtLEBxH0o6Y96rIpVAcbjuP9QJABTcOmZe8cuZMMTZzEBERBWH6XeoOG5L/BYAZNnPYLQAEj8w+PnkKl7cREVElmTlTnc3H5x9R4CRbGaxOAjSqP2LnT0RElWbmTDHG6A9tZrBXAAgKQ59IPWOtfSIiIove2px6GkDRVvv2CgDFVo77ExFRpbr7bPEBbLHVvs0hAD76JyKiSmetL+RGQERERBWIBQAREVEFYgFARERUgVgAEBERVSAWAERERBWIBQAREVEFYgFARERUgVgAEBERVSAWAERERBWIBQAREVEFYgFARERUgVgAEBERVSAWAERERBWIBQAREVEFYgFARERUgVgAEBERVSAWAERERBWIBQAREVEFYgFARERUgVgAEBERVSAWAERERBWIBQAREVEFYgFARERUgVgAEBERVSAWAERERBWIBQAREVEFYgFARERUgVgAEBERVSAWAERERBWIBQAREVEFYgFARERUgVgAEBERVSAWAERERBWIBQAREVEFYgFARERUgVgAEBERVaCY7QBE1HNbVPsV8xisBoPVwSBVDIJiEMQMAjBIgUEiEoOitutbUhCkAQCKGnT+7m+7ATAAPAhauz6fBZADAAhaRLVoFJtFsBnibEbXv4vBFnGwKZ7EpoEizcH93xNRX2ABQBQyS1RrYm14L8QcboBJMDIO0P4xgZOMST8BRuRy2vm7KwC06xvl7b91/l13euGd/3tnu/q8AgqByLb/1rf/oV1t+zmgMWs8AOsArAJ0tQIrAWe1C6wWwaqhSawRkWIP/hiIqMRYABBZsnir7uc4mCauOUaNHOwrRkO1tthk3CIAR4CEK0i4QNyRd309y2IA9u38S7rKEIXp/AfW52Aas6ZRgXpHdaE6zgI1WJBOYyGfHhDZwQKAqMQaVJNow8dUzam+4hCo7Geg/T01Lgzwdi8JQARIuoKkq1Ho9HvCATBKgFEqciJUIQLkOp8evAFgkYq+7qiz0Pfx6sgqLBARz3ZoonLGAoCoj63aqu8pOOZMI3qcqkwuNJtBRrFdb/7OZ+0xAZIxIOlse9xeVp3/u9kHwD6icopC4bjA+hzaG7PmFajOF3HmC/Dk8LSstB2UqJywACDaC2tU0/k2XGBUP+6pHq4GQ1thnM67+j134k7X3X7K7fx32kEVgGMhcqxCoQAas2YtBM+LkecM8ExdGi/wKQFR77EAIOoBVXWWdeAj6uuFPnBsc7MZrtqz2/W4I0i7ipgrlXWfv/dGQTFKRT8hePspwbOqMkcUc0Zk8LKIGNshiaKCBQDRu1iZ1eMLBfNZhRy3qNnsY7Tn+2cIgJQrSMW23e2z6+8DVQCmiuhUCLA+h42NOTMPkDkieHpEUhbaDkgUZiwAiHayRjVdaDdf8n05t6jmkLaciXd+5t3W0b1TTIBUDEg42y2lo1IZAsV0QKerAo1Zsxyi94s69w9P4SkOFxDtiAUAEYDFWd3P9czlxpePNTeZMQpIZ4ffu1470TW2H+demzaNg8qVCr1yfR5bG3Nmjqg8mEzh71x6SMQCgCrY8jY92BjzdU9xip8zgztvD3t+l7+9pCtIu4DLjj9cFAMATFfo9FwOhcaseUJF7jcG943OyDrb8YhsYAFAFWV5Tg/wC+Yqz+Cj2aIZtHfdfScHnUv4UjHh4RrRkABwsqie7ApuaMyaZyFyt1PEncNr5C3b4YiCwgKAyt6Sdq1zfTOzaHBmNts3nT7QOZkv7Xbe9XN8P7IcAMdC9VgTw88as+Y5iNyWTOLPg0RabIcjKiUWAFSWnlFND2szXy+qXOQVzL59uQm9K0DK7ZzVz8n8ZcVFVzGQz+EXjTnzIHy5Y2sGD00WKdgOR9TXWABQWVneoh/1od8uNpmjOgBnb8f0t+d2zehPcv1+JUhDMR2OTh+Qx9bGrH+3cZ1fjkrIq7aDEfUVFgAUeUvatU48c42vOLPDNzV9/fquAJlY58x+qkCKAYB83vH18405Mx+QW+JJ3DlEpNV2NKK9wTlLFFkNzXr+0mazyCv46woGn/Y7z7nvM44AVXGgX1LY+VMnxRFQ/XUxp2825sxd63I6VVX5w0GRxCcAFClrW3RQVsyPiz7OyxmT6fxo315/HQCpOJB2OMZPu5WGYrpAp2/I4rXGrM5GCrfXiXTYDkbUXXwCQJFQ36RTlzT7Lzb5ZmPOw8W+ItPXbQiATBzonxSkOcGPukkFhwB6C3La2Njh37A+q/vZzkTUHSwAKNQamvXLi5v9xryaR4sGR2iJuuWUK+if6uz4uaSPeqkfRC5T6PLGrHl0XU5P4/AAhVkMCgPuX0Ih0qBaizZznefj/Jwx6VK2lXQE6XjnRD+iPuIAmCqqU9fnsKAxqze2p3DbeJG87WAUQgLTh4uVesSBYKONhhXI2WiXwmtFVvdd2mweLLSYLTkPF3uKknX+cUfQPymoTrDzp5I6CNBbqnL6xrqsP3N1kw6wHYhCRu30wQByDoANNloWgIdxEABgVZMevrTFPN+RNysLRj9iDNxSteUIUBsHatnxU7CGCuT78aSubuzwb1jToSNtB6LQsNIHA2hyAKy10rRguZV2KTRWZvX4pU3+K61q5hd8PUq1dNPupGst/4CEIM6en+ypgchlruiKxqx/W2NeJ9oORNZZ6YNVZIUjwFwbjUPlJSvtknXLm/QTS5rN6vacmVdQHFrq9pKuoH9CkI5xZj+FRgKQC2B0YWPO3LUmr4fYDkR2CNRKHyyqLzm+Iw9ZadzIozbaJXsaOnT64mazukPNPUWj+5R63ktMOjfxqY53PvonCiEHiumu0VfWdZgH1rXre2wHomAZv/hPAH7gDSseFQCYMTe3CMCBATa9bPYJyQMgYmnuIwVpWYueUTR6o6c6Koj2tq3nT/FRP0WPUcVDauS7o6rlFdthKBiXzM09LsCUwBoU3SIdqbqu5X96TWANA4Dgl+z8y199s35kSbNZnvPNX4Pq/JNd6/nZ+VNEOSL4qOPq/MacuYtzBCqDAwTbB0N+O2ua5B0AeHNj6k4ASwJqeW08kbw5oLbIghUtetzSZr+hYMyDRaNjg6j0XAfol+h63B9Ae0Ql5kAxHUYXNGb92zZkdYztQFQ6s6ak5gB4MqDmmsUpXgd0XSvvPlt8VZ2BAMYhVOSy64+RbKnboeA1bNbJi5v9l9p98++Cwf5BdPwinY/7+yUEMfb8VH5cQC4w0KWNWf/Xb7bpMNuBqDQMnMsQwP44KvjWrA/WbAR2mhN9yeP574noD0rY9s2zp6S+VMLXJwsaWnWIUf1D0egppVzKt7O4A1TFhev5qZK0iehNsaRzNY8jLj8zHs99HoJfl6wBwf2zj0+evm0Ifod7piH/TvyPAveUpl38c/DG5OWleG2yQ1UTDW3+7/K+2VDw9dSgOn9B5zG9tQl2/lRxqlXlG8WcLm/M6eWqyhNdy8jsE1O3QPDLkry46AuZWPL87effvePyOf0udYcNzf8Sis/3YdP3FdqS599yGo/KLBcNrf4Pigbf8A2SQbabdASZBMf5iboshpGr6qrkb7aDUB9RlUvm5X4okO/04avO82PJM391nGzd/oO7vX+6dG7uv1XwQ+zdsatFUZk56N+Jn8ycKWYvXodCor5VP+EbvcUzOjDIdh0BqmPgLn5EuzbPd+Ty0Ul5zXYQ6hsz5mUvgsrPAfTv9Yt0Hvb388Ebk9+eebYUdv70Hq+mV8zN7ueJ3ADFx3rR9MOq8rWbTkwu7MX3Usgsa9b9fTX3FBWHBr1+M+F0HtrDrp9ojwygtzue89XhNfKW7TC09y6f0zbMd+PXAXoeen4JfFKM89VZJyVe2N0XdOsFv/xE/kDHNxdA5HwAo/fwpatV8HfHOL+bdWLi1R6GpRBaqZoqtJg/FA2ma8B9sCNAOsYNfYh6RLBVjfy0KY3rJ8s77/ooemY8kR2jvnOBiJ4PYPwevnQDBPcrzK03nZB59t1et8dX1ivmZvfzVSar6HCouHC0aFTWuzALZk3J2DlYiEqivsX/qq/4kWeQCrrtuMMtfIn20lIR+cqIlJ3t3qk0vvhYx0jHcQ52REfASByivqhsUFcXzT4+vbInr8XLK73DqhZ9fx56V8EPZve+7YkAGRdIxfijSdQnBH+DyuV1aXnDdhQKF15l6W1vqVZvadG7i76eYuMng+v6iUqmQ6H/25RyruGwAG3DSy0BAOqb9TIP5tqgl/Vts+3wHv5AEpVUvYpcMjIlc2wHIft4va1wDU06zog+UDAa5GmQb3MdoIZ3/URBUkD/xNUCxMtuhVLVWEOb+UPBw6eCnt2/TdoVpOP8ISSyZAtEvjUiid8IT2etSLz2VqBFzTpNYO7wDPrZaN8BUJ3onOlPRNY9DUc+V5eUoE6EpZDgFbiCrFFNd7TqvQVfT7WVId71yF/4k0cUJjmF/pSTBCsLL8MVoqFVzy765vf+3m3t3GuCrk19YpzoRxRWonhNVT5bVyUv2s5CpcdrcZl7rUkHJMV/oGjkWFuDfHzkTxQpHlR/6aSdq4aLtNsOQ6XDK3IZa2jWLxdhrvcNErYyxLv28efpfUSRsxSQz9Wl5SnbQag0WACUodeadEDK0Yfyvh5tK8O2R/5p7uhHFGUK6G+Qcq6sEx7nXm54dS4zy1v0opzxbzYq1u76Hemc6BfjbT9RuVgEI5/m3IDywgKgTDSqZlpb9YGiryfaXNCbcARVPMSHqBx5IvqzLUnne1wpUB54mS4DDS368aIxd9ia4b9N2hVk4jYTEFEAXje+XDiqWl6xHYT2DguACFPV2LJWvT9ncV0/0PlDVB0HEtzPl6hS5EXlu8PT+JmIGNthqHd4xY6oVU16eFb0Uc/oQJs5XAeoiQlcjvcTVaK5RuXCURlZazsI9Rwv2xFU3+Jf26bmRdudf8IR9Iuz8yeqYFMc6OvrOvQc20Go5/gEIEIWNuvAmJrHC4pDbeYQAOl455g/EVEn/WMs5Xx5qEib7STUPbx3i4hlbXoh1KwPQ+dfk2DnT0Q7kwu8nL62tkPfbzsJdQ+v4iGnqk59qz5o8wCfbWIC1CSES/yIaE8KovLtrgmCPGY4xHgpD7EVLTohr/qkZ3SI7SxJV1AVA0/xI6LumuP6cv6wannTdhDaNQ4BhFR9s16aM2ZhGDr/TKxzmR87fyLqgam+qy82ZvU420Fo13hJD5muR/73FHw9w3YWka71/XzmT0S95yn06rqU80PuGRAuvLKHSMNmnezH9Imi0UG2szhd4/08y4eI+oICj8d9OW9otWywnYU6cQggJJY166V517wWhs7fdYB+7PyJqA8JcKLv6vzGrH7QdhbqxEu8Zaoq9W3mzwUPZ9vOAnQ+7ud4PxGVkKcq36lL41quErCLl3mL1rfqkGZjXiga7Gc7CwCkYp0z/SnaOrI5bNy6BRu3bMXm5ma0drSjrSOL1vYOFAoFdORzAADP8wAAsVjnm55JppBIJFBTlUF1Jo2aTBUG9euHoQMHYvDAAcikUtb+n6gMKf6eSsunB4o0245SqVgAWLKqVadkffMPT5G2nQUAquJAipv7REqhWMSqdeuwqnE93li/Hqsa12Pdm2+iPZstSXvVmQxGDh2KfetGYJ8RI7Bf3QjsN3IkEnEeAUm9Vu848onhSVlgO0gl4hXfgvom/6dF4GtG7f/5b9vZL86Z/qHXkcth4bJlWLR8JRpWr8aKtWvh+b7VTLGYi7EjR+GA/fbDpLFjMHn//ZFOJa1moshpU5WLR2bkz7aDVBpe9QOkqvGGFv/feSNH284CdM7078ed/UJt7YY3MX/RIry8ZCnqV62y3uG/m5jrYuKYMThs4gE4YvJkjBw61HYkigrR60ckna+LiGc7SqXgpT8gK7bqvkVXXyj4GoorYkyAmqRwGUgIrd+4Ec+8+iqefeU1vLF+ve04e2WfuhE45tBDcMxhh2H44MG241D4/Vs8OWtEjWy0HaQSsAAIwLJmPSUP83djkLCdBeh83F/Dmf6hUix6eHHRQsx57nksaFgG1fKbHD121ChMPfp9OO6Iw5FMhOJXgUJIgGVw5OMjkrLIdpZyxy6gxOqb/J8UgK9rCMb7ga49/eN848Pizc2b8dCTT+GJ/8xHR640k/fCJpNK44SjjsS04z6AoQMH2o5D4dSqIuePTMn9toOUM/YDJXKXqntIqz5a9HWK7SzbpGOCDJf5hUL96tV4cN6/8cKCBTCmMndHdRwH7zv4YJx2wgex/z772I5D4aMK/eHItDvTdpByxQKgBBa36CAx+nJRdbTtLNtk4kCay/ysW/bGG7j30ccwfxGfbm7v4APG41PTTsX+o0PzK0MhIdA/eynnv0aLVMYjsgCxR+hjDU16eBHm376iynaWbWoSPNDHtjfWb8CdDz+M+QvZ8e+OiOCIyZNw7qmnYtTwYbbjUJgIXlIjp4/MyBrbUcoJe4U+tKJNL8j65vfGwLWdBeic5FcT5xp/m9o6OnD3I4/ikaefgV+hj/p7ynUcTHnfUTjn1A+jtqradhwKCQEaoXLGiIy8YDtLuWDP0EfqW/1fFDxcHpa5244AtQkBn/rbYVTxyNPP4C///FfJduYrd9WZDM459RRMff/RcLhkhTrlBPKFEWm5zXaQcsDfqr2kqk5Dqz6W9/UE21m2Yedv14aNm/Dru+/BwuXLbUcpCwfstx++OP0sDgvQ/1G9cUTauVJE+FhtL7CL2AuNqoNbWvWVoq8jbWfZxnWA2jh397Oh6Hn465w5+PvcefC8cO/YFzWxWAzTPzQVH58yBY7D7asIEMX9blrOGyrSZjtLVLGb6KXVrTq5w5jnPIPQDFLGBKhNCt9UC5asWIHrbvkNWorcxbSUDth3X8w471MYPmiQ7SgUAqJ4zYd8ZFRG1trOEkXsK3phaYue7hlzt1GEZlV93AFq4sLd/Sz47V/+gvseegjp/gPhxELzI1G2MukUPn/WJ3DMYYfZjkLhsAqOTKtLymLbQaKG3UUPLWnyv+YBPw3Lzn4AEHcFNTFu7Ru0fKGAr139YzQsb0CiugZJzlgP1NT3H43/Ov10xGKhWHRDNgm2QuX0urT823aUKGGX0QNLW/3ZBQ+X2M6xvbgrqI2B72TA3ljfiK/+6H/Q2tICJxZD1aDB4JsQvAn77YevfPoCDKittR2F7MurykUjM3Kn7SBRwStWNy1pM/cXi3qa7Rzb477+djz94nz8ePYs+F7neH9m4CC4cR5uY8uA2lp883P/hTEjQzMXl+zh9sE9wL7jXSxUTcSbdX5e9SDbWbaXigmqONwcuD8/8CBuu+svb5/WF0smke7PA21sSyWTuOL883D4pANtR6Ew4DLBbmEBsAcLm3WgI/q652ud7Szb46E+dsy+7Tb845FHdvhY1cAhcOJ8M8LAdRx8YfpZOOGo99qOQmEg+JuflHN5hsDusQDYjfomHevBvOwrQjW4mOp67E/BuvbXt2DukzvOL4ql0kj3628pEe2KiODCj30UH/ngB21HoXB4Xjw5bUSNbLQdJIxYAOzCihY9Lqdmjm8QqoHdtCvIsPMP3Hd/9nO8+PJLO3xMRJAZNASOyxnoYTT9wydj+oc+ZDsGhcNyX+TU0SlpsB0kbLil1k5WNus5WePPY+dPAPC969/Z+QOdd//s/MPr7n89ivsee9x2DAqHca7qk43teqTtIGHDAmA7Dc3+FR1q7jAqofpzScfAzt+Cn/7qZvxn/js7fwBIZEJz2jPtxp0PPYwHnnjCdgwKh2FwdN66nJ5sO0iYhKqjs6mhxb865+N6E6INfoCuzj8WqkgV4Ybf34p5Tz+1y8/Fkinu+BcRf3rgH5j3wn9sx6BwqBLVBxo79EzbQcKCBQCA+ib/dzkfV4Wr6wcy7Pyt+MuD/8A/H39st5+P8+4/MlQVN999D+YvXGQ7CoVDEqJ3rc/qZ2wHCYOKLwAaWsx9ecVFtnPsLB3rXO5HwXr+lVfxh7v+AnSt89+ZG48jlgjV9BB6F8YY3HjHHVjd2Gg7CoWDq9DfNXboFbaD2FbRBcCSFvNYztfTbefYGe/87Vi5Zg1+9IvroWb3e4dw7D+asrk8fvzb36GptdV2FAoHgej163P+T2wHsakiCwBVdRY3+y8WfT3Rdpad8c7fjmwuh6/9z9Vvb++7KyICN5kKMBX1pS3Nzbju93+A5/m2o1BIqMo3Gjv8G1S1Ii+6FVcALFRNLG3RRZ7BEbaz7CzlCu/8LfnaNT9Ge3vbHr8mlkxBeORipNWvXo0/Pvig7RgUJiKXrc+ZX6lqxfWHFfU//KJqxmkx9UWjE2xn2Vkqxh3+bLnlzj9j+Yrl7/p1sXQ6gDRUag8/+RSeeeUV2zEoVOQLG3LmdlWtqKtwxRQAq1UH1LTqCs9gX9tZdpZ0ebCPLa/X1+NvDz/0rl8njoNYIhlAIgrCLffci41bttiOQSGikHPW5/Rva1QrptKviAJgZZsOzzbrioKvw2xn2VnSFVRXVM0ZHkXPww9+vudJf9vEOPZfVjqyOdx4+50w3XjvqaJMc3P68Fuq1baDBKHsC4DlWd0n55v6omroTm1JOHzsb9OPZs1Ce1v3ZoXHUiwAys3SVavw97lzbceg8Dney+m/NquG6iC4UijrAmB1Tsfm8v5iz6DGdpadxV1BdYKnMdkyf+FC/OelXW/z+w4icONc+1+O7n5kDtZueNN2DAqfY/I5fWx1kw6wHaSUyrYAaGjScW0587pRydjOsrO4I6iNs/O3xTMGP5l10243+9mZm0hw9n+Z8jwPN991N0w3fxaoohwZT+mja5p1oO0gpVKWBcDirbpfEeZVowhd5x8ToIaP/a36+S2/QVtbS7e/npP/ylv96tV4/LnnbcegMFIc4SbLtwgouwJg8VbdT8Us8BWh27It5gC1SQFvJu3ZsGkTnnjmmR59DwuA8nfHQw+jtaPDdgwKI8XhblLnrG3RQbaj9LWyKgCWNOkYhb8wjJ2/K0BNXPjY37KrZ82GMd3fCc5xXZ78VwHaOjpw76NzbMegsFK8x0mUXxFQNgXADhnGvAAAIABJREFU8mYdr2oW+gjfmL8DoCYhcNj7W/XCK69i2fJlPfoeJ8bxmkrxyNPPYN2bnBBIu6E4zEnonMYWHWw7Sl8piwJgaYtOzMO85gGh28DBkc7H/i47f+tuvPXWHn+PG2cBUCk838efH/6X7RgUZorDENM561t1iO0ofSHyBUB9qx7oq3nZNwjdQm0RoDrOzj8M5j3/PDZv2tjj73P5BKCivLBgAZatWWM7BoWZ4FCN6WPlUAREugBoaNJxnm/mh7LzB1AdA+KR/hMuH7+5/Y5efZ/DJwAVRVVxzyOP2o5B4XcwXJ0T9dUBke2elnXo6ALMa76G77E/AFTFgQRv/UPhsWefwZYtm3v8feI4ECeyvyLUSy8tWozla/kUgPZMBYe4SZ2zcmv4dpntrkhe3Za26OBi0bwexnX+AJCJd+7xT+Hwh7vu7dX38e6/cj0w99+2I1AUKN6TTOk/onp2QOQKgJe3an/fmKWeQT/bWXYlFROk2fmHxuJly7BxY+9mdjuO28dpKCqee+01vLm550+NqCId4+f0bytVQzcU/W4iVQAsVK1OOWaprwjluEvcFWS4ZDxUfn3Hnb3+XsdlAVCpjDH455NP245BEaHAScmc/q1BNVK7hkWmAFiomnCbdZFnMNR2ll2JCVAT4/7+YdLa3o765Q29/n7hE4CKNvc/LyJfKNqOQdHx4aq83qmqkbkNjEQBoKoxt8UsLaqOtp1lV1xu8RtKv7/7Hqjf+/PeHTcSvx5UIh25LF5Y8LrtGBQlijPW58zvVTUSF4/Qh1RVp77FvFY02M92ll1xBKjlFr+h9NTzz+3V9wuHACreY8+9YDsCRY6cvyFnfquqoe8WQl8A1DeblwoGB9rOsSsiQC23+A2lBfX1aG1t3avX4BAALV6xgpMBqccUctH6vPm57RzvJtQFQH2LmVtQHGo7x64IOsf8OeE/nP784AN7/RrCMZ2Kp6p45pVXbcegKFK5ojGrV9mOsSehLQDqm/3b876eYDvH7mRinbP+KZwWLFq8V9/PQR3a5lkWANRrevW6nF5qO8XuhLIAWNri/7hgcK7tHLuTiglSMXYQYfXiq68hn8vt3Yvw7p+6rGpsRONbPT9HgggARPUX6zt0uu0cuxK6AmB5m/+Vgo9vqu0gu5HgWv/Q+8e8eXv/Iuz/aTsvLlpoOwJFl6Oif2rM6YdtB9lZqAqAhja9IOvhOts5dseVzgN+2DeE2+L6pXv9GiKh+tUgy15ZUm87AkVbAqp3N7brkbaDbC80V7n6nJ5c8MytquHsX52uGf98Mhxum5ua0NLSsvcvxPeZtrNk5Qpkc3nbMSjaauDow415nWg7yDahKABWNenhxZx5yGg48uxMANTEudwvCv4xdy5UwzqARFHleT4WLV9uOwZF32AYfbQxq/vYDgKEoABY2KwDO9R/0ihCO7KeiQEx639S1B0vL1jQNy/EIoJ2snjFStsRqDyMgur9G1SrbAex2q2pquNCX/YhoTzWFwDiDmf8R8kba9f1yeuw+6edLVm1ynYEKheCQ01eb7O9W6DVAqC+Ve8pmnA8CtkVEaCKR8JHRntHB7Lt7X3zYoYlAO1oxdq1KBY92zGoXCjObMzjEpsRrBUAy1r1xKKvZ9hqvztSLnf6i5Kn5r8I7aN7d1XDYQDaged5WNnYN0+YiABAVH+6JqfjbbVvrQAo+ObeMF9eBUCavX+kvLxwUZ++HicT0s5WNzbajkDlJRNT/ZWtxq0UAPXN/o98RX8bbXdXJs7N4KJmzbq+vTtT0/ujhKk8rdnwpu0IVGYUOGl9Tk+10XbgBYCqOkXga0G32xMiQJJr/iJnYx+f2qbKAoB2tLpxve0IVIbU6I9tTAgMvABoaDPfNgbJoNvtiaTDDX+iqL2vJgB2Mb7fp69H0bfuzbdsR6ByJDi0MY+pQTcbeAFgjIT2ZKRtEjwGPnI2bt7a5x228Tnjm3bU0t6GXJ47AlLfc0zwpwYGWgCs2KKHeEaHBNlmTwm46U8ULVrR0OevqXwCQLuwcetW2xGoDKlg2oZWHRpkm4F2db5rvh32edVJlyfBR9HadX0/O9t4LADond7assV2BCpPronh40E2GGgB4KmcFGR7vRFzwl6i0K5s2LSpz1/TeBwCoHfa3NRsOwKVLS3PAmChasKHDgyqvd6KcfZ/JG0twUVZ1XAYgN6hraNvJ5sSvU1xrKoG1i8H1lCiDaeH9ajfbUS4819UNbf2wRHAu+B7xZK8LkVXa3vWdgQqV4L+bxYwKajmAisABGZKUG31Fif/R1dHNleS1zUsAGgnrX283JRoe76Pg4JqK7ACwKhMDKqt3nK4+D+yvBJ11F6BBQDtiMsAqZREMC6otgIsAHRkUG31lsPlf5HllWis3hQLPBSIdlCqnzWiTmbfoFoKrMtTRSaotnqL9//R5Zfooqyq8LkhEG2nwNUhVEIC1ATVVnD3vI4kAmur13inF1XGL92+/X6hULLXpujxWABQCRmV6qDaCm4SIPtWiiifY75EVIaCHAKIwFWUgwBR5bil+1H2CgUo5wFQl1gsZjsClTFHtC2wtoJqSAQdQbXVW7zER5fjlHIRp/IpAL0twQKASkiB0mxqsgtBFgDrgmqrtwyPf48st8Q7OHn50uwzQNETc7ljCJWSszqwloJqyBVdGlRbveXzMW9kJROpkr6+l89xGIAAAJl0aX/WqLKpYkVQbQVWAHhwHg+qrd7iA4DoqsqUdpWpqsLjMAABqM5U2Y5AZcxx8XpgbQXVUFs1/uZIuIfZVYESriajEqquLv02E16Oe8ATUFOVth2BypVg6/AEFgfVXGAFwJEiRQeyOaj2esvjY95I6l9TW/I2vEIeyokiFa+6xE+bqHKJwVMiEthFJtDNb13RR4NsrzeKhksBo2jEkKGlb0QVxWzoF7NQiQ3s1892BCpTRuTvQbYXaAHgOM41Ye9eC76Ge5yCdmnM6NGBtFPkMEDFGzpwoO0IVJ58x8P9QTYYaAGwf40siDnyVpBt9pQC8PiUN3Im7j82kHaM53FJYIUbMmCA7QhUjgQPjKiRjUE2Gfj5d25Mbwi6zZ7K87CvyBnUf0CJNwP6PwWeB1+x+lVXI5VM2o5BZchRmRV4m0E3uH/G+YnrINS3UAXDYYAoylQFMznLLxbgF3lAUCUaNWyY7QhUjgQvD0thbtDNBl4AiIiJAz8Jut2eUAVyHkuAqBk2ZEhgbfEpQGUaXTfCdgQqS/JNkeCPzAu8AACA8f3cH7giW2203V1Zr7MQoOjYd9SowNry8jmYYjGw9igc9h0+3HYEKj+P1qXkERsNWykAACDtypkS4o2BFEDWD2082oVDJk4MtL1ce2ug7ZF9o0ewAKA+1e6LfNlW49YKgDE1Mi/hyr222u+OnA8Y1gCRcdyRR0IkuIWmfj4Pv8C5AJUiFothTN1I2zGojIjI10enZJmt9q0VAAAwvlo+GXPwhs0Me6IKtBVZAURFJpNBVVWw+7Tn2wI7uZMs23/0aMTjPAqY+ojgr8OT+JXNCFYLABExBs57XEFoZ1QVDZDjUEBkjB4Z7B2aXyzyjIAKMXHMGNsRqFwoXnWScqGNiX/bs1oAAMDkfrIlo85xjsCznWV3OorcHCgqDj/o4MDbzLW28KjgCjBhzL62I1B5WAuRjw0XsX7ja70AAID9BsjLEnOmORLOE3kVQGtROR8gAqZNmRLoPAAAUGNQaOOEwHIWi8Uwedw42zEo+jbBkZPr0hKKoe9QFAAAMKlaHk0knHMchHNlgFEWAVEwsH8/1ARwMuDOCh3tnBBYxiaNHcsdAGlvtcLIKXVJWWI7yDahKQAAYHxG7k7F8d/hLAE6hwHavZBWKPS2yRMmWGk319LMoYAyddjEA2xHoGgrQOSsuiqZbzvI9kJVAADAuGr3+kQMPw7rqYEFX9HB/V9CbdpJJ1pp1/gehwLK1JGTJtuOQNHli8r5tjb72ZPQFQAAMKHWvSrh4lbbOXYn5yu3Cg6xIw86CKl02krbhY52eBwKKCtjRo7E8CGDbcegaFJAvjgiI3fbDrIroSwAAOCAWveipCNzbOfYnXav82kAhdNBBx5ore1c81aoCeV8VuqFY99zqO0IFFGq8q26tPzWdo7dCW0BAAAH9HNOjsfkJds5dqfNA/ggIJymT5tmrW01BrnmJmvtU98RERx9KAsA6gXRn43MyE9tx9iTUBcAADChWt4bc7HIdo5dUQVa81wZEEaHTJxoZTXANl4hj0Jbm7X2qW9MHjcOQwcOtB2DIkagvxuRdL5mO8e7CX0BICJmYo1zSMKxt1/ynhgAzQUN5wYGFe6Dx7zfavv59lZ4+bzVDLR3TnzfUbYjUOTobcNTzsW2d/nrjtAXAAAgIr5XK5PjEo7NE3Zmup4EcAVYuHzmzDPhOHZ/xHPNW2GKod3kkvYgk0rjqIMPsh2DokTw1xEp57MiEol7wkgUAAAwWaRQ208OjDnypu0su+Jp55wA1gDhUV1Vhf3H7W81g6oi27wF6vtWc1DPTTnqvUjE47ZjUHT8sz0p54pIZCr+yBQAAFAn0mFqZf+YYJPtLLvCPQLC5wvnfsp2BBjfR7ZpKzcJihDXcTDtgx+wHYOiY04+JWeMF4nUmF+kCgAAmCzS5jjOgTFBs+0su5LzFVkuDQiNSePHY/jwEbZjwPeKyG7dwiIgIt5/2KEYMmCA7RgUDU87KTl9jEjOdpCeilwBAAATamVTLOEcFNZjhDs8IM89AkLj/DPPsB0BAOAXC517BLAICL2PHv9B2xEoGp6Pp+TUMJzs1xuRLAAAYHxG1maSzsEuNJSHsbcXgSKLgFA46ZhjMDAkS7m8fJ5FQMgdMXkSxo4aZTsGhZ3iVb8g04aIRHb/78gWAACwX1pWJh330BgQuiJAAbQUgWIk5oKWv4vPO892hLd5+TyyTRwOCCMRwSc//CHbMSjsFK/Ck6mj+8kW21H2RqQLAAAY108aAGeSC+2wnWVXWovK3QJD4IT3vQ+DBw+xHeNtfqGAXNMWcO1ouLzv4IOx38iRtmNQmAlegSdT62ollJPReyLyBQAAHDhAVgncyWGcE7Btt0CfTwKsu+yiiwAJzzmTXqGA9i2beW5ASMRcF+eceortGBRmgpdNoTw6f6BMCgCgswiAOqEsAgyAliK3DLbtvYceYn1fgJ0Zr4j2LZvgF7l+1LZTPvAB1A0Nz1MiCpnOzv/kUbWy2XaUvlI2BQAATBogq0NbBCjQwi2DrfvOjEvgOK7tGDtQ30d262Z4+citIiobtVXVOOvkk2zHoLASvOTnZWo5df5AmRUAQGcRkEw6kxxo6IoAn1sGWzds8GBMOe442zHeQVWRbdqKfFtkJxRH2rkfORWZdNp2DAojwXw/LydHfcLfrpRdAQAA49LyRiblHuSE8EmAp0BrEdwz2KIrPvtfVk8K3JNCe1vnhkGcFxCYSePGYcpR77Udg8LpmWRSTizHzh8o0wIAAMakZVUmGc7NgopG0RqZ3aLLT8xx8M0Zl0AQngmB2/MKebRv2QivEKldRSMpFovh4k+cAQnR5FAKjaeTKTl1kEiL7SClUrYFANBZBCDujI854ds2uOArWgt8EGDL4ZMn48gjDrcdY7fUN8hu3YJ8awv3Cyihs6aehJHDhtmOQeHzVLzMO3+gzAsAAJhUJesHOM4BMUe22s6ys4JRtLMIsOZ7l1+O2tp+tmPsUaGjHe2bN8IvFGxHKSvG81CbiOFjU06wHYXCZ66TklOivMNfd5V9AQAAw2vkLamVfeOuNNrOsrO84QmCtsQcBz/86n9DnHD/Gqjvo2PrZuRaWrhx0F7TznkWTVvw1YsvRiwWsx2IwuUffko+EtW9/Xsq3Fe+PjRRpHVLjewfd7DKdpad5XxFO+cEWDFh7FicMW2a7RjdUsy2o33TRhSzodv5OhL8QgHtmzch39aKs047DRPHjrUdiUJF7xyRkjNGi1TML1jFFAAAcIxIdkKtMz7hYqHtLDvLeYp2Pgmw4uJzzsH4/cO1QdDuGOMj19KEjs2b4Bc5LNAdpuiho2kLOrZuhvE8jN9/PC466yzbsShU9OYRKed8Eamoq3BFTn1VVae+xX+uYCR0a38yMSAdq8i3xapCsYgLLr8cLS3RmvPjJpJIVdfAicdtRwkd9X3k29tQzP7fMSHV1bX44w3XI5VMWkxGYSKiPx2edL4lIhU3vlbRPc3SZvNowehU2zl2xiLAjpVr1uCy734Xnhe98ZhYMolEVTXceMJ2FOuM76HQ3r5Dxw8AsXgcv/zJNRg9bISlZBQyqirfHJmRa20HsaWihgB2NqGfc3LCwV9s59hZhwd08AjBwI0ZPRrfueKK0E8K3BUvn0fHls3o2LwJxVzFDGHuwC8WkG3a2jVPYsfOX8TBt2Zcys6ftlGIXFHJnT9Q4QUAAEzo556TiOG3YbvfzrIIsOJ9hx2Gz3zyk6E6NbAnfK+IXHMT2je9hXx7G9T3bUcqLVUUsh1o37wRHVt2f57CZz51Do4J8b4PFChPIBfVpeRG20Fsi+ZVrgSWtfo/ynn4Tti63LQryHB4N3Cz/vAHPPToo7Zj7D0RxBIJxNMZxBLJyBY2O1J4+TyKuSy8fP5dl0Z+bNqp+NK55wWUjUIuD5VP1WXkPttBwqAcrgZ9pqFVv5T3zE0asj+XlCuoYhEQuJ/86mY88fRTtmP0GRFBLJmCm0whnoxWMaBQmHwBxXwOxXwO6OZZCccfeyy++aUvlTgdRUSbipwxMiVzbAcJi+hcAQKyolXPzvnmDl8RqjNj+STAjh/ccCOe+88LtmOUhJtIIJZMIhZPwonFQlcQ+F4RfqEAL5/vXPLYw02QjjrySPzgiitKlI4iZgOMfLSuSubbDhIm4fqND4mVzXp0Vv15vkqo1gqxCLDj+9f/Ai/Mf9F2jJISEbjxBNx4Ak48BicWh+MGVwOr8eEXizBFr7Pj9wpQv/cnIr7vyCMxk50/ARBgmSdy6uiULLOdJWxYAOxGfZOONWJeKhqEarN4FgF2XHvzzZj7VPkMB3SHiMCJxTr/cmIQ14UTcyGOA4EDcaTbTw1UDdQ3UOPD+H7nP73O//a8Yrcf6XfHCR84Dt/44hf67PUouhR4TopyWl2tbLKdJYxYAOzBy1u1f1r09aLqKNtZtsciwI5Zf/gDHpozh/vxb0fEAQT/d5yuCKDaecCVUSg0uD8vEXz05A/hkgsvCKY9CjfBX/2knF9JW/v2FAuAdzFXNTa8xbzgGbzHdpbtcWKgHff981/4zR23Q/vwjpX2nuMILjjrbJzzsdNsR6EwUL1xRNq5UkT4i7oHLAC6aUmbub9Y1FBdXRKuoDrONzFoz778Cq6+4RfwI7hjYDmKxeO46rLL8P73hKpGJzsqfne/nmDf0QP1zf6NeYNLbefYXsIV1MTAdzJgbzSuw1f/5xq0tjTbjlLRqmtq8LPvfhf71NXZjkL25VXl0yMzErrdXcOK3UYPLW/2r8ga/DxMewXEHUFNPHSruMpeoVjEVdf+LxYuXmQ7SkUaN3Ycrvv2VTzYhwBgCyCn16XlSdtBooRdRi+sbNZTOtTcbxShGYWPCVCbFL6hFvzmz3/GfQ89xHkBAXEcB2effjo+feaZtqNQOKxUkVNHpmSp7SBRw/6il1a26MScmhc8gxrbWbZxu4qAij/gwYIly1fge9ddh9bWaB0nHDXVNTX4wVe+gknjx9uOQuHwH9eX04ZVy5u2g0QRC4C9sFZ1UHuLvlwwOtp2lm1cB6iNCxy+s4HzPA8/nDULL85/CV0L4aiPiAiOee/78M0ZX0Ysgqc1UgkI/uok5cLhIu22o0QVu4m9pKrO0hZ9uGj0Q7azbOMKUJMQuHx3rXhtyRJcM3s2mpuabEcpC9U1tfjmjEtwxOTJtqNQOKiIXjs86VzFZX57h11EH1ne4v8s6+MrYbnvc7qKgBjfYSuMMfjF736POU8+sVdb2lYyx3Vx8vEn4NLPfBou7/qpUw6Qi+vS8ifbQcoBu4c+tKxJP5kX8ydjELOdBehcFVATA+J8FGDNxs1b8NObb8aiJYuh3EGw28aNHYfvXnYphg0ebDsKhcc6GDm9rkrK+2COALFn6GPLt+jBefGf8SHVtrNsUx0HkiwCrHrxtddw4623YuNbb9mOEmpDhgzD5Z+9CEccdJDtKBQiAjzr+nLm0GrZYDtLOWGvUAILm3Wgo+ZlT7GP7SzbZOKdZwiQXc++/DJ+/afb8eabvI5tr1//Afji+efhhKOPth2FQkdv91POxdzTv++xRyiRrsmBDxWNfth2lm14iFB4zH3uWdx271+xYcOGyj1cSATDhw3Hf51zNo478r2201D4+Kry7ZEZ+antIOWKBUCJNbT63y/4+L7RcPxZJ7p2DQxHGlrc0IBf33EnGpYvg6mQjYQcx8WBEw7AxeeeiwljxtiOQ+HU4oicNzwlD9oOUs7YDQSgoU0/VPTN/b5BKPYs5dbB4dORzeJPf7sPjz31DFqay3P5YHVNDY476n246OyzUVOVsR2HwqsBjny8LimLbQcpd+wCAvJGu9a1e/qiZ3SE7SwAEHOAGm4YFEqv19fj7n88hNcXLUIu22E7zl5JZdI47KCD8cmPfhQTx461HYfC71/5nJwzZoCUZxUcMrz8B0hV4/Ut/tyikWPDMOrLDYPC7+WFC/HA449j0dKlaGluDv1SQoGg34D+OOjAA3HalBNxyIETbUeiaFAVva4u6XxLRHzbYSoFL/0WLGv3v50v4EcmBH/+AqAm0TksQOHW1NKMfzw+D/MXLMCadWvR3tZmvSAQEVRXV2P0qFE44uCD8ZETp6BfdWiOx6BoaBWVz47IyN22g1QaXvUtaWjV44ue/7APSdvOIgAyMSDFbQMjpb0ji6dfmo8FS5ZixZo3sHHjRrS1t8P4pbmBcl0XVTU1GDpoMPYdNRLvmTwZHzjiCCR5HC/13hJx5BMjksIztS3gFd+izsOEzAsFg1AMjqZigqpQ7GFIe6O5rRWLGpZjxerVWL9xI5pbWtDS1or2jiw8z0O+kIcqYHwPIgJxXLiug3gsjngshkw6jX61tRjYvz+GDR6EfUeNwqT9x6F/bT/b/2tUVvROJ+VczMN87GEBEAJLW/w/FnycbzsHACRcQXWMKwSIqGQ8VfkO1/fbx8t8SDS06GcLxvzaKFzbWXikMBGVyBqj8slRGXnWdhBiARAqS1t0olH9t2d0iO0sIkAtTxMkor4zx/Xl/GHV8qbtINSJl/eQUVWnvlXvKfh6hu0sAFAT7xwWICLqJU+hV9elnB+KSGVsdxkRvLKH1PIWvShnzC1G7R8tnIkBaT4KIKKeW6MqnxqZkadtB6F34lU9xJY36/gC9EnP6DDbWZJu5woBTg4kou4QxQNeUT4zup9ssZ2Fdo2X85BTVaehRf+WN3qa7SzcOZCIuiEPlW+OSOMGEQn31pUVjpfyiFjWrqcXPHOnb5CymYM7BxLRHixWI+eNrJKXbQehd8ereIQsbNaBMTWPFxSH2swhANKcF0BEO9A/OinnS9zYJzp4BY+gpS3+j4u+fkMtj8jHuzYN4sMAooq2UUU+NzIl99sOQj3DS3dELWvVgzyjjxct7xngSuexwq5jMwURWTLHM/Lpfaqk0XYQ6jkWABGmqrGGVr0v7+lHbb6TjgBVMe4XQFRBshD51ogkbuREv+jiFbsMrGjR03LG3OkrqmzmSLuCTNxmAiIKwH/gyIV1SVliOwjtHRYAZWKNarqjRe8vGp1qsxxPuILqOH+wiMqQJ6I/G550visiRdthaO/xOl1mGlr1rKJvbvMVaVsZnK55ATHOCyAqFwth5NN1VTLfdhDqOywAytDKrdq/4Oq/Cr4eZSuDAEjHO4cFiCiyDFRnt6edr48XydsOQ32LV+cyVt+kXyiKudEYJGxliDudQwJcKkgUOUtU5bMjM/KM7SBUGrwsl7klqjXSpn8teDrVVgYHQDV3DySKCk9Ef5ZLOjPHiORsh6HS4RW5QnTNDbjV5kqBVEyQifGHjii0FK9C5bMc668MvBZXkJWqqXy73lUs6Gm23vm4A1THhUMCROGSVei1dSnnas7wrxy8DFegFW36oYJv/lI06G+jfQFQHefGQUQh8VTXVr5LbQehYPEKXKFU1WloNb8r+LhQLf0ccOMgIqs2KeQbdSn8nrv5VSYWABWuvknHKsxfbZ0wGOsaEuDDAKLAKKB/Es/57xE1stF2GLKHl10CACxt1ks89X9mVJJBt73teOFUTPgDSVRConjNQL7EpX0EsACg7TSqZtpa9a6i0WlGg//ZiDmdOwhygiBRn+tQ6P82pZxrJosUbIehcOCllt5habMeBZh7Cgajg25bpPNpAHcQJOojgnuNkStGZWSt7SgULj2+yl76WG4cXExS1aFQcSHqi8oGo7rgppPSq0sRkuxY3uZfmfdxjW+QCrpt7iBItNeWQOTKupT803YQ6juXP5rdx7hyMKDDFBJTUeOIvCmCJTcen2royWt16/J66Zz8JLh6oQLnARi1hy9dB+A+cZzfzTo+8XJPglA4rVRNFVrNbzyDc40i0ON9nK6nASk+DSDqiS0Q+eGIJG4SEc92GNp7X5qTG+u6cgGgFwAYt4cv3QjgfgO99ZdT0k+92+vu8cra2ShuAPDRnsUFIHjE9+Rrv5qafK3H30uhs221QFFxaNDrhRKuoDrWOTxARLvlAfo78ZzvcHZ/ebji3+0jPONcB5VPocdP7OVZFf+/bzoh8+xuv2KXH1WVS+YVvi7Q7wN7daxsURRfnXVi6sa9eA0KkWXtenqxaH7rKQYF2a4DoCoBJDgmQPQOCjzuOnLF8KS8bjsL9Y1L52UvVpX/BdCv1y+iMOLo/wyal/rBzJlidv70O66m0+9Sd/iQ/M0KfK7Xjb6jFb0jnkh97vpjJNtnr0lWNbT63/NAm6HwAAAPjUlEQVQMvuUFPD8g4QqqYpwbQNRlgYh8c0RK/mE7CPURVZkxN3c1RL7Vh6/6cAzJc38xRZq2/+AOl9GZM9XZdHz+LgCf6MOGt7lv8BPJs3ZVhVA0qWqsvtVcWzS4VBWxoNoVAJmufQOIKtS6rnH+/ycivu0w1HdmzM39CsAXS/DST0o2efKsaZLf9oEdJnVtOj73PZSm8weAMzYen7+2RK9NFoiIN6HW/UrccUYkXHlYBIFMD1AA7R7QUlD4LCepsrQp9Ad+SsbXpeQWdv7lZcbc3BdRms4fAI7TdO4PUH37zuntf7l0bm6qKv4FKfFMb5WzZp+YvLekbZAVK1p0QkHN7UWDI4JqUwRIu9xFkMpeAdBbHc/57vAaect2GOp7lzxWOFwc8zRQ2mFVBWbcNCV1E9BVAEy/S92hQ/ILBZhQyobR2WJjoTU5/pbTpKPkbZEVKzv06KKnv8v7emBQbboCVMU79w8gKiOeQv8kcGbWpYX7rJSxGXNzTwE4tuQNCVq8fHH8zR+uecsBgKFDc+cG0vkDgKIuXpUv1SMOCoExGXnugFpnUsJ1PphwZHEQXbKvQEsBaCsAHBWgMmAguNuITB6Zdi9i51/eLpmXOxlBdP4AoKh14/GvAl1zAETlqkAa7iKCL28/DkHlaUKtPDmhnzMp6TinxASrgmgzbxRNOUXO4+mmFEkGgrtVZFJdyjl7VErqbQei0hNFsH2wo5/9zFxNyZefyB/oGF0UZOMAoGqOvunEzPNBt0v2LGvX072i/qKoum8Q7cUEqEoIuFiAIsBAcC9EvleXlCW2w1BwPj+3ZXACiQ0A3CDbVZXTHdfotCAb3cYR92Qb7ZI9+1fJ3yb2d/arjjunJBwsL3W/7CnQnNfOYQE+EKBw8gC9HY4cVJdyzmbnX3mSiH8YAXf+AOCInuwoMCXohgFARd9jo12yb0y1/GtCP3f/tOsclxC8WurFg3mjaCoosp4imIWKRO8qD+gfjcjkurR7fl1SFtsORHYoxEofbETe42DPh/uUju7xQAOqAONq5akJ/d3DEuIcFnP0+VLuI6AKdHhAU0FR4OMAsqcFqjd6RsbWpd0LOcZPsNQHi+q4GAQjbNwV/f/27j827ru+4/jr/bmz7+zmJ/nppIyENbSQMZgYo7Cy4RYGrShQsbAOtAoGo7R1OqZOdFsliJi2bpo2ttiDDm1DW1WQUgSlKZ2gP0zarS3VugUVj2Rp10RtELRJm9SOfee77+e9P+6clsitfbGdz52/z4d0UvxD931JUfJ93efX1+dyvjEWlXNX2g8knb9/3Dd69C/Ful+S+cIMiWUujU5KXcHV28X6AJwxP3X5TZOV8LebV4ZjM/868sJMfZ7mM8nyoqJWpzhBxRb4sAN0nnN77bCk9424LymNxb+qZ7oic/UuxLVqsbE+oBRMPV2NcwSAeWfa6247j5V1y1YLk6njoP24tDrRpcthwU/+A1q01WzsNUsLV71uReGssoVPdJkdWqj7czW6jlddJ2qcH4B5E911h5u9a0M5/NLGHvvKVjNu/piep7sHc/NHW9uywv7pvBVhU7kQLigGf8gWYBmfS6pkjfMDJjJXouE4dDrXMbnvlOzVG3vDpRvLdnfqSMDLOWNPcAPm4pxl9h+S3vqE+4raWLwxRvtILfrS+byGSxqvSRW5yl1ST7BpHpgNnML03+42ONmjr222UEkdB5gtCgA6ymazY5KuknTVgeP+kcz9j+ryre7zd6uOahYB85MPGgJO8bzk33IL/8onfXQqCgA61pbldoukW/5vzNdN1uOfR+k3M9ey+Xr/6I3HDlcyV09R6i7wxMHcMz0i2ZeLJX11rYWx1HGAuaAAoOO9eon9VNLHJX18/3G/RJb9ST3a+XGethJmLo3VpELdVWZEII+elfzrIYSh9SV7NHUYYL5QALConLvc7pR0p7uXHhuL12fRPlaPvmk+1vVlzRGBiawxNVAqmIwusFiNm/z2aOFrG0r6N7NQSx0ImG8UACxKZlaV9HlJnx8Z8/UljzfUom2L0dfNtQxMTQ2MN6cGyoEisEhkkoZNdnOxrG+usTCaOhCwkCgAWPS2LrGfSNouafuBY/7zXow3ZHVdmrlWz6UMuDcWC07I1VM0lYrsq+1AUdKDMrvVavpq31J7JnUg4EyhACBXtqywxyX9riQdHPXX1j1eX3NdUo9ac7rv6ZLG667xemNaoKcgFWgC7awiaVhmtxfrum1toyACuUMBQG5tWmo/kvRRSTow7mfXa/EPTHp/5tocT/N0rmrmqmaNHQPlgqsrMDfQJo7KdK+53dFd1m2rzJ5PHQhIjQIASNrSa09Juk7SdQfcSzam38ui/07d4xujW3er7zeZuSYzqRAaOwdKrBNIYZ+b7zYPt/eV9aCZZakDAe2EAgCcYktjAeFQ86X9x/1X5PGT0ezCLPqrvIWp/ixKJ6I0Yd4cFeDBQwvoaZn2SHa3ub7b12MHUwcC2hkFAJjBucvtYUkPS5K7hwPP62JXvCLKLsii9/ksDgyOLlXqrkpd6gqmcrExPUAXmJMxSQ+5293muruvV/9lZjzJAZglCgDQAjOLkr7dfMndux8f1W9n8ss86pcz+fqZDiCqRVdtUgrm6g7NUQEWDc7GIZM/6B6+b9ID63v0CMP6wOmjAABzYI3HvP5L8yVJeuI5f2MtxA9G87e7wnlZ5munGyWI3jhmuJJJRZNKRdYKvMgJSXvl/ohZeMSlPRt67FDqUMBiQgEA5tnmlbZX0t6pr9296/FRvTdTvFhub4jS5ihfGeML//7qLtVr0nhzVKBUcBXzM0VwUNKImf/QPYxkQT84u1sjfLoHFhYFAFhgZlaT9M3m66QD4352oa73ZIq/Fl2vj24/F82XTWZerGbNKYKCqRSkYudPEdQlHZZ0QOY/lIeR4Hq00KP/WWPGiXtAAhQAIJHm1sN/bL5OetK9Z2JMb7YY3xTdt1YyP0eZrSgGWalgy03qk9Ty1sQFNinpKTXm6Q9KOiSFJyQdculgX1mHzayeNCGAn0EBANrMK80mJN3XfE3rGfel9YpWKWqNF7RKrlUyrXKPq+RaFUyr3Kwg13I1ti12ybREkuRaIqlLL2xnjJJqMo01fz4mqSYpynTc3LPoOirTUbNwVM0/K9MRCzpSLOson+KBzkMBADpQ84Y7qsb8OQC0rPNnFgEAQMsoAAAA5BAFAACAHKIAAACQQxQAAAByiAIAAEAOUQAAAMghCgAAADlEAQAAIIcoAAAA5BAFAACAHKIAAACQQxQAAAByiAIAAEAOUQAAAMghCgAAADlEAQAAIIcoAAAA5BAFAACAHKIAAACQQxQAAAByiAIAAEAOUQAAAMghCgAAADlEAQAAIIcoAAAA5BAFAACAHKIAAACQQxQAAAByiAIAAEAOUQAAAMghCgAAADlEAQAAIIcoAAAA5BAFAACAHKIAAACQQykLgCW8NgAA7SDZvTBdATCt3LbLC8muDwBAQs174CtSXT9dAXB1r19beVuy6wMAkND61ZULJHWlun7SNQDu9lm5MxUAAMiVHTs8RLPPpcyQehHgOwe+V93JVAAAIC+27fLCkXdUB03qT5nDBoYrnjJA016Z7/QYHo7RJ1KHORNK3dnE4Z/0Pn3rhyxLnQUAzrQdu7z7+DItqRSrK1JnOVNCsJ6g+BY3u1bSG1LnaZcCkE+uKNPTkh2U4ncsFu5cdX/Xf+7YYTF1NACYT5/5d186MVm5zIPeLbe3SNokidHfhCgAbcalg+a6cbWV/nlHv9VT5wGAufj0fSf66lnhekmfkHRW6jx4Qeo1ADiFSZtk+ocjVh259p5xdkkA6FjbhytX1mNhn6TfFzf/tkMBaFeu18QQ9lwzXL2enRIAOsm2XV7YPlwZcukmuZalzoPpUQDaW9HkfzGwpzqUOggAzMZHh728bk11t0vXpM6Cl0cB6ASuqweGq0n3iwLAbCxVdVDSxalzYGYUgI7hOwburX4wdQoAeCnbhytXemOxHzoABaCTmA998i5fnjoGAJzqmnsmXuXSF1LnwOxRADrL+lJX9bOpQwDAqYKFP5XUkzoHZo8C0GHcdeXVw74kdQ4AmDLw3RMbPPhvpc6B1lAAOs9ZQZUPpA4BAFO8WLhcru7UOdAaCkBHsg+nTgAAJ5nemzoCWkcB6Exv43AgAO1g2y4vmPTm1DnQOgpAZ1o+cNd4X+oQALBm3cQGSaxL6kAUgA5lpa51qTMAQDErrk2dAacnSOJ59B3II4/RBJCeO/8XdagsyHQidQq0zt0nUmcAAAs+njoDTstYkPRU6hRoXS3r5u8NQHKFavePU2fAaXkyyDWSOgVadujL77LjqUMAwBfeY89KejJ1DrTKR4JJ96WOgVbZ/akTAMAUN7srdQa0yr4XpHibXDF1FLTAdVvqCAAwxTzenDoDWuCK9Rh3h8H+3qfc9O3UeTBLph+vPtK9O3UMAJgy9I7yHpcOps6B2THT7psu6j0cJMmC3SC2A3YEj/rrHR+yydQ5AOAkMw/un0sdA7OSRbcbpOZBQEO/XnrUZQzhtDmX9q85UhpKnQMATjXYX77ZpeHUOfDyTPrK319YGpFedBJgd7X7OkmPJUuFmdRCDFfw6R9AWzJzk10t6VjqKHhJB+rF0memvjhZABpbOexSSWwva0/XDl7U/XDqEADwUob6S/tM8WKZOByozbg06m6Xfent9tzU937mWQBD/aV9kn9A5s+e+Xh4CS7p00P95ZtSBwGAmQz29z5k0uUSp8y2Dzsa3C+dGvo/+d3pfvXq4co5wfQtuV53ZsJhWqbnLdrHBi8sfSN1FABoxcBw9TzJb5X0C6mz5JrpfwtR7/u7C8v7T/3RtE8D/GJ/+bHeYul8ud/IUE4ipts981/k5g+gEw31l/ZFld5q0l+K0YAzzzQu+Z9FL71pupt/41dm8Kl7xjd2hfDHLn1Y0sp5D4kXq0q6I8T4Nzsv6n0gdRgAmA+f+s7o2kJX1x+a6XJJr0ydZ5F7TtItqmU3Dv3GWS/7nIYZC8CU7Xd6yUuVX3ULF5jF15psjUsr5hw130YlHTNpfzT7fq3WfS9n/ANYzAb2VF+v6O922VaTn23y5S6bdjQaMzPpmMufcQ8/KoR4v4+XHxi8xKqpcwEAAAAAAAAAAAAAAAAAAAAAAAAAAAAAAAAAAAAAAAAAAAAAAAAAAAAAAAAAAAAAAAAAAAAAAAAAAAAAAAAAAAAAAAAAAAAAAAAAAAAAAAAAAAAAAAAAAAAAAAAAAAAAAAAAAAAAAAAAAAAAAAAAAAAAAAAAAAAAAAAA5sH/A3MfTv0Xg7xXAAAAAElFTkSuQmCC;fontFamily=Verdana;" vertex="1" parent="1">
          <mxGeometry x="133" y="403" width="40" height="40" as="geometry" />
        </mxCell>
        <mxCell id="HGETupCOhlLOczf1D24e-20" value="" style="shape=image;verticalLabelPosition=bottom;labelBackgroundColor=default;verticalAlign=top;aspect=fixed;imageAspect=0;image=data:image/png,iVBORw0KGgoAAAANSUhEUgAAAgAAAAIACAYAAAD0eNT6AAAABHNCSVQICAgIfAhkiAAAAAlwSFlzAAAOxAAADsQBlSsOGwAAABl0RVh0U29mdHdhcmUAd3d3Lmlua3NjYXBlLm9yZ5vuPBoAACAASURBVHic7d15mFxVnf/xz/dWL0lnX0gvIQsS1iSgJBJIL3YnTZIOBHEJrmTBEUb9ISZBUGfUOOqMuCE64yijkgR0xsmMG4KCQCJZEAguLCqLSkCyAIHsSS91v78/iI5Akq7uru5zb9X79Tx5nnniraoPk6o6nzr33HMlAAAAAAAAAAAAAAAAAAAAAAAAAAAAAAAAAAAAAAAAAAAAAAAAAAAAAAAAAAAAAAAAAAAAAAAAAAAAAAAAAAAAAAAAAAAAAAAAAAAAAAAAAAAAAAAAAAAAAAAAAAAAAAAAAAAAAAAkybrzoHfedVd1ZCUXmmmmy8aafFC+g6GguLu2m+lxN7/pwNChP1o9cWJb6FBAUsx/+OGy/jt3nm9u89w1wUyV6ub3M4qDy/aY/EmZ357NZlff2NCwtavP0aU32CWbNpW2Hmj9uMyWSKro6osBh/xB5pevrK29OXQQILQF6zaeZ6ZrJb0qdBak1n6ZfXFz28FPrG1q6sj1QTkXgPlr1gzsX1r+Q5NmdC8f8BKxpKtW1k3/fOggQCgLN9x9pdw/I37tIx9cd8T7B7z+htmn78vl8Ci3J3WrKCu/gcEfeRRJ+uzCdRvfFjoIEMKCDRveKferxeCPfDHNjAbsXyn3nN5TOR20cN3Gt8n0nZ4lAw5rp5dmJqyaNm1H6CBAX3n7unXDSi3zB0nDQmdB4THXhSvqp6/u7LjcZgBM/9jjRMDhDbX27PtChwD6Upmiy8Xgj17ipo/mclynBWDRxo0nSzq1x4mAI3DZG0NnAPqSG+959KrJC9bdc2JnB3U+AxDrjLzEAY7A5JMv2bSpNHQOoC/Mf/jhMkmTQudAYYuijk7H7k4LgMsq8xMHOKJoX0cH7zMUhbI9e0aJhX/oZe5RdWfHdF4APC7LTxzgyMrb23mfoSjwXkdfyGXszm0RIAAAKCgUAAAAihAFAACAIkQBAACgCFEAAAAoQhQAAACKEAUAAIAiRAEAAKAIUQAAAChCFAAAAIoQBQAAgCJEAQAAoAhRAAAAKEIUAAAAihAFAACAIkQBQCK0x2UeOgPQF3ivIykoAEiE0kz7c6EzAH0hLvcdoTMAEgUAyfDst+rq9oQOAfSFb5911m5JlAAERwFAAvjNoRMAfclNt4TOAFAAEJrHHn0tdAigb/m/h04AUAAQlJtuvKH+7HtC5wD60qra2rtd+k7oHChuFACEdH+/8rK/Dx0CCMH3DbhE0v2hc6B4UQAQiP3v/vbWxuumTt0fOgkQwg2zT9+XUdzk0vdCZ0FxKgkdAEWlTdKdMr9mZe3020KHAUI7dPXLmy7auHF2JqslbmqSVBY6F4pD2gtAVq61Mv1Usifd9XzoQHilTBTHsfv2eN+gJ26Yffq+0HmApLlh+vRbJd06f82agRWlpeMis8psHDFDm0BmGm7ycbE0x6TXScqEztRdaS4AN2UUf/Bb9XWPhA4CAPmwuqlpr6SHD/1Bsn1u0caNJ7vrc3KdFzpMd6SzALh/dGXd9E/LjC01AQBBrJg+/fdyP3/hhrs/KukTofN0VfqmmMy+sLK+9lMM/gCA4Mx8Zd30f5L0pdBRuipVBcClRza3HfxQ6BwAAPytze2tH5Trd6FzdEWqCkAk/dPapqaO0DkAAPhba5uaOjzyfw6doyvSVABaI8U3hQ4BAMDhHGhr+4Gkg6Fz5CpNBeBB7hgHAEiq1U1Ne2X6begcuUpPATBtCx0BAIBObAkdIFfpKQDSgdABAADoRGrGqjQVAAAAkCcUAAAAihAFAACAIkQBAACgCFEAAAAoQhQAAACKEAUAAIAilM7bAQN4ifc2Ng7sX9E2QhaNVNZGxpGNiNxHuLzCZYNNljHzKHYbIkmRvNzNKiTJ3PfHslZJisx3uVssqUOK95hsf2y2I4p9R9b1rJf5c6WtFTs+f9tt+wL+5wLIAwoAkHCXtbSUl9qece7R+EjxeHcbr0jjzTXeZWMlHyFl+7lnJJdkkrnrxftlm0yS5HKX7NDfuiT5//3ff/17/+v/+te/NXe5SZFJ6jDFmQNa2lJ/ULIdJn/STU8o1hMy/ckseiKK/ImD2QFPfuUnP2ntk/8HAegWCgCQEJdMmVI6uGrQSZ7tmBxHOs3cTpM0Sdo7Rm5mcrlMMkmuvx3KQ+gn+WiXRst19qGWIfdY2axUqr3x0pb6P7vpQckfVGy/kccPDmktfWT52rXc0RNIAAoAEMDyxsaSneXZ0zKRamPXayOzyS4/NY6zZTKTBRvX8yaSNNZcYyU7VybJIu3un21b2lL/sGQPmnyTy9Y/NbDygdWrV2dDBwaKDQUA6APvbWwc2L9fx6vdVCtZ3W5l6yJpqEsykzzcL/m+VibpNZK/xqUFkmvM3m37lrbU/1qy9a54Q3mk9Z+5ef0LoYMChY4CAPSC5Y2NJXsq4umx4hZzmy1lT3NZJnSuhBogqVbyWpOpLVZ2aUv9b1z6qeLop0Na7W5OGwD5RwEA8uSKWdNHxVH0OpfN223ZeXIN/csSPHRJRtIZJp2hKP7I7v7at7Slfo3Jb/Js9JMv3nbXU6EDAoWAAgD0wLJZjSfHmeyFkt4US6dJYsjPvwGSznPZecq4ls6t/41c/5v1+L+v/emGR0KHA9KKAgB00bK508dJJRe4+3xXtpYBv4+5Tpd0esaif1raUv9bma2W4u988Zb1j4aOBqQJBQDIwZXn1NZkS6J3uvQWd50R8PI7vNSpcv+4ZB9f2tKwSdJ349i//aVb120NHQxIOgoAcATLlyvadXfdDMtEl3S4XyCpNHQmHI1PlTQ1inT1srn1d3rs1w0+WPJ9FhACh0cBAF5myXlnj7Zs5p2777H3WKRxf9kxD6kRuatZZs27+2e3LG1puCHK6uufv+2uP4UOBiQJBQB4kS2ZWzfbYrtcWc0SN8oqFDWSXxVn9MElLQ23Ru7XfuGn624T53AACgCK2/L5E8t27x32VkkflNsklvAXrMjkLW5qWdpS/6iZfXXQ/ujry9euPRg6GBAKBQBF6arm5iEdZW2Ldu31K0w6NnQe9KkT3f1Lu/t3fHjp3IavtbaWfuXf7rhjR+hQQF+jAKCovHh+v+SqdrVeLNcAfvAXM6uU+8fLy9qWLWmp+6bHdjVXD6CYUABQFJbNaxzpHfEVyvr7JfUPnQeJMtBkl1uk9yxpaVhRYtHHP3fL2m2hQwG9jQKAgva+mTNHlJe3X+Yd2SWSBofOg0QrM/klWc++Y+nchm9GHR2f/vxtG58JHQroLRQAFKSrmpuHtJe2LpPaPiDXoNB5kCoD5P7+OJNZuHRO3TXt1n7NV35yz+7QoYB841InFJTlyxUtbalb0F568BFJH5UY/NFtQ2S2vExlf1w2t+Hy+fPnczdHFBQKAArG0nNf17T73vpfSrZSssrQeVAYXBrh7l8as3fbg8vm1M8OnQfIF04BIPWWzmoY45F/WnF8UegsKGinuOmnS1vqf+yRX37Nzev/GDoQ0BMUAKTWJfOmVAzI9v+o3JeYVB46D4rGeRZb89KWhi/4wPZPX7P67gOhAwHdwSkApNKyuQ0NgzoqfmluHxKDP/peP8n/wfaWPLRkdl1z6DBAdzADgFT5wAWNQ601vtrd3y2xcS+Ce5VFdtuSOfU3trWXLWFHQaQJMwBIjSUtdfOi1vghk18iBn8kh5npovKytoeWttQtCB0GyBUzAEi8y8+fVplpK/u6pNdzEzckWJVkK5e2NFwQZTv+nk2EkHTMACDRlrQ0zMq0l/1KpteHzgLkxt8QZzIPLWmpmxc6CXA0zAAgkZY3NvbbXRFfLffLxHQ/0ucYk/1wSUvDf+wr2bfkupvu3x86EPByzAAgca44t3HSrv7Ze+T+fjH4I73M5JcM7KjYtLSl4TWhwwAvRwFAktjSloYr4jh7v0mnhQ4D5Mkpkt+9bE79ElFokSCcAkAiXHl+7aD2Dlsh9zeGzgL0gnI3fXFpS/2MuDxz0Zd+sHZn6EAAMwAIbtmsxpM72qN7zI3BH4XuPGvN3nvFuY2TQgcBKAAIasmc+rd6JrtJ0imhswB9waQT4jh795K5DReGzoLixikABLG8sbFkd//4U5JfKc6LovgMNPfvLmlpmLnvmX3/77r7728PHQjFhxkA9Lkls88evqt/9meSXyUGfxQxk18yYFTFTz90bt2w0FlQfCgA6FNLzq17lWUyG0xqDJ0FSAKTZrTFdu8Hz2s4IXQWFBcKAPrMFXPrpllsd8vt5NBZgISZEGf97g+01NeGDoLiQQFAn1g2p+GNsdudkkaFzgIkkUsjIun2pS0NbwmdBcWBAoBet2xuw+VuvlpSRegsQML1k/w/l85tWB46CAofBQC9yZbObbjW3b8k3mtArkzuH1/WUvd5sUgWvYjLANEr5s+fnxmzb+vX5f6u0FmANHLZsqUt9YMHT1v398uXKw6dB4WHX2XIu/nz52fG7N3+Lbkx+AM98+7d99bfeMmUKaWhg6DwUACQV8vnTyw7dt/W/5Z8QegsQEFwvW3QqAH/u7yxsV/oKCgsFADkzSXzplTs3jv8R+zpD+SXy+ft7pf9/pL5Z/cPnQWFgwKAvLhk3pSKAR0VN0uaHToLUJBMc2xP5mZKAPKFAoAeWz5/YtnAjorV7O4H9DKzJtub+eFlLS3loaMg/SgA6JH58+dndu8bcaOkuaGzAMXBzinV3v9a3tjIVVzoEQoAum35ckVj9m5dJff5obMAReaC3RXZ65cv5zsc3cebB91lu++t+6pkbw8dBChKrnfuuaf+G2KzIHQTBQDdsqSl7hq5XRo6B1DMXFq8rKXuc6FzIJ0oAOiyJS0Ny0x2eegcAA7tGDin7v2hcyB9KADokqVz684z+dWhcwD4G2bXLGupvyB0DKQLBQA5WzK3dqrc/ktSJnQWAC8RufSdpS21Z4UOgvSgACAnV8xqOM7cfixpQOgsAA6rvxR9f9nc6eNCB0E6UADQqauam4fEmfhHklWGzgLgqKrcMz/50Ll1w0IHQfJRAHBU8+fPz7SXtv6vZJNCZwGQk1PaYvuv+fPnc6oOR0UBwFGN2bvtM5Jmhs4BoEtmHbt32z+FDoFkowDgiA6tKl4WOgeArjPpw0vn1r8pdA4kFwUAh3X5nNqTXFopdhkD0srkuv4D5zacEjoIkokCgFe48vzaQRmLvidpcOgsAHpkUCb271/WMo3PMl6BAoCXs/b26FuSTg0dBEDPuXRSqcpXiNk8vAwFAC+xtKX+cpPeHDoHgHzyNyxtqf/70CmQLBQA/NWS2bUTJf1z6BwAesUXl8xtmBw6BJKDAgBJ0mUtLeWKou9I6h86C4Be0c88/s7yxsZ+oYMgGSgAkCSV2r7PmnRa6BwAepNN2t0/+8nQKZAMFABoSUvDLLlfFjoHgD6xbFlLbUvoEAiPAlDkls1rHGnyFWKFMFAszBV9Y9m8xpGhgyAsCkCR82z8VUnVoXMA6FM16sh+JXQIhEUBKGJXzK4/V+7zQ+cA0PdceuvSOQ3nh86BcCgAReqylmmDs5G+FjoHgIDM//2q5uYhoWMgDApAkSq10s+adGzoHACCqmkvbeWqgCJFAShCy+Y2NMjtktA5ACTC+z7QUl8bOgT6HgWgyFzW0lLu7l8Tq/4BvCiKzL/BBkHFhwJQZEpt34clcXtQAP/H7eTd/TuWhY6BvkUBKCJXtjQeK/cPhs4BIInsI5fPqxsbOgX6DgWgiHQo+3lJFaFzAEikiqjdPhU6BPoOBaBIfGDO686WdGHoHACSy0zvXDanri50DvQNCkARWL5cUWTxtWLhH4Cjs9js8+K7oihQAIrArnvrFkp6begcAJLPpGlL59S/I3QO9D4KQIF7b2PjQHP7dOgcAFLE7DOXzJvCeqECRwEocP37Z98vbvYDoEt89ID2iveFToHeRQEoYFc1Nw9xiWt7AXRZZLrqyvNrB4XOgd5DAShg7WVtSyQND50DQPq4NKKj3d4fOgd6DwWgQH3ggsahcr88dA4AaWZXfOjcumGhU6B3UAAKlLV1XCVpaOgcAFJtaHtsHwgdAr2DAlCAls1rHGluLOAB0GMuLb2spf6Y0DmQfxSAAuQd2Q9KYvEOgHwYWCIxC1CAKAAF5tCq3UtD5wBQOEx6z3sbGweGzoH8ogAUmI4Oe7ekIaFzACgow/r167g4dAjkFwWggCxvbCyRc9kOgF5gtmR5Y2NJ6BjIHwpAAdnTr2O+pHGhcwAoSON39+t4Q+gQyB8KQAHxiMt1APQisw+GjoD8oQAUiCvm1DXKdWboHAAK2muXzH5dfegQyI9OC4BFOtAXQTrj0sHQGZIsG+my0BkAFIEoZp3RUSRlrMpl7O68AMS2NT9xesj1dOgISXX5+dMqzW1e6BwACp9J518xa/qo0DmSymJPxJjp0pbOjum0AMQZbXzxucKK3DaGzpBUJW3liyWVhs4BoCiUxZmSBaFDJJW53R06gyTPZjK/6OygTgvAqunTn5bU6RP1shf2Zfz2wBmSymJzrs8F0If83ZIsdIokKqsou03SzrApfMO3zzrrz50dldMiQHf7WM8D9cg/r54+PRFrEZLmipaGJpNOCJ0DQFE5cdncBhYDHsZ1U6fuN+nqkBlcntOYnVMBWFV/9u0u/0rPInXbuv3Dhnw50Gsnnr/YxAGgT/Hdc2Rl/cq+INmaQC9/zaq6upxeO+fLAJ9sb1vqpm91P1O33FUS6YLVEye29fHrpsL7Zs4c4dIFoXMAKEKuN3/o3LphoWMk0XVTp7Z7aTRf0ro+fulvbm5vvTLXg3MuAGubmjpW1U5/l1wL5er03EIP7ZH7R8v7lTV/c/r053v5tVKrvLz9rZL6hc4BoCj1a8tGF4YOkVSrpk3bsX/YkGaTPiZpT+++mj9l7gtW1k3/u7VNTR25Pqpbizguu+WW8t1DhjTLbaZL40wa3J3neZkDkv/ZZOvV3nrLiqamwIsokm9pS/06SXWhcyBd+vcv14ABFerXr0zu0sGDrdq7d79aW5loQxe5r/niT9fPCB0j6RatWTPUS/udK8W1kh0rqX9Pn9Ol3SZtNsW3D9q9+46vzJ3b2tXnYBVnSn1gdn11FOnPYjdHdCKTiXTcccfq5JNepeqaURo6ZNArjnF3vfDCbj399Hb9/vd/0ObNW+Xhr/5F8sUlHfGYz/5sQ6fXnCN5uLNTSkWR3iIGfxxFpiSjM159is488zRVVBz9B4eZafjwIRo+fIgmTz5Re/bs08Zf/FoPPfio4jjuo8RIoai9JHqjpH8NHQRdRwFILXtLAvZnQgKZmU455XjV10/R4EEDu/UcgwYN0OxzavXaKZP087vu0+OPb85zShQKM79QFIBU4hRACi2d1TBGGd8s/v3wMjU1o9TYOE2ja/K7U+uWLc9o7dp79PSWZ/L6vCgIni3x8dfetP7J0EHQNcwApFFGbxGDP/7GsGFDVF83RSeddFyvPH9NzSi97W3n6dFHn9DP77pPu3b18qJmpIllOuyNkr4UOgi6hgKQRu5vYPiHJPXrV64zz5ys106dpCjK9OprmZlOOuk4nXDCWP3qV7/Xho33q7W1vVdfEylhTgFIIYaRlPnQuXXD2mJ7VlLvftsj0aIoo9e8+mTV1p6h8vKyIBkOHGjVffc9qPs2PaQ4zgbJgMToiMszx3zpB2u5fDtFmAFImdaszTZj8C9WJtPJp7xKDfVTNXhw9xb45Uv//uVqaJiqSZNO0F133afHWChYzEoyrdlmSf8TOghyRwFIGTNrYfV/8TGZjj9+jGprz9CoUSNCx3mJ4cOH6IILmvXss8/r7l/8Wo8++oTceY8WGzefIwpAqlAA0sUkPyd0CPQdk+nEk8arbvoUDR8xJHScozrmmOE6f94MPffcC7r3vgf1u98+rpgiUDzc5urF08r8o6cEawBS5AOz68+IIt0fOgd6XyYT6eSTj9fZZ52uYcOSPfAfyY4dO3XPvQ9QBIpI5Dr98z9d90DoHMgNMwApEkXeQmcrbP838L9aw4bl4xYb4YwYMVRzWxo0ffprdM+9D7CrYBFw0xxJFICUoACkiWk2k2uFqaSkRJMnnaBp007XoEEDQsfJq6FDBmn2ObU6c+pk3XPPb/Twb//AVQMFyt3nSPps6BzIDT8nU+KylpbyUu3dKW7/W1AGDqzQ6aedpNe85lT1718c/7T79h/QQw89ql/+6nfau2df6DjIrwODBz4/dPnqh7m1ZAowA5ASpdG+KYoZ/AtFZeVITZ0yUSef/CpFUXHd02lARX9NO/N0vXbqJD322JO6/5cP6+mnt4eOhfzov2v38FdLujd0EHSOApASnvVaY74m1TKZSBMmjNPUKZNUk+e9+tMoijI66aTjdNJJx2n79uf06wce0cMPP6ZsB6cH0iwy1YoCkAoUgJQwqTZ0BnTPX6b5X/3qU1VRwSTO4VRWjtTsc0aqrvYMTg+knL9YAK4JnQOdowCkg8l0dugQyF0mE+m48cdq0sQTdfyEMUU3zd9dfzk9MHXKZD366J/00G8f15NPPM1lhKnidaETIDdMKqfA0rl1J8rtkdA50LmRI4fp1FOP16RJJ2pARf/QcQrC3r379cgjf9JDDz+mZ57ZEToOcpBRdsLnfrLxD6Fz4OiYAUgBl2ppasnVr1+5TjzpOL36tJNVWZmsbXoLwcCBFZoyZaKmTJmoHTt26uGHH9eDDz2q/fsPhI6GI8gqqpVEAUg4CkAKWKwpzNUky1+m+E89dYImTBinTIYp/r4wYsRQNTRMVV39FD355BY98MAjeuyxJ9lXIGksmiJpVegYODoKQBpEOo0NgMIrKSnRceNH6/gJY3XihHEq71ceOlLRisw0ftxojR83WgcOHNRjj2/WY49v1ubNW7iKIAHc/bTQGdA5CkDymdwmhw5RrMr7lWv8uBpNOH6sJkwYp7Ky0tCR8DL9+/fTaZNP0mmTT1J7R4eefHKLHnnkCT3++Ga1trIfTQgmUQBSgInlhFs2d/o498wToXMUk8GDBmr8q47VhOPHaPy4Y5neT6nYXVu3PKNHHvmTHnnsCS4r7GOe6Tj2mh/f/XToHDgyZgASLvboNFpa74qiSFVVIzV+3GhNmDCOhXwFIjLT6NGVGj26Uk1N07R9+w499thmPbH5z3pm+w4uLexlUTY6TRIFIMEoAAnHVFrvGDpkkMaOH63xY2s0flwN5/MLnJmpqmqkqqpGqr5+itra2rVl6zN6cvNWPbH5aT2zfYechTZ5Fk2W9JPQKXBkFIDE4/x/PvxlwB8zulJjx9Zo4MCK0JEQUFlZ6V8XETZoqvbvP6inntqqp5/erj8/vV3btz8XOmLquYnvroSjACSeT2SpRtdkSjKqHDVCVZUjVV19DAM+OlVR0e+v9yWQpD179mnzk1u0deuz2rbtWT377PPKZuPAKdPF3CaFzoCjowAkm0n2qtAhkiyKIg0fPkSVlSNfHPSrRqqq6hgW7qFHBg0aoEkTT9CkiSdIkuI41gsv7Nb27c9p27bntG37Dm3b9gyl4ChcfnzoDDg6flom2OXnT6vMtJdtC50jKcrLyzR8+BCNHDns0GB/jEaNGsFgjyCyHVltf2aHtm1/Ttu3P6fnntupF57fpdY2Lj38C487Rlxz693Ph86Bw2MGIMFKO0rHF9vviyiKNHjQAA0dOliDhw7SyOFDNWLkUA0dOlhDBg+UcU9kJESmJKOamlGvuLVz68FW7dy1Rzt27NRzz+3Uzl27tXPnHj2344Wi26QoKskcJ4kCkFAUgATLxnZcIY93gwcPVGXVCFWNGqkRI4dpxPChGjJkEL/okWrl/cpV2a9clZUjX/L32WysXbv2aMfzO/Xss89ry5ZntWXL9sLerCi24yTdHzoGDo8CkGCRbHyhXZo0umaUTjhhvCZMGKdhwwaHjgP0mUzmxfUqw4cP0QkTxkmSXK7t23bokUf/qEce+ZN27dobOGV+uWx84Ag4CgpAgnkUj5enfwqgpKREp556vM44Y6KOGTksdBwgMUz/tz/B6xrO1JNPbdV9mx7Un/74Z3kBbFRkpuNCZ8CRUQCSzG186Ag9YTJNmnyC6mqncBkekIOxY6o1dky1duzYqXUbNumxRzeHjtQj7j4+dAYcGQUg2Y4NHaC7qqpGavaseo0aNTx0FCB1RowYqgvOb9aTT23VnXfcrWefeyF0pO4aEzoAjozVVsl2TOgAXRVFkaadebre8fbzGPyBHho7ploLFlyg2umvUZTOFcEjOz8EoTADkFwmKVUjaEVFP73+/GYde2xl6ChAwYiiSNOnn6Fjj63Wzbes1d69+0NH6oqRevG7LP0LGgpQKitlMfjQuXXD2mJLzfWzI0cO0xvfcI6GDBkUOgpQsPbu3a///d6teuaZ1Hw1qF1tQ77yk3t2h86BV+IUQEK1dpSk5p60lZUj9fa3nsvgD/SygQMr9NYL56Zqlq08W56a77JiQwFIKIvaU3HubNSoEZr/5jncThfoI+X9yvXmN8/R6NHpKAEeWSq+y4oRBSChojhKfGseNnSw3nJhi/r3Z/AH+lJpSYnecME5GjFiaOgonYqjbOK/y4oVBSChspbs1lzer1xvfOMs9eOXPxBE//7levObZif+M2hxsr/LihkFIKEs0sDQGY7EZDp/XpOGDx8SOgpQ1AYPHqiWloZE3yTLE/xdVuwoAIkVJ7bWnzltssaPGx06BgBJE44fqzOmTAwd44giWWK/y4odBSChLI7KQmc4nMrKkaqrPSN0DAB/43X1r03seoA49kR+l4ECkFixJe9DE0WRWubUK4oyoaMA+BuZTKQ5s+sTulsgMwBJRQFIKJMlrgBMOeNUHXNMqjYnBIpGTc0onXbaSaFjvIIl8McMXkQBSKikfWgGDqzQ9OlM/QNJVlt7hsrLEvXVIUnMACQUBSChPGHTZtOmna6ystLQMQAcRUVFf02bdnroGC+XuEaCJAI9aAAAG7dJREFUF1EAEso8OTMAAwcN0OmTkze1COCVpkw5VRUV/UPH+CuT+oXOgMOjACRULEvMv820M09TpoSFf0AalJSUaMoZp4aO8VdJ+i7DS/EPg6MqLyvTpIknhI4BoAte85pTOWWHTlEAcFSnTpzAFwmQMuXlZTr1lONDx0DCUQBwVKcn8LIiAJ2bPPnE0BGQcBQAHNGIEUO57h9IqaqqYzRqFJ9fHBkFAEd08knHhY4AoAdOOpHPMI6MAoAjOoEvDyDVjp8wLnQEJBgFAIc1cGCFjhk5LHQMAD1wzMhhGjpkUOgYSCgKAA5r7Jiq0BEA5MHYsdWhIyChKAA4rDHH8qUBFIKa0ZWhIyChKAA4rOqaUaEjAMiDY0czm4fDowDgFTKZSCNGDAkdA0AeDB06iM28cFgUALzC8GFDFEXs/Q8UAjPTsGEUerwSBQCvMGIEq/+BQjJixNDQEZBAFAC8wuAhA0JHAJBHgwcPDB0BCUQBwCsMHEABAArJgIr+oSMggSgAeIUBAytCRwCQRxUDKAB4Jcvnk7lkG89bcFYkzZI0zeUnmdkIuViBAgBArky7JD0n1yNufk+kzG3Tblpxj0mev5fIg/XnXzyoxLOXuvt7JbGBPAAAeebyP0aurx6oOPj1ptWr9/b0+XpUAFyye85buMjlV0s6pqdhAABAp56R68qzbl61qiczAt0uABtnv2u4lbZfL+n87j4HAADoHpP94ECJLW76wYqd3Xt8N6w//+KajHf8VK7J3Xk8AADIi99lMpnZZ/7w+qe6+sAuF4C7WhYfU5rJrpd0YlcfCwAA8sz0h0w2qjvzlhXbuvKwLl0G+PD8+WWlmeyPxeAPAEAyuI6Po/h7m6Zc0qWbPnSpAOza3//Tks7sUjAAANCrXDq7vebgJ7vymJxPAdxz3jtPjxVtklTS5WQAAKC3dcTur6m9+YaHcjk45xmAWNGnxOAPAEBSlZjsU7kenNMMwN3nXnSKzB7O9XgAABCEu0WnTr9pxe87OzC3GYDIForBHwCApDNTfFEuB+ZWAFyv71EcAADQNzy3Dfo6/VX/i/PfVulx6dZcjgUAAMF5ezZT2fCT65892kGdzgCYl0wUgz8AAGlhJSUdp3Z2UKcFIMvd/QAASJXIo1d1ekxnB5iiwfmJAwAA+oZ3OnZ3aSdAAACQfG7W6fjeeQHweG9e0gAAgD7hind3dkynBcBdT+YnDgAA6AsW2+bOjum0AJSUlPw2P3EAAEBfcNPvOjum0wJw5g+vf0quJ/KSCAAA9LbHp/941dOdHZTbIkDTj3scBwAA9DqXbs7luJwKQGzRqp7FAQAAfSFyuyGn43I5qPamFfe5bF3PIgEAgF5lWnPWzSvvz+XQnPcByHj2HyR5t0MBAIDe5DL7aK4H51wApt184zq5rexeJgAA0KvcvnX2j1ZuyPXwLu0EmM1k3i/p0S6HAgAAven3Byv2f6ArD+jyXf42tCw8Pspog+SVXX0sAADIu+eiWLXTblnVpR/oXb4XQO1PVv4hUna2m7Z29bEAACCvtlikmV0d/KVu3gxo2o9v/I1loumS39edxwMAgB4y3ZM1nX3Wj1Y90J2Hd/tugGf/YMUTg/sfrJP0CUkHu/s8AACgSw64+ccH9zvQUHfTqm7fr6fLawAOZ/28BWMjtytNvlDSwHw8JwAAeIk9klZmMpnPnvnD65/q6ZPlpQD8xW9mXTRgX3l0vrmfI7dpMp8gqSyfrwEAQJFok9vjZv4Luf+sJOr/o6k3Xbc/X0+e1wLwcmsaG0vKy48fXFriQ3vzdQrRqLe/5uNR/9IFoXMAQE/EB9pXPfOdX30idI60ae+wna2tf9jdtHZtR2+9Rq8WAHTf1jtXXC3XlaFzAEBPuOwzNTMXfjh0DrxStxcBopfF2hc6AgD0nO8NnQCHRwFIKJdtD50BAHrOnwmdAIdHAUioyLKPhc4AAD1llmH7+ISiACRUR1TGhwZA6pWUGN9lCUUBSKjRje94WtKzoXMAQA9sH1n/zm2hQ+DwKAAJZWYu112hcwBAt5mvNTMPHQOHRwFIMDP/eegMANBd7lobOgOOjAKQZB2ZH0uiPQNIo1hx5pbQIXBkFIAEq5q94E8ybQidAwC6ztfVnLOg2zeqQe+jACScx3Zj6AwA0FUufTt0BhwdBSDhoqzdKOm50DkAoAt2lEQD/jN0CBwdBSDhqmYv2CfTV0PnAICcmV87qulCtgBOOApACmRj+7Kk3aFzAEBnTNrZVlr2r6FzoHMUgBQ4tnnhDnfjdpoAUsA/Nq7+HS+EToHOUQBSojoz9suSHgidAwCO4uHKaPy/hw6B3FAAUsKamjrMoksktYfOAgCH0SbZxdbU1BE6CHJDAUiRqhkL7pHrH0PnAICXc7cPV89ceG/oHMidhQ6ArnF323bnyh9JOi90FgA45EdVMxZewL7/6cIMQMqYmfv+1re4bGPoLAAg6V7riN7O4J8+zACk1JY13xlpcds6SSeHzgKgaP3eo7L6mqa3s1lZCjEDkFI1TW9/LvL2Rkn3h84CoCjdbx3R6xj804sZgJR7dv03B7W3Zb5nrubQWQAUB5Nuy5Rn33xM3bv2hM6C7mMGIOWOqXvXnmob1yL5JyTFofMAKGjuri9XDmk9j8E//ZgBKCDbb7/+HDe73qXRobMAKDh/jtwWVzYvvD10EOQHMwAFpLJ58c/i/a0nHpoNaA2dB0BBaHfXl0vKs6cy+BcWZgAK1NN3fvOkKM58RKa3SSoNnQdA6rRL+nYm6/88atbix0KHQf5RAArclju+Mc4s8365vV1SVeg8ABLOtVWR/6d79ss1M/9uc+g46D0UgCLh//3fma0jDzZHyr7B3ZoknRg6E4CksEfM4rWx2/eqd1TcYRdemA2dCL2PAlCknr3tmzXtUXSmyU70SCdGrjGxbKCkASY/VZw2AApJu8t+K2lfJN8bm56yWI+6/NHSOL73mFnv2hI6IPoeBQCvsOWOlRtMPj10DgD5YdKGqpmL6kLnQLJwFQAOw38bOgGAPHI9HDoCkocCgFcyUQCAQhJRAPBKJd150KI1a/qppN85inymu8ZKGpSHLAdM2hKbr++I45u/U1//Qh6eE93BrwWg0PCZDujt69YNK1N0nsxqXaqR1D8PT7vHTE/GsW6POlpvX9HUdLCrT9DlNQCL1m282E2f1Iv/Eb1lr5t9/sDQwf+yeuLEtl58HRzGn9fceGwm7ngqdA4A+ZGJvHpU0+JtoXMUm8tuuaV89+ChH5G0VNLAXnypp2X+0ZW1tdd35UE5F4DGNWtKxpeWf8OlhV3P1l2+3ktLLlg1bdqOvntNSNLWO1bslDQkdA4APfZ89cxFI0KHKDZvW7NpZFlp2w8k1fbdq/qKze1t717b1NSRy9E5rwEYX9bv2r4d/CXJ6qy94wfzH364rG9fF3L9LnQEAHnxUOgAxeaSTZtKy0rbVqtPB39JskXjSvp9IdejcyoAF23cONvd39v9UD1hdRU7d38gzGsXL2fREFAo+Cz3sdbW9islNQZ5cfP3L1h3d063h8+pAESxLe9RoJ5y//AlmzZVBM1QbGLjSgCgELCot09ddOtvBsj9g2FT+CdyOarTArBg/fqxkk/reaAeGXqwtfWcwBmKTEwBAAqBOwWgD2UG7J+twOunzHT24p/fO6az4zotAJFH05SAHQMjRWeHzlBMPMuXBlAQyvks9yX3OPQPZkmybEl7pzk6LQAeeXV+8vRMLO/Nyw7xMjWzFv9Z0q7QOQD0yHPVDRc/GzpEMfHIEjFmWg6X6ndeAOK8bFjQYyb1C52hmJiZS/770DkA9IBxBUBfS8pYlcvYzVbAOAoWAgIpx/Q/jogCgKOhAABpxhUAOAoKAI7C+PIAUszdOQWAI6IA4Ihc7cwAAGmWKWdHTxwRBQBHVD3jXU9K2hM6B4Bu2VbT9PbnQodAclEAcEQvXgnAPQGAlOIUHo6KAoDOcBoASCFnASA6QQHA0ZlTAIA04oZe6AQFAJ1gLwAgjZxTAOgEBQBHZ+wjDqRR3NbB+h0cFQUAR1XVuGizpL2hcwDInUlPj5nzd8+HzoFkowDgqMzM5eKeAEC6MHOHTlEA0LmI0wBAyvCZRacoAOicR5xLBNKESwCRAwoAOmV8mQDpkmHWDp2jAKBTpiyXAgLp4WUdbczaoVMUAHRq1Ponn5C0L3QOADkw/Xn4OZfuCh0DyUcBQKds+fJY4koAICWY/kdOKADIETsCAqnAmh3kiAKA3Lg/FDoCgFzwWUVuKADISST/VegMADoXefTL0BmQDhQA5KRdfKkAKdA6auhBrgBATigAyMmxzQt3SPpz6BwAjuohm3ppe+gQSAcKALrA7g2dAMCRmfmm0BmQHhQA5Mxcd4XOAOCo+IwiZxQA5KwjE/88dAYAR5Zt93WhMyA9KADI2eifb35A0guhcwA4rD+Onn3xU6FDID0oAMjZizsC2u2hcwA4rFtDB0C6UADQJa74ptAZAByG6ebQEZAuFAB0SbY9e7OkjtA5ALzEAd/XuiZ0CKQLBQBdMmbO3z0v0y9C5wDwErfXzLt0f+gQSBcKALrO7buhIwD4P+7iM4kuowCg60qz35XEbmNAMuwvyVT8MHQIpA8FAF1W3XDxs3LdFjoHAMllPxjVdOHe0DmQPhQAdE+kVaEjAJBMujF0BqQTBQDdUjW49fuStoTOARS5P1at+xPX/6NbKADoFpt6abvcvhk6B1DUzL/24gZdQNdRANBtJXHH18RiQCCUVpX4itAhkF4UAHTbMbPetcWl/wmdAyhG5lpZ3XDxs6FzIL0oAOiRjNtnJHnoHECRyUaxfz50CKQbBQA9Utm88AGJPciBPrZ61KzFj4UOgXSjAKDHzKJPiVkAoK/Ekdu/hA6B9KMAoMeqZiy4x6QfhM4BFAOTvnNo5g3oEQoA8iJr2Q+LuwQCva3NpOWhQ6AwUACQF6NnvOsRk10fOgdQyNz1tcqZi/4QOgcKAwUA+dNh/yjphdAxgAK1Q5myT4YOgcJBAUDeVM1e8IxcHw2dAyhE5rqqpuntz4XOgcJBAUBeVa1/4t8l3Rs6B1BQXJsq1z/BKTbkFQUAeWXLl8dueq9YEAjkS1s24+9mz3/kGwUAeVczY9H9Mv1z6BxAIXDpk8c2Lf516BwoPBQA9IoqG/dJuTaFzgGk3C+rh7ReHToEChMFAL3Cmpo6zP1iSQdCZwFSar88vsimXsodN9ErKADoNVXnLH7Q5ZeHzgGkk7+vuvni34ZOgcJFAUCvqpm5+D/kWhU6B5Ay11fPXLwidAgUNgoAel0mU/E+SQ+HzgGkxAO+v/X/hQ6BwkcBQK8b1XThXkV+nqRnQmcBEu65SHpjzbxL94cOgsJHAUCfqG5a/ERseqOk1tBZgIRqk0VvZq9/9BUKAPrM6BmLNsh0iSQPnQVIGHfXxdUzFvw8dBAUDwoA+lT1jEWrjCsDgJdyfbCmedG3Q8dAcaEAoM9VzVz8FXf9S+gcQBKY9Knq5kVfCJ0DxYcCgCCqZy78B0n/GjoHEJZ9pWrmIu6giSAoAAjCzLxqxsL3m3RN6CxAIF+omrGA02EIhgKAYMzMq2YuWiq3T4bOAvQp02erZy66wsxYEItgKAAIrrp54cdM/mFxdQAKn8v8yuoZi64KHQSgACARqmYu/ozcLpR0MHQWoJe0mfk7q2cs/lzoIIBEAUCCVDcv/B9TfK6kF0JnAfLsecU+u2rG4u+EDgL8BQUAiVI18+I7PY5eLen+0FmAPHkg8vi11ecsXhs6CPC3KABInJpzFjx5MPI6ma8MnQXoof+yjmh6ZfPFfwwdBHi5ktABgMM5rmnxQUmLtt658l65f15S/9CZgC44IGlZ9cxF/x46CHAkzAAg0apnLPyqx9EUSb8KnQXI0cOR21kM/kg6CgASr+acBb/b27r77EObBnGpIJIqNumava27p1Q2L3wgdBigM5wCQCqcMPf9rZKWbrvjWz92i1bINSZ0JuBvPCm3RVXNC9eEDgLkihkApErVzIvvLM+2TpbshtBZgBfZ6ray0ldXM/gjZZgBQOoMP+fSXZIWbL3j+psk+5qk4aEzofiYtFPm76uasYhr+5FKzAAgtapnLl6diXyipJ+EzoIi435rJpudyMY+SDNmAJBqo5oWb3P3c7euWfluc10jqSJ0JhS0/eb2kcqZC7/MjXyQdswAIPXMzGtmLLrOomiauX4dOg8Kk8s2RtJpVc0Lr2XwRyGgAKBgVDUteKhyaOuZkn9CUjZ0HhSMDsmvrh5ysLFy5qI/hA4D5AunAFBQbOql7ZKWb7995a2x+SpJE0JnQqr9MTYtGD1j8YbQQYB8YwYABamyeeHdZa0lU8x1XegsSCu7wTqi00bPWMTgj4LEDAAK1oi579wt6dItd15/q7l9XdLI0JmQCs+Y/O+qZi66KXQQoDcxA4CCVzNj8fcib58k6cehsyDxflJSmnl11czFDP4oeMwAoChUNr97u7ufv23NqvfI/bOSBoTOhETZZeZLq2Ys/lboIEBfYQYARcPMvHrGwq8q8kmS3Rk6D5LBpNs8jk5j8EexYQYARae6afET7t58aPOgL0gaGDoTgtjtpg9WNS38D67rRzFiBgBF6S+bBynyycwGFJ9Dv/on18xYdB2DP4oVMwAoaswGFB1+9QOHMAOAovfXrYQ7otOYDShc/OoHXooZAOCQqtkL/sRsQEHiVz9wGMwAAH/jL7MBHbKTJfte6DzosR/zqx84PGYAgMMYM3Ph05LetO2O6+e52b/JNSZ0JnTJFrldXt288H9CBwGSihkA4CiqZi6+qTzbOtldXxZ3GEyDDnd9uaQ8ezKDP3B0zAAAnRh+zqW7JF2+9fbrb5TsyzKdFToTDuuuyLLvr5z5rt+EDgKkAQUAyFF18+L73H36tjtXvFlmX+C0QDKY9LSbPlLVtPAGzvMDueMUANAFZubVMxevtvboFMk/Iak1dKYi1uauL2fKs6dUz1i0isEf6BpmAIBuqJq9YJ+k5c/cdv23s5H9i0xvlGShcxUJd+m/oo7oH6pnL/hT6DBAWlEAgB4YNWvxY5LevPX2618riz4j+YzQmQqZm26Xx1fVzLz4l6GzAGlHAQDyoLp58X2SZm6/fWVzbH61pDNCZyow95npw9UzFt0ROghQKFgDAORRZfPC26vWPfFac3urpAdD5ykAv3LzN1XNWDitisEfyCtmAIA8s+XLY0nfdff/3n7nivNc9o+SzgydK2V+Jfm/VM1Y9D8vLu5bHDoPUHAoAEAvObQq/SZJN2352ao6i/wTrBE4OpM2SH511czFN734Nwz8QG9JUwHoHzoA0F015yxYL2nmljtXTIliXeKmBZL6hc6VEG2S/TA2v3b0jEUbQocBeig1Y1V6CoCrOnQEoKdqZiy6X9Kl22//j4/FVrZI8v8n6djAsULZJvnKDkVfOXTvBaAQ1IQOkKs0LQKcdPH69YNChwDyobL53durZy68+vkdFce7651uul1SHDpXH8jK/VZze2vVkNax1TMXf4jBH4XiHb/4xWC5JoXOkav0zABI5Vllzpf07dBBgHyZeOGFbXrxPf3tZ2/7Zk02Kpnv5hdJmhI4Wr79VrJVJaXRqmMaLtoaOgzQG0rbs693s7LQOXKVpgIgKf5Y45o1313b1NQROgmQb8fMetcWSddKunb77StPiyN/h1zzJJ0SOFp3Peyym6LIvl3VtOCh0GGA3nTJpk2lrQfbPhY6R1ekrADYieNKyz8raWnoJEBvqmxe+ICkByRdtXXN9ePdbZa5NUveImlg4HhHcsBNG8zt9tg6fjB6xrseCR0I6CsHD7Z+wWQTQufoipQVAEnSkgUb7t61avpZ/yRu/oEiUN20+AlJ10m6bstNX6+wAWWN5nZ2LE2zF/cXGBIo2i6T7nG3e1zxxmzFgJ+PmX7hgUBZgDDcbdH6jR932WWho3RVGguAzH35gg2/ONPvvvuKG84++3eh8wB9pWbepfsl3XLoj3z58mhb3diTZdE0vVgGTpDpVYduVZyvz3eHTE/J9UdJj0p+r8eZe6qbL/o9d+BDMVt81y9OjTfc/QU3mxM6S3eksgBIksnnWlazF66/+y73+FZZ9IRcO0LnwiuZu8cZ317qvvlbdXV7QucpJId2HfztoT/X/+XvfdPXS5/dUzGuI86+SvJXmaIhUjxMiircvMLcBkt+6FSC7XXz3ea2X4r3S9ELrniXZH/MSH8YNaT1SZt6afsrX31Bn/w3FpOL168f1G42LspapZtxd8kkMo2Qx+PNbE6suF5SJnSk7kptATgkI3mTmTVJzs1Yk8qkyE1ZWdvC9RvXmuuaFfXTfxo6ViE7NGA/fugPEm7B+rtbTPGSrKwxcpUqkkxMriRWgXSztBcApEuZpFlumrVww8YfZDxewIwAitnF69cPyspulPx8fsGgr6VpIyAUEtcFWYvWXnTrbwaEjgKEMH/NmoFZi9ZKdn7oLChOFACE4zojGrD/a6FjACFUlJVfJ9cZoXOgeFEAEJi/Y9H69WeFTgH0pcUbN06X622hc6C4UQAQmrmi94QOAfSlOPb3hs4AUACQBC2hAwB9K53XjaOwUACQBMdwp0cUi0s2bRoiaUToHAAFAInQni0dGToD0BcO7MsOD50BkCgASIjSqI2LoFEUeK8jKSgAAAAUIQoAAABFiAIAAEARogAAAFCEKAAAABQhCgAAAEWIAgAAQBGiAAAAUIQoAAAAFCEKAAAARYgCAABAEaIAAABQhCgAAAAUIQoAAABFiAIAAEAR6rQAmEVtfREExa21tJT3GYoC73X0hVzG7s5nANy35SUNcGTx0wcO8D5DURhQUrJdUhw6Bwre050d0GkByFj8y/xkAY7ogbVNTR2hQwB94bqpU9slPRQ6BwqbZe1XnR3TaQH4Vl3dI+LNil5k0vdCZwD6kpvxnkdvemDF6856rLODclwEaJ/saRrgCF7IRPq30CGAvhS1HbxW0vOhc6AwmewTuRyXUwFYWXvWaudXGvLPXfaeb06fzhchisqKpqadJl0myUNnQYExrV5Re9b3czk0txkAM/d9AxZIur0nuYC/EbvZFavqzv5u6CBACCvqpn9H7h8UCwKRN/6zeO+AxTLLqVjmvA/ADbNP37e5vbXF3D8haV+38wGmx8x17qras78YOgoQ0sr62i+47DxJj4fOglTb52bLN7e3zb1h9uk5j8/WnVdatObeKpVl58t9pkvjJA3uzvOgaLi7tpvsETP9uKxf6U2HVkIDkHTJpk2lbQfb57niee52opkq1c3vZxSN3SZtjqXby0qi1d8466ztoQMBAAAAAAAAAAAAAAAAAAAAAAAAAAAAAAAAAAAAAAAAAAAAAAAAAAAAAAAAAAAAAAAAAAAAAAAAAAAAAAAAAAAAAAAAAAAAAAAAAAAAAAAAAAAAAAAAAAAAAAAAAAAAAAAAAAAAANLq/wNalLc4zzTqbAAAAABJRU5ErkJggg==;" vertex="1" parent="1">
          <mxGeometry x="191" y="401" width="42" height="42" as="geometry" />
        </mxCell>
        <mxCell id="HGETupCOhlLOczf1D24e-21" value="&lt;font color=&quot;#ffffff&quot;&gt;Authentication&lt;br&gt;System&lt;/font&gt;" style="rounded=1;whiteSpace=wrap;html=1;fillColor=#808080;strokeColor=none;shadow=1;fontStyle=0;fontFamily=Verdana;" vertex="1" parent="1">
          <mxGeometry x="677" y="250" width="150" height="110" as="geometry" />
        </mxCell>
        <mxCell id="HGETupCOhlLOczf1D24e-22" value="&lt;font color=&quot;#000000&quot;&gt;L1 Biometric Device&lt;/font&gt;" style="text;html=1;strokeColor=none;fillColor=none;align=center;verticalAlign=middle;whiteSpace=wrap;rounded=0;shadow=1;fontFamily=Verdana;fontColor=#FFFFFF;" vertex="1" parent="1">
          <mxGeometry x="90" y="443" width="140" height="30" as="geometry" />
        </mxCell>
        <mxCell id="HGETupCOhlLOczf1D24e-23" value="HTTPS" style="text;html=1;strokeColor=none;fillColor=none;align=center;verticalAlign=middle;whiteSpace=wrap;rounded=0;shadow=1;fontFamily=Verdana;fontColor=#000000;" vertex="1" parent="1">
          <mxGeometry x="240" y="290" width="60" height="30" as="geometry" />
        </mxCell>
        <mxCell id="HGETupCOhlLOczf1D24e-24" style="edgeStyle=orthogonalEdgeStyle;rounded=0;orthogonalLoop=1;jettySize=auto;html=1;entryX=0;entryY=0.5;entryDx=0;entryDy=0;strokeWidth=1;fontFamily=Verdana;fontColor=#000000;" edge="1" parent="1" source="HGETupCOhlLOczf1D24e-5" target="HGETupCOhlLOczf1D24e-21">
          <mxGeometry relative="1" as="geometry" />
        </mxCell>
      </root>
    </mxGraphModel>
  </diagram>
  <diagram name="v1" id="Hw2Yd1-sXx5gVD7LFIkM">
    <mxGraphModel dx="954" dy="616" grid="0" gridSize="10" guides="1" tooltips="1" connect="1" arrows="1" fold="1" page="1" pageScale="1" pageWidth="1654" pageHeight="1169" math="0" shadow="0">
      <root>
        <mxCell id="0" />
        <mxCell id="1" parent="0" />
        <mxCell id="5pxhArDdXFgjGTxjTKVE-1" value="" style="rounded=1;whiteSpace=wrap;html=1;strokeColor=#38a2f7;fillColor=none;fontFamily=Montserrat-Semibold;fontSize=12;fontStyle=0;fontColor=#FFFFFF;fontSource=https%3A%2F%2Ffonts.googleapis.com%2Fcss%3Ffamily%3DMontserrat-Semibold;shadow=0;strokeWidth=3;arcSize=6;spacing=3;spacingTop=-5;gradientColor=none;" parent="1" vertex="1">
          <mxGeometry x="80" y="110" width="810" height="420" as="geometry" />
        </mxCell>
        <mxCell id="5pxhArDdXFgjGTxjTKVE-2" value="" style="rounded=1;whiteSpace=wrap;html=1;strokeColor=none;fillColor=#f1813a;fontFamily=Montserrat-Semibold;fontSize=12;fontStyle=0;fontColor=#FFFFFF;fontSource=https%3A%2F%2Ffonts.googleapis.com%2Fcss%3Ffamily%3DMontserrat-Semibold;shadow=0;strokeWidth=3;arcSize=6;spacing=3;spacingTop=-5;gradientColor=none;" parent="1" vertex="1">
          <mxGeometry x="500" y="30" width="390" height="70" as="geometry" />
        </mxCell>
        <mxCell id="5pxhArDdXFgjGTxjTKVE-3" value="&lt;font style=&quot;font-size: 16px;&quot;&gt;Relying Party System&lt;/font&gt;" style="rounded=1;whiteSpace=wrap;html=1;strokeColor=none;fillColor=#808080;fontFamily=Montserrat-Semibold;fontSize=12;fontStyle=0;fontColor=#FFFFFF;fontSource=https%3A%2F%2Ffonts.googleapis.com%2Fcss%3Ffamily%3DMontserrat-Semibold;align=center;verticalAlign=middle;shadow=0;strokeWidth=3;arcSize=6;spacing=3;spacingTop=-5;gradientColor=none;" parent="1" vertex="1">
          <mxGeometry x="80" y="30" width="220" height="70" as="geometry" />
        </mxCell>
        <mxCell id="5pxhArDdXFgjGTxjTKVE-4" value="" style="rounded=1;whiteSpace=wrap;html=1;fillColor=#1752a2;strokeColor=none;fontFamily=Montserrat-Semibold;fontSize=12;fontStyle=0;fontColor=#FFFFFF;fontSource=https%3A%2F%2Ffonts.googleapis.com%2Fcss%3Ffamily%3DMontserrat-Semibold;shadow=0;strokeWidth=3;arcSize=6;spacing=3;spacingTop=-5;gradientColor=none;" parent="1" vertex="1">
          <mxGeometry x="100" y="149" width="770" height="90" as="geometry" />
        </mxCell>
        <mxCell id="5pxhArDdXFgjGTxjTKVE-5" value="&lt;font color=&quot;#000000&quot; style=&quot;font-size: 16px;&quot;&gt;OIDC APIs&lt;/font&gt;" style="rounded=1;whiteSpace=wrap;html=1;fillColor=#f9c446;strokeColor=none;fontFamily=Montserrat-Semibold;fontSize=12;fontStyle=0;fontColor=#FFFFFF;fontSource=https%3A%2F%2Ffonts.googleapis.com%2Fcss%3Ffamily%3DMontserrat-Semibold;shadow=0;strokeWidth=3;arcSize=6;spacing=3;spacingTop=-5;gradientColor=none;" parent="1" vertex="1">
          <mxGeometry x="120" y="165" width="133" height="60" as="geometry" />
        </mxCell>
        <mxCell id="5pxhArDdXFgjGTxjTKVE-6" value="" style="rounded=1;whiteSpace=wrap;html=1;fillColor=#1752a2;strokeColor=none;fontFamily=Montserrat-Semibold;fontSize=12;fontStyle=0;fontColor=#FFFFFF;fontSource=https%3A%2F%2Ffonts.googleapis.com%2Fcss%3Ffamily%3DMontserrat-Semibold;shadow=0;strokeWidth=3;arcSize=6;spacing=3;spacingTop=-5;gradientColor=none;" parent="1" vertex="1">
          <mxGeometry x="100" y="250" width="770" height="100" as="geometry" />
        </mxCell>
        <mxCell id="5pxhArDdXFgjGTxjTKVE-7" value="OIDC Service" style="rounded=1;whiteSpace=wrap;html=1;fillColor=#d44247;strokeColor=none;fontFamily=Montserrat-Semibold;fontSize=16;fontStyle=0;fontColor=#FFFFFF;fontSource=https%3A%2F%2Ffonts.googleapis.com%2Fcss%3Ffamily%3DMontserrat-Semibold;shadow=0;strokeWidth=3;arcSize=6;spacing=3;spacingTop=-5;gradientColor=none;" parent="1" vertex="1">
          <mxGeometry x="118" y="270" width="133" height="60" as="geometry" />
        </mxCell>
        <mxCell id="5pxhArDdXFgjGTxjTKVE-8" value="Key Manager" style="rounded=1;whiteSpace=wrap;html=1;strokeColor=none;fontFamily=Montserrat-Semibold;fontSize=16;fontStyle=0;fillColor=#1752a2;fontColor=#FFFFFF;fontSource=https%3A%2F%2Ffonts.googleapis.com%2Fcss%3Ffamily%3DMontserrat-Semibold;shadow=0;strokeWidth=3;arcSize=6;spacing=3;spacingTop=-5;gradientColor=none;" parent="1" vertex="1">
          <mxGeometry x="100" y="367" width="140" height="60" as="geometry" />
        </mxCell>
        <mxCell id="5pxhArDdXFgjGTxjTKVE-9" value="Data Layer" style="rounded=1;whiteSpace=wrap;html=1;strokeColor=none;fontFamily=Montserrat-Semibold;fontSize=16;fontStyle=0;fillColor=#1752a2;fontColor=#FFFFFF;fontSource=https%3A%2F%2Ffonts.googleapis.com%2Fcss%3Ffamily%3DMontserrat-Semibold;shadow=0;strokeWidth=3;arcSize=6;spacing=3;spacingTop=-5;gradientColor=none;" parent="1" vertex="1">
          <mxGeometry x="101" y="440" width="220" height="60" as="geometry" />
        </mxCell>
        <mxCell id="5pxhArDdXFgjGTxjTKVE-10" value="Cache Layer" style="rounded=1;whiteSpace=wrap;html=1;strokeColor=none;fontFamily=Montserrat-Semibold;fontSize=16;fontStyle=0;fillColor=#1752a2;fontColor=#FFFFFF;fontSource=https%3A%2F%2Ffonts.googleapis.com%2Fcss%3Ffamily%3DMontserrat-Semibold;shadow=0;strokeWidth=3;arcSize=6;spacing=3;spacingTop=-5;gradientColor=none;" parent="1" vertex="1">
          <mxGeometry x="341" y="440" width="229" height="60" as="geometry" />
        </mxCell>
        <mxCell id="5pxhArDdXFgjGTxjTKVE-11" value="e-Signet Core" style="rounded=1;whiteSpace=wrap;html=1;strokeColor=none;fontFamily=Montserrat-Semibold;fontSize=16;fontStyle=0;fillColor=#1752a2;fontColor=#FFFFFF;fontSource=https%3A%2F%2Ffonts.googleapis.com%2Fcss%3Ffamily%3DMontserrat-Semibold;shadow=0;strokeWidth=3;arcSize=6;spacing=3;spacingTop=-5;gradientColor=none;" parent="1" vertex="1">
          <mxGeometry x="590" y="440" width="280" height="60" as="geometry" />
        </mxCell>
        <mxCell id="5pxhArDdXFgjGTxjTKVE-12" value="&lt;font color=&quot;#000000&quot; style=&quot;font-size: 16px;&quot;&gt;e-Signet Service&lt;/font&gt;" style="text;html=1;strokeColor=none;fillColor=none;align=center;verticalAlign=middle;whiteSpace=wrap;rounded=0;fontFamily=Montserrat-Semibold;fontSize=16;fontStyle=0;fontColor=#FFFFFF;fontSource=https%3A%2F%2Ffonts.googleapis.com%2Fcss%3Ffamily%3DMontserrat-Semibold;" parent="1" vertex="1">
          <mxGeometry x="410" y="115" width="140" height="30" as="geometry" />
        </mxCell>
        <mxCell id="5pxhArDdXFgjGTxjTKVE-13" value="&lt;font style=&quot;font-size: 16px;&quot;&gt;SBI Integration&lt;/font&gt;" style="rounded=1;whiteSpace=wrap;html=1;fillColor=#1752a2;strokeColor=none;fontFamily=Montserrat-Semibold;fontSize=12;fontStyle=0;fontColor=#FFFFFF;fontSource=https%3A%2F%2Ffonts.googleapis.com%2Fcss%3Ffamily%3DMontserrat-Semibold;shadow=0;strokeWidth=3;arcSize=6;spacing=3;spacingTop=-5;gradientColor=none;" parent="1" vertex="1">
          <mxGeometry x="630" y="45" width="240" height="40" as="geometry" />
        </mxCell>
        <mxCell id="5pxhArDdXFgjGTxjTKVE-14" value="e-Signet&lt;br style=&quot;font-size: 16px;&quot;&gt;UI" style="text;html=1;strokeColor=none;fillColor=none;align=center;verticalAlign=middle;whiteSpace=wrap;rounded=0;fontFamily=Montserrat-Semibold;fontSize=16;fontStyle=0;fontColor=#FFFFFF;fontSource=https%3A%2F%2Ffonts.googleapis.com%2Fcss%3Ffamily%3DMontserrat-Semibold;" parent="1" vertex="1">
          <mxGeometry x="510" y="50" width="110" height="30" as="geometry" />
        </mxCell>
        <mxCell id="5pxhArDdXFgjGTxjTKVE-15" value="" style="rounded=0;whiteSpace=wrap;html=1;fillColor=#f1813a;strokeColor=none;fontColor=#FFFFFF;fontFamily=Montserrat-Semibold;fontSource=https%3A%2F%2Ffonts.googleapis.com%2Fcss%3Ffamily%3DMontserrat-Semibold;fontStyle=0;fontSize=16;" parent="1" vertex="1">
          <mxGeometry x="105" y="560" width="40" height="40" as="geometry" />
        </mxCell>
        <mxCell id="5pxhArDdXFgjGTxjTKVE-16" value="&lt;font style=&quot;font-size: 16px;&quot;&gt;&lt;span style=&quot;font-size: 16px;&quot;&gt;ID&lt;br style=&quot;font-size: 16px;&quot;&gt;System&lt;/span&gt;&lt;/font&gt;" style="rounded=1;whiteSpace=wrap;html=1;fillColor=#808080;strokeColor=none;fontColor=#FFFFFF;fontFamily=Montserrat-Semibold;fontSource=https%3A%2F%2Ffonts.googleapis.com%2Fcss%3Ffamily%3DMontserrat-Semibold;fontStyle=0;fontSize=12;shadow=0;strokeWidth=3;arcSize=6;spacing=3;spacingTop=-5;gradientColor=none;" parent="1" vertex="1">
          <mxGeometry x="910" y="340" width="80" height="130" as="geometry" />
        </mxCell>
        <mxCell id="5pxhArDdXFgjGTxjTKVE-17" value="&lt;font style=&quot;font-size: 16px;&quot;&gt;&lt;span style=&quot;font-size: 16px;&quot;&gt;Digital Wallet&lt;/span&gt;&lt;/font&gt;" style="rounded=1;whiteSpace=wrap;html=1;fillColor=#808080;strokeColor=none;fontColor=#FFFFFF;fontFamily=Montserrat-Semibold;fontSource=https%3A%2F%2Ffonts.googleapis.com%2Fcss%3Ffamily%3DMontserrat-Semibold;fontStyle=0;fontSize=12;shadow=0;strokeWidth=3;arcSize=6;spacing=3;spacingTop=-5;gradientColor=none;" parent="1" vertex="1">
          <mxGeometry x="312" y="32" width="170" height="68" as="geometry" />
        </mxCell>
        <mxCell id="5pxhArDdXFgjGTxjTKVE-18" value="" style="rounded=0;whiteSpace=wrap;html=1;fillColor=none;strokeColor=#38a2f7;fontColor=#FFFFFF;fontFamily=Montserrat-Semibold;fontSource=https%3A%2F%2Ffonts.googleapis.com%2Fcss%3Ffamily%3DMontserrat-Semibold;fontStyle=0;fontSize=16;strokeWidth=3;" parent="1" vertex="1">
          <mxGeometry x="345" y="560" width="40" height="40" as="geometry" />
        </mxCell>
        <mxCell id="5pxhArDdXFgjGTxjTKVE-19" value="" style="rounded=0;whiteSpace=wrap;html=1;fillColor=#666666;strokeColor=none;fontColor=#FFFFFF;fontFamily=Montserrat-Semibold;fontSource=https%3A%2F%2Ffonts.googleapis.com%2Fcss%3Ffamily%3DMontserrat-Semibold;fontStyle=0;fontSize=16;" parent="1" vertex="1">
          <mxGeometry x="585" y="560" width="40" height="40" as="geometry" />
        </mxCell>
        <mxCell id="5pxhArDdXFgjGTxjTKVE-20" value="" style="rounded=0;whiteSpace=wrap;html=1;fillColor=#1751a2;strokeColor=none;fontColor=#FFFFFF;fontFamily=Montserrat-Semibold;fontSource=https%3A%2F%2Ffonts.googleapis.com%2Fcss%3Ffamily%3DMontserrat-Semibold;fontStyle=0;fontSize=16;" parent="1" vertex="1">
          <mxGeometry x="105" y="625" width="40" height="40" as="geometry" />
        </mxCell>
        <mxCell id="5pxhArDdXFgjGTxjTKVE-21" value="" style="rounded=0;whiteSpace=wrap;html=1;fillColor=#f9c446;strokeColor=none;fontColor=#FFFFFF;fontFamily=Montserrat-Semibold;fontSource=https%3A%2F%2Ffonts.googleapis.com%2Fcss%3Ffamily%3DMontserrat-Semibold;fontStyle=0;fontSize=16;" parent="1" vertex="1">
          <mxGeometry x="345" y="625" width="40" height="40" as="geometry" />
        </mxCell>
        <mxCell id="5pxhArDdXFgjGTxjTKVE-22" value="" style="rounded=0;whiteSpace=wrap;html=1;fillColor=#3b8755;strokeColor=none;fontColor=#FFFFFF;fontFamily=Montserrat-Semibold;fontSource=https%3A%2F%2Ffonts.googleapis.com%2Fcss%3Ffamily%3DMontserrat-Semibold;fontStyle=0;fontSize=16;" parent="1" vertex="1">
          <mxGeometry x="585" y="625" width="40" height="40" as="geometry" />
        </mxCell>
        <mxCell id="5pxhArDdXFgjGTxjTKVE-23" value="e-Signet UI" style="text;html=1;strokeColor=none;fillColor=none;align=left;verticalAlign=middle;whiteSpace=wrap;rounded=0;fontFamily=Montserrat-Semibold;fontSize=16;fontStyle=0;fontSource=https%3A%2F%2Ffonts.googleapis.com%2Fcss%3Ffamily%3DMontserrat-Semibold;" parent="1" vertex="1">
          <mxGeometry x="164" y="565" width="135" height="30" as="geometry" />
        </mxCell>
        <mxCell id="5pxhArDdXFgjGTxjTKVE-24" value="Core Componets" style="text;html=1;strokeColor=none;fillColor=none;align=left;verticalAlign=middle;whiteSpace=wrap;rounded=0;fontFamily=Montserrat-Semibold;fontSize=16;fontStyle=0;fontSource=https%3A%2F%2Ffonts.googleapis.com%2Fcss%3Ffamily%3DMontserrat-Semibold;" parent="1" vertex="1">
          <mxGeometry x="164" y="625" width="135" height="30" as="geometry" />
        </mxCell>
        <mxCell id="5pxhArDdXFgjGTxjTKVE-25" value="e-Signet Service" style="text;html=1;strokeColor=none;fillColor=none;align=left;verticalAlign=middle;whiteSpace=wrap;rounded=0;fontFamily=Montserrat-Semibold;fontSize=16;fontStyle=0;fontSource=https%3A%2F%2Ffonts.googleapis.com%2Fcss%3Ffamily%3DMontserrat-Semibold;" parent="1" vertex="1">
          <mxGeometry x="405" y="565" width="135" height="30" as="geometry" />
        </mxCell>
        <mxCell id="5pxhArDdXFgjGTxjTKVE-26" value="Rest APIs" style="text;html=1;strokeColor=none;fillColor=none;align=left;verticalAlign=middle;whiteSpace=wrap;rounded=0;fontFamily=Montserrat-Semibold;fontSize=16;fontStyle=0;fontSource=https%3A%2F%2Ffonts.googleapis.com%2Fcss%3Ffamily%3DMontserrat-Semibold;" parent="1" vertex="1">
          <mxGeometry x="405" y="630" width="135" height="30" as="geometry" />
        </mxCell>
        <mxCell id="5pxhArDdXFgjGTxjTKVE-27" value="External System" style="text;html=1;strokeColor=none;fillColor=none;align=left;verticalAlign=middle;whiteSpace=wrap;rounded=0;fontFamily=Montserrat-Semibold;fontSize=16;fontStyle=0;fontSource=https%3A%2F%2Ffonts.googleapis.com%2Fcss%3Ffamily%3DMontserrat-Semibold;" parent="1" vertex="1">
          <mxGeometry x="645" y="565" width="135" height="30" as="geometry" />
        </mxCell>
        <mxCell id="5pxhArDdXFgjGTxjTKVE-28" value="Plugins" style="text;html=1;strokeColor=none;fillColor=none;align=left;verticalAlign=middle;whiteSpace=wrap;rounded=0;fontFamily=Montserrat-Semibold;fontSize=16;fontStyle=0;fontSource=https%3A%2F%2Ffonts.googleapis.com%2Fcss%3Ffamily%3DMontserrat-Semibold;" parent="1" vertex="1">
          <mxGeometry x="645" y="630" width="135" height="30" as="geometry" />
        </mxCell>
        <mxCell id="5pxhArDdXFgjGTxjTKVE-29" value="" style="rounded=0;whiteSpace=wrap;html=1;fillColor=#d44247;strokeColor=none;fontColor=#FFFFFF;fontFamily=Montserrat-Semibold;fontSource=https%3A%2F%2Ffonts.googleapis.com%2Fcss%3Ffamily%3DMontserrat-Semibold;fontStyle=0;fontSize=16;" parent="1" vertex="1">
          <mxGeometry x="800" y="560" width="40" height="40" as="geometry" />
        </mxCell>
        <mxCell id="5pxhArDdXFgjGTxjTKVE-30" value="Services" style="text;html=1;strokeColor=none;fillColor=none;align=left;verticalAlign=middle;whiteSpace=wrap;rounded=0;fontFamily=Montserrat-Semibold;fontSize=16;fontStyle=0;fontSource=https%3A%2F%2Ffonts.googleapis.com%2Fcss%3Ffamily%3DMontserrat-Semibold;" parent="1" vertex="1">
          <mxGeometry x="859" y="565" width="135" height="30" as="geometry" />
        </mxCell>
        <mxCell id="5pxhArDdXFgjGTxjTKVE-31" value="Key Binder" style="rounded=1;whiteSpace=wrap;html=1;strokeColor=none;fontFamily=Montserrat-Semibold;fontSize=16;fontStyle=0;fillColor=#3b8755;fontColor=#FFFFFF;fontSource=https%3A%2F%2Ffonts.googleapis.com%2Fcss%3Ffamily%3DMontserrat-Semibold;shadow=0;strokeWidth=3;arcSize=6;spacing=3;spacingTop=-5;gradientColor=none;" parent="1" vertex="1">
          <mxGeometry x="257" y="367" width="140" height="60" as="geometry" />
        </mxCell>
        <mxCell id="5pxhArDdXFgjGTxjTKVE-32" value="Consent&lt;br style=&quot;font-size: 16px;&quot;&gt;Service" style="rounded=1;whiteSpace=wrap;html=1;fillColor=#d44247;strokeColor=none;fontFamily=Montserrat-Semibold;fontSize=16;fontStyle=0;fontColor=#FFFFFF;fontSource=https%3A%2F%2Ffonts.googleapis.com%2Fcss%3Ffamily%3DMontserrat-Semibold;shadow=0;strokeWidth=3;arcSize=6;spacing=3;spacingTop=-5;gradientColor=none;" parent="1" vertex="1">
          <mxGeometry x="268" y="270" width="135" height="60" as="geometry" />
        </mxCell>
        <mxCell id="5pxhArDdXFgjGTxjTKVE-33" value="VCI Service" style="rounded=1;whiteSpace=wrap;html=1;fillColor=#d44247;strokeColor=none;fontFamily=Montserrat-Semibold;fontSize=16;fontStyle=0;fontColor=#FFFFFF;fontSource=https%3A%2F%2Ffonts.googleapis.com%2Fcss%3Ffamily%3DMontserrat-Semibold;shadow=0;strokeWidth=3;arcSize=6;spacing=3;spacingTop=-5;gradientColor=none;" parent="1" vertex="1">
          <mxGeometry x="417" y="270" width="134" height="60" as="geometry" />
        </mxCell>
        <mxCell id="5pxhArDdXFgjGTxjTKVE-34" value="Management Service" style="rounded=1;whiteSpace=wrap;html=1;fillColor=#d44247;strokeColor=none;fontFamily=Montserrat-Semibold;fontSize=16;fontStyle=0;fontColor=#FFFFFF;fontSource=https%3A%2F%2Ffonts.googleapis.com%2Fcss%3Ffamily%3DMontserrat-Semibold;shadow=0;strokeWidth=3;arcSize=6;spacing=3;spacingTop=-5;gradientColor=none;" parent="1" vertex="1">
          <mxGeometry x="567" y="270" width="134" height="60" as="geometry" />
        </mxCell>
        <mxCell id="5pxhArDdXFgjGTxjTKVE-35" value="Binding&lt;br style=&quot;font-size: 16px;&quot;&gt;Service" style="rounded=1;whiteSpace=wrap;html=1;fillColor=#d44247;strokeColor=none;fontFamily=Montserrat-Semibold;fontSize=16;fontStyle=0;fontColor=#FFFFFF;fontSource=https%3A%2F%2Ffonts.googleapis.com%2Fcss%3Ffamily%3DMontserrat-Semibold;shadow=0;strokeWidth=3;arcSize=6;spacing=3;spacingTop=-5;gradientColor=none;" parent="1" vertex="1">
          <mxGeometry x="714" y="270" width="140" height="60" as="geometry" />
        </mxCell>
        <mxCell id="5pxhArDdXFgjGTxjTKVE-36" value="UI APIs" style="rounded=1;whiteSpace=wrap;html=1;fillColor=#f9c446;strokeColor=none;fontFamily=Montserrat-Semibold;fontSize=16;fontStyle=0;fontColor=#000000;fontSource=https%3A%2F%2Ffonts.googleapis.com%2Fcss%3Ffamily%3DMontserrat-Semibold;shadow=0;strokeWidth=3;arcSize=6;spacing=3;spacingTop=-5;gradientColor=none;" parent="1" vertex="1">
          <mxGeometry x="267" y="165" width="135" height="60" as="geometry" />
        </mxCell>
        <mxCell id="5pxhArDdXFgjGTxjTKVE-37" value="Management APIs" style="rounded=1;whiteSpace=wrap;html=1;fillColor=#f9c446;strokeColor=none;fontFamily=Montserrat-Semibold;fontSize=16;fontStyle=0;fontColor=#000000;fontSource=https%3A%2F%2Ffonts.googleapis.com%2Fcss%3Ffamily%3DMontserrat-Semibold;shadow=0;strokeWidth=3;arcSize=6;spacing=3;spacingTop=-5;gradientColor=none;" parent="1" vertex="1">
          <mxGeometry x="563" y="165" width="137" height="60" as="geometry" />
        </mxCell>
        <mxCell id="5pxhArDdXFgjGTxjTKVE-38" value="Binding APIs" style="rounded=1;whiteSpace=wrap;html=1;fillColor=#f9c446;strokeColor=none;fontFamily=Montserrat-Semibold;fontSize=16;fontStyle=0;fontColor=#000000;fontSource=https%3A%2F%2Ffonts.googleapis.com%2Fcss%3Ffamily%3DMontserrat-Semibold;shadow=0;strokeWidth=3;arcSize=6;spacing=3;spacingTop=-5;gradientColor=none;" parent="1" vertex="1">
          <mxGeometry x="717" y="165" width="134" height="60" as="geometry" />
        </mxCell>
        <mxCell id="5pxhArDdXFgjGTxjTKVE-39" value="VCI APIs" style="rounded=1;whiteSpace=wrap;html=1;fillColor=#f9c446;strokeColor=none;fontFamily=Montserrat-Semibold;fontSize=16;fontStyle=0;fontColor=#000000;fontSource=https%3A%2F%2Ffonts.googleapis.com%2Fcss%3Ffamily%3DMontserrat-Semibold;shadow=0;strokeWidth=3;arcSize=6;spacing=3;spacingTop=-5;gradientColor=none;" parent="1" vertex="1">
          <mxGeometry x="415" y="165" width="135" height="60" as="geometry" />
        </mxCell>
        <mxCell id="5pxhArDdXFgjGTxjTKVE-40" value="Audit Plugin" style="rounded=1;whiteSpace=wrap;html=1;strokeColor=none;fontFamily=Montserrat-Semibold;fontSize=16;fontStyle=0;fillColor=#3b8755;fontColor=#FFFFFF;fontSource=https%3A%2F%2Ffonts.googleapis.com%2Fcss%3Ffamily%3DMontserrat-Semibold;shadow=0;strokeWidth=3;arcSize=6;spacing=3;spacingTop=-5;gradientColor=none;" parent="1" vertex="1">
          <mxGeometry x="569" y="367" width="146" height="60" as="geometry" />
        </mxCell>
        <mxCell id="5pxhArDdXFgjGTxjTKVE-41" value="Authenticator" style="rounded=1;whiteSpace=wrap;html=1;strokeColor=none;fontFamily=Montserrat-Semibold;fontSize=16;fontStyle=0;fillColor=#3b8755;fontColor=#FFFFFF;fontSource=https%3A%2F%2Ffonts.googleapis.com%2Fcss%3Ffamily%3DMontserrat-Semibold;shadow=0;strokeWidth=3;arcSize=6;spacing=3;spacingTop=-5;gradientColor=none;" parent="1" vertex="1">
          <mxGeometry x="731" y="367" width="140" height="60" as="geometry" />
        </mxCell>
        <mxCell id="5pxhArDdXFgjGTxjTKVE-42" value="VCI Plugin" style="rounded=1;whiteSpace=wrap;html=1;strokeColor=none;fontFamily=Montserrat-Semibold;fontSize=16;fontStyle=0;fillColor=#3b8755;fontColor=#FFFFFF;fontSource=https%3A%2F%2Ffonts.googleapis.com%2Fcss%3Ffamily%3DMontserrat-Semibold;shadow=0;strokeWidth=3;arcSize=6;spacing=3;spacingTop=-5;gradientColor=none;" parent="1" vertex="1">
          <mxGeometry x="413" y="367" width="140" height="60" as="geometry" />
        </mxCell>
      </root>
    </mxGraphModel>
  </diagram>
  <diagram id="f62eungk5h-Czs4NmMqp" name="v2">
    <mxGraphModel dx="954" dy="616" grid="1" gridSize="10" guides="1" tooltips="1" connect="1" arrows="1" fold="1" page="1" pageScale="1" pageWidth="1654" pageHeight="1169" math="0" shadow="0">
      <root>
        <mxCell id="0" />
        <mxCell id="1" parent="0" />
        <mxCell id="4x9cebfzLRmKb55fLWm_-1" value="" style="rounded=0.75;whiteSpace=wrap;html=1;strokeColor=#38a2f7;fillColor=none;fontFamily=Montserrat-Semibold;fontSize=12;fontStyle=0;fontColor=#FFFFFF;fontSource=https%3A%2F%2Ffonts.googleapis.com%2Fcss%3Ffamily%3DMontserrat-Semibold;shadow=0;strokeWidth=3;arcSize=6;spacing=3;spacingTop=-5;gradientColor=none;" vertex="1" parent="1">
          <mxGeometry x="100" y="130" width="770" height="280" as="geometry" />
        </mxCell>
        <mxCell id="4x9cebfzLRmKb55fLWm_-2" value="" style="rounded=1;whiteSpace=wrap;html=1;strokeColor=#f1813a;fillColor=none;fontFamily=Montserrat-Semibold;fontSize=12;fontStyle=0;fontColor=#FFFFFF;fontSource=https%3A%2F%2Ffonts.googleapis.com%2Fcss%3Ffamily%3DMontserrat-Semibold;shadow=0;strokeWidth=3;arcSize=6;spacing=3;spacingTop=-5;gradientColor=none;" vertex="1" parent="1">
          <mxGeometry x="547" y="70" width="300" height="50" as="geometry" />
        </mxCell>
        <mxCell id="4x9cebfzLRmKb55fLWm_-3" value="&lt;font style=&quot;font-size: 16px;&quot;&gt;Relying Party System&lt;/font&gt;" style="rounded=1;whiteSpace=wrap;html=1;strokeColor=none;fillColor=#808080;fontFamily=Montserrat-Semibold;fontSize=12;fontStyle=0;fontColor=#FFFFFF;fontSource=https%3A%2F%2Ffonts.googleapis.com%2Fcss%3Ffamily%3DMontserrat-Semibold;align=center;verticalAlign=middle;shadow=0;strokeWidth=3;arcSize=6;spacing=3;spacingTop=-5;gradientColor=none;" vertex="1" parent="1">
          <mxGeometry x="309" y="77" width="220" height="40" as="geometry" />
        </mxCell>
        <mxCell id="4x9cebfzLRmKb55fLWm_-4" value="" style="rounded=1;whiteSpace=wrap;html=1;fillColor=none;strokeColor=#1752a2;fontFamily=Montserrat-Semibold;fontSize=12;fontStyle=0;fontColor=#FFFFFF;fontSource=https%3A%2F%2Ffonts.googleapis.com%2Fcss%3Ffamily%3DMontserrat-Semibold;shadow=0;strokeWidth=3;arcSize=6;spacing=3;spacingTop=-5;gradientColor=none;" vertex="1" parent="1">
          <mxGeometry x="110" y="156" width="750" height="64" as="geometry" />
        </mxCell>
        <mxCell id="4x9cebfzLRmKb55fLWm_-5" value="&lt;font color=&quot;#000000&quot; style=&quot;font-size: 16px;&quot;&gt;OIDC APIs&lt;/font&gt;" style="rounded=1;whiteSpace=wrap;html=1;fillColor=#f9c446;strokeColor=none;fontFamily=Montserrat-Semibold;fontSize=12;fontStyle=0;fontColor=#FFFFFF;fontSource=https%3A%2F%2Ffonts.googleapis.com%2Fcss%3Ffamily%3DMontserrat-Semibold;shadow=0;strokeWidth=3;arcSize=6;spacing=3;spacingTop=-5;gradientColor=none;" vertex="1" parent="1">
          <mxGeometry x="120" y="165" width="133" height="45" as="geometry" />
        </mxCell>
        <mxCell id="4x9cebfzLRmKb55fLWm_-6" value="" style="rounded=1;whiteSpace=wrap;html=1;fillColor=none;strokeColor=#1752a2;fontFamily=Montserrat-Semibold;fontSize=12;fontStyle=0;fontColor=#FFFFFF;fontSource=https%3A%2F%2Ffonts.googleapis.com%2Fcss%3Ffamily%3DMontserrat-Semibold;shadow=0;strokeWidth=3;arcSize=6;spacing=3;spacingTop=-5;gradientColor=none;" vertex="1" parent="1">
          <mxGeometry x="110" y="231" width="750" height="60" as="geometry" />
        </mxCell>
        <mxCell id="4x9cebfzLRmKb55fLWm_-7" value="OIDC Service" style="rounded=1;whiteSpace=wrap;html=1;fillColor=#d44247;strokeColor=none;fontFamily=Montserrat-Semibold;fontSize=16;fontStyle=0;fontColor=#FFFFFF;fontSource=https%3A%2F%2Ffonts.googleapis.com%2Fcss%3Ffamily%3DMontserrat-Semibold;shadow=0;strokeWidth=3;arcSize=6;spacing=3;spacingTop=-5;gradientColor=none;" vertex="1" parent="1">
          <mxGeometry x="118" y="241" width="133" height="40" as="geometry" />
        </mxCell>
        <mxCell id="4x9cebfzLRmKb55fLWm_-8" value="Key Manager" style="rounded=1;whiteSpace=wrap;html=1;strokeColor=#1752a2;fontFamily=Montserrat-Semibold;fontSize=16;fontStyle=0;fillColor=none;fontColor=#1752a2;fontSource=https%3A%2F%2Ffonts.googleapis.com%2Fcss%3Ffamily%3DMontserrat-Semibold;shadow=0;strokeWidth=3;arcSize=6;spacing=3;spacingTop=-5;gradientColor=none;" vertex="1" parent="1">
          <mxGeometry x="121" y="360" width="169" height="40" as="geometry" />
        </mxCell>
        <mxCell id="4x9cebfzLRmKb55fLWm_-9" value="Data Layer" style="rounded=1;whiteSpace=wrap;html=1;strokeColor=#1752a2;fontFamily=Montserrat-Semibold;fontSize=16;fontStyle=0;fillColor=none;fontColor=#1752a2;fontSource=https%3A%2F%2Ffonts.googleapis.com%2Fcss%3Ffamily%3DMontserrat-Semibold;shadow=0;strokeWidth=3;arcSize=6;spacing=3;spacingTop=-5;gradientColor=none;" vertex="1" parent="1">
          <mxGeometry x="306" y="360" width="174" height="40" as="geometry" />
        </mxCell>
        <mxCell id="4x9cebfzLRmKb55fLWm_-10" value="Cache Layer" style="rounded=1;whiteSpace=wrap;html=1;strokeColor=#1752a2;fontFamily=Montserrat-Semibold;fontSize=16;fontStyle=0;fillColor=none;fontColor=#1752a2;fontSource=https%3A%2F%2Ffonts.googleapis.com%2Fcss%3Ffamily%3DMontserrat-Semibold;shadow=0;strokeWidth=3;arcSize=6;spacing=3;spacingTop=-5;gradientColor=none;" vertex="1" parent="1">
          <mxGeometry x="496" y="360" width="174" height="40" as="geometry" />
        </mxCell>
        <mxCell id="4x9cebfzLRmKb55fLWm_-11" value="e-Signet Core" style="rounded=1;whiteSpace=wrap;html=1;strokeColor=#1752a2;fontFamily=Montserrat-Semibold;fontSize=16;fontStyle=0;fillColor=none;fontColor=#1752a2;fontSource=https%3A%2F%2Ffonts.googleapis.com%2Fcss%3Ffamily%3DMontserrat-Semibold;shadow=0;strokeWidth=3;arcSize=6;spacing=3;spacingTop=-5;gradientColor=none;" vertex="1" parent="1">
          <mxGeometry x="680" y="360" width="170" height="40" as="geometry" />
        </mxCell>
        <mxCell id="4x9cebfzLRmKb55fLWm_-12" value="&lt;font style=&quot;font-size: 16px;&quot;&gt;e-Signet Service&lt;/font&gt;" style="text;html=1;strokeColor=none;fillColor=none;align=center;verticalAlign=middle;whiteSpace=wrap;rounded=0;fontFamily=Montserrat-Semibold;fontSize=16;fontStyle=0;fontColor=#38a2f7;fontSource=https%3A%2F%2Ffonts.googleapis.com%2Fcss%3Ffamily%3DMontserrat-Semibold;" vertex="1" parent="1">
          <mxGeometry x="410" y="128" width="140" height="30" as="geometry" />
        </mxCell>
        <mxCell id="4x9cebfzLRmKb55fLWm_-13" value="&lt;font style=&quot;font-size: 16px;&quot;&gt;SBI Integration&lt;/font&gt;" style="rounded=1;whiteSpace=wrap;html=1;fillColor=none;strokeColor=#1752a2;fontFamily=Montserrat-Semibold;fontSize=12;fontStyle=0;fontColor=#1752a2;fontSource=https%3A%2F%2Ffonts.googleapis.com%2Fcss%3Ffamily%3DMontserrat-Semibold;shadow=0;strokeWidth=3;arcSize=6;spacing=3;spacingTop=-5;gradientColor=none;" vertex="1" parent="1">
          <mxGeometry x="682" y="78" width="153" height="35" as="geometry" />
        </mxCell>
        <mxCell id="4x9cebfzLRmKb55fLWm_-14" value="e-Signet UI" style="text;html=1;strokeColor=none;fillColor=none;align=center;verticalAlign=middle;whiteSpace=wrap;rounded=0;fontFamily=Montserrat-Semibold;fontSize=16;fontStyle=0;fontColor=#000000;fontSource=https%3A%2F%2Ffonts.googleapis.com%2Fcss%3Ffamily%3DMontserrat-Semibold;" vertex="1" parent="1">
          <mxGeometry x="547" y="81" width="125" height="30" as="geometry" />
        </mxCell>
        <mxCell id="4x9cebfzLRmKb55fLWm_-15" value="" style="rounded=0;whiteSpace=wrap;html=1;fillColor=#f1813a;strokeColor=none;fontColor=#FFFFFF;fontFamily=Montserrat-Semibold;fontSource=https%3A%2F%2Ffonts.googleapis.com%2Fcss%3Ffamily%3DMontserrat-Semibold;fontStyle=0;fontSize=12;" vertex="1" parent="1">
          <mxGeometry x="150" y="450" width="30" height="30" as="geometry" />
        </mxCell>
        <mxCell id="4x9cebfzLRmKb55fLWm_-16" value="&lt;font style=&quot;font-size: 16px;&quot;&gt;&lt;span style=&quot;font-size: 16px;&quot;&gt;ID&lt;br style=&quot;font-size: 16px;&quot;&gt;System&lt;/span&gt;&lt;/font&gt;" style="rounded=1;whiteSpace=wrap;html=1;fillColor=#808080;strokeColor=none;fontColor=#FFFFFF;fontFamily=Montserrat-Semibold;fontSource=https%3A%2F%2Ffonts.googleapis.com%2Fcss%3Ffamily%3DMontserrat-Semibold;fontStyle=0;fontSize=12;shadow=0;strokeWidth=3;arcSize=6;spacing=3;spacingTop=-5;gradientColor=none;" vertex="1" parent="1">
          <mxGeometry x="880" y="260" width="80" height="51" as="geometry" />
        </mxCell>
        <mxCell id="4x9cebfzLRmKb55fLWm_-17" value="&lt;font style=&quot;font-size: 16px;&quot;&gt;&lt;span style=&quot;font-size: 16px;&quot;&gt;Digital Wallet&lt;/span&gt;&lt;/font&gt;" style="rounded=1;whiteSpace=wrap;html=1;fillColor=#808080;strokeColor=none;fontColor=#FFFFFF;fontFamily=Montserrat-Semibold;fontSource=https%3A%2F%2Ffonts.googleapis.com%2Fcss%3Ffamily%3DMontserrat-Semibold;fontStyle=0;fontSize=12;shadow=0;strokeWidth=3;arcSize=6;spacing=3;spacingTop=-5;gradientColor=none;" vertex="1" parent="1">
          <mxGeometry x="120" y="76" width="170" height="40" as="geometry" />
        </mxCell>
        <mxCell id="4x9cebfzLRmKb55fLWm_-18" value="" style="rounded=0;whiteSpace=wrap;html=1;fillColor=none;strokeColor=#38a2f7;fontColor=#FFFFFF;fontFamily=Montserrat-Semibold;fontSource=https%3A%2F%2Ffonts.googleapis.com%2Fcss%3Ffamily%3DMontserrat-Semibold;fontStyle=0;fontSize=12;strokeWidth=3;" vertex="1" parent="1">
          <mxGeometry x="324" y="450" width="30" height="30" as="geometry" />
        </mxCell>
        <mxCell id="4x9cebfzLRmKb55fLWm_-19" value="" style="rounded=0;whiteSpace=wrap;html=1;fillColor=#666666;strokeColor=none;fontColor=#FFFFFF;fontFamily=Montserrat-Semibold;fontSource=https%3A%2F%2Ffonts.googleapis.com%2Fcss%3Ffamily%3DMontserrat-Semibold;fontStyle=0;fontSize=12;" vertex="1" parent="1">
          <mxGeometry x="493" y="450" width="30" height="30" as="geometry" />
        </mxCell>
        <mxCell id="4x9cebfzLRmKb55fLWm_-20" value="" style="rounded=0;whiteSpace=wrap;html=1;fillColor=none;strokeColor=#1752a2;fontColor=#FFFFFF;fontFamily=Montserrat-Semibold;fontSource=https%3A%2F%2Ffonts.googleapis.com%2Fcss%3Ffamily%3DMontserrat-Semibold;fontStyle=0;fontSize=12;gradientColor=none;strokeWidth=3;" vertex="1" parent="1">
          <mxGeometry x="150" y="493" width="30" height="30" as="geometry" />
        </mxCell>
        <mxCell id="4x9cebfzLRmKb55fLWm_-21" value="" style="rounded=0;whiteSpace=wrap;html=1;fillColor=#f9c446;strokeColor=none;fontColor=#FFFFFF;fontFamily=Montserrat-Semibold;fontSource=https%3A%2F%2Ffonts.googleapis.com%2Fcss%3Ffamily%3DMontserrat-Semibold;fontStyle=0;fontSize=12;" vertex="1" parent="1">
          <mxGeometry x="324" y="493" width="30" height="30" as="geometry" />
        </mxCell>
        <mxCell id="4x9cebfzLRmKb55fLWm_-22" value="" style="rounded=0;whiteSpace=wrap;html=1;fillColor=#3b8755;strokeColor=none;fontColor=#FFFFFF;fontFamily=Montserrat-Semibold;fontSource=https%3A%2F%2Ffonts.googleapis.com%2Fcss%3Ffamily%3DMontserrat-Semibold;fontStyle=0;fontSize=12;" vertex="1" parent="1">
          <mxGeometry x="493" y="493" width="30" height="30" as="geometry" />
        </mxCell>
        <mxCell id="4x9cebfzLRmKb55fLWm_-23" value="e-Signet UI" style="text;html=1;strokeColor=none;fillColor=none;align=left;verticalAlign=middle;whiteSpace=wrap;rounded=0;fontFamily=Montserrat-Semibold;fontSize=12;fontStyle=0;fontSource=https%3A%2F%2Ffonts.googleapis.com%2Fcss%3Ffamily%3DMontserrat-Semibold;" vertex="1" parent="1">
          <mxGeometry x="189" y="450" width="121" height="30" as="geometry" />
        </mxCell>
        <mxCell id="4x9cebfzLRmKb55fLWm_-24" value="Core Componets" style="text;html=1;strokeColor=none;fillColor=none;align=left;verticalAlign=middle;whiteSpace=wrap;rounded=0;fontFamily=Montserrat-Semibold;fontSize=12;fontStyle=0;fontSource=https%3A%2F%2Ffonts.googleapis.com%2Fcss%3Ffamily%3DMontserrat-Semibold;" vertex="1" parent="1">
          <mxGeometry x="191" y="493" width="118" height="30" as="geometry" />
        </mxCell>
        <mxCell id="4x9cebfzLRmKb55fLWm_-25" value="e-Signet Service" style="text;html=1;strokeColor=none;fillColor=none;align=left;verticalAlign=middle;whiteSpace=wrap;rounded=0;fontFamily=Montserrat-Semibold;fontSize=12;fontStyle=0;fontSource=https%3A%2F%2Ffonts.googleapis.com%2Fcss%3Ffamily%3DMontserrat-Semibold;" vertex="1" parent="1">
          <mxGeometry x="365" y="450" width="114" height="30" as="geometry" />
        </mxCell>
        <mxCell id="4x9cebfzLRmKb55fLWm_-26" value="Rest APIs" style="text;html=1;strokeColor=none;fillColor=none;align=left;verticalAlign=middle;whiteSpace=wrap;rounded=0;fontFamily=Montserrat-Semibold;fontSize=12;fontStyle=0;fontSource=https%3A%2F%2Ffonts.googleapis.com%2Fcss%3Ffamily%3DMontserrat-Semibold;" vertex="1" parent="1">
          <mxGeometry x="364" y="493" width="115" height="30" as="geometry" />
        </mxCell>
        <mxCell id="4x9cebfzLRmKb55fLWm_-27" value="External System" style="text;html=1;strokeColor=none;fillColor=none;align=left;verticalAlign=middle;whiteSpace=wrap;rounded=0;fontFamily=Montserrat-Semibold;fontSize=12;fontStyle=0;fontSource=https%3A%2F%2Ffonts.googleapis.com%2Fcss%3Ffamily%3DMontserrat-Semibold;" vertex="1" parent="1">
          <mxGeometry x="532.5" y="450" width="117.5" height="30" as="geometry" />
        </mxCell>
        <mxCell id="4x9cebfzLRmKb55fLWm_-28" value="Plugins" style="text;html=1;strokeColor=none;fillColor=none;align=left;verticalAlign=middle;whiteSpace=wrap;rounded=0;fontFamily=Montserrat-Semibold;fontSize=12;fontStyle=0;fontSource=https%3A%2F%2Ffonts.googleapis.com%2Fcss%3Ffamily%3DMontserrat-Semibold;" vertex="1" parent="1">
          <mxGeometry x="532.5" y="493" width="117.5" height="30" as="geometry" />
        </mxCell>
        <mxCell id="4x9cebfzLRmKb55fLWm_-29" value="" style="rounded=0;whiteSpace=wrap;html=1;fillColor=#d44247;strokeColor=none;fontColor=#FFFFFF;fontFamily=Montserrat-Semibold;fontSource=https%3A%2F%2Ffonts.googleapis.com%2Fcss%3Ffamily%3DMontserrat-Semibold;fontStyle=0;fontSize=12;" vertex="1" parent="1">
          <mxGeometry x="660" y="450" width="30" height="30" as="geometry" />
        </mxCell>
        <mxCell id="4x9cebfzLRmKb55fLWm_-30" value="Services" style="text;html=1;strokeColor=none;fillColor=none;align=left;verticalAlign=middle;whiteSpace=wrap;rounded=0;fontFamily=Montserrat-Semibold;fontSize=12;fontStyle=0;fontSource=https%3A%2F%2Ffonts.googleapis.com%2Fcss%3Ffamily%3DMontserrat-Semibold;" vertex="1" parent="1">
          <mxGeometry x="702" y="450" width="83" height="30" as="geometry" />
        </mxCell>
        <mxCell id="4x9cebfzLRmKb55fLWm_-31" value="Key Binder" style="rounded=1;whiteSpace=wrap;html=1;strokeColor=none;fontFamily=Montserrat-Semibold;fontSize=16;fontStyle=0;fillColor=#3b8755;fontColor=#FFFFFF;fontSource=https%3A%2F%2Ffonts.googleapis.com%2Fcss%3Ffamily%3DMontserrat-Semibold;shadow=0;strokeWidth=3;arcSize=6;spacing=3;spacingTop=-5;gradientColor=none;" vertex="1" parent="1">
          <mxGeometry x="121" y="300" width="171" height="40" as="geometry" />
        </mxCell>
        <mxCell id="4x9cebfzLRmKb55fLWm_-32" value="Consent&lt;br style=&quot;font-size: 16px;&quot;&gt;Service" style="rounded=1;whiteSpace=wrap;html=1;fillColor=#d44247;strokeColor=none;fontFamily=Montserrat-Semibold;fontSize=16;fontStyle=0;fontColor=#FFFFFF;fontSource=https%3A%2F%2Ffonts.googleapis.com%2Fcss%3Ffamily%3DMontserrat-Semibold;shadow=0;strokeWidth=3;arcSize=6;spacing=3;spacingTop=-5;gradientColor=none;" vertex="1" parent="1">
          <mxGeometry x="268" y="241" width="135" height="40" as="geometry" />
        </mxCell>
        <mxCell id="4x9cebfzLRmKb55fLWm_-33" value="VCI Service" style="rounded=1;whiteSpace=wrap;html=1;fillColor=#d44247;strokeColor=none;fontFamily=Montserrat-Semibold;fontSize=16;fontStyle=0;fontColor=#FFFFFF;fontSource=https%3A%2F%2Ffonts.googleapis.com%2Fcss%3Ffamily%3DMontserrat-Semibold;shadow=0;strokeWidth=3;arcSize=6;spacing=3;spacingTop=-5;gradientColor=none;" vertex="1" parent="1">
          <mxGeometry x="417" y="241" width="134" height="40" as="geometry" />
        </mxCell>
        <mxCell id="4x9cebfzLRmKb55fLWm_-34" value="Management Service" style="rounded=1;whiteSpace=wrap;html=1;fillColor=#d44247;strokeColor=none;fontFamily=Montserrat-Semibold;fontSize=16;fontStyle=0;fontColor=#FFFFFF;fontSource=https%3A%2F%2Ffonts.googleapis.com%2Fcss%3Ffamily%3DMontserrat-Semibold;shadow=0;strokeWidth=3;arcSize=6;spacing=3;spacingTop=-5;gradientColor=none;" vertex="1" parent="1">
          <mxGeometry x="567" y="241" width="134" height="40" as="geometry" />
        </mxCell>
        <mxCell id="4x9cebfzLRmKb55fLWm_-35" value="Binding&lt;br style=&quot;font-size: 16px;&quot;&gt;Service" style="rounded=1;whiteSpace=wrap;html=1;fillColor=#d44247;strokeColor=none;fontFamily=Montserrat-Semibold;fontSize=16;fontStyle=0;fontColor=#FFFFFF;fontSource=https%3A%2F%2Ffonts.googleapis.com%2Fcss%3Ffamily%3DMontserrat-Semibold;shadow=0;strokeWidth=3;arcSize=6;spacing=3;spacingTop=-5;gradientColor=none;" vertex="1" parent="1">
          <mxGeometry x="714" y="241" width="140" height="40" as="geometry" />
        </mxCell>
        <mxCell id="4x9cebfzLRmKb55fLWm_-36" value="UI APIs" style="rounded=1;whiteSpace=wrap;html=1;fillColor=#f9c446;strokeColor=none;fontFamily=Montserrat-Semibold;fontSize=16;fontStyle=0;fontColor=#000000;fontSource=https%3A%2F%2Ffonts.googleapis.com%2Fcss%3Ffamily%3DMontserrat-Semibold;shadow=0;strokeWidth=3;arcSize=6;spacing=3;spacingTop=-5;gradientColor=none;" vertex="1" parent="1">
          <mxGeometry x="267" y="165" width="135" height="45" as="geometry" />
        </mxCell>
        <mxCell id="4x9cebfzLRmKb55fLWm_-37" value="Management APIs" style="rounded=1;whiteSpace=wrap;html=1;fillColor=#f9c446;strokeColor=none;fontFamily=Montserrat-Semibold;fontSize=16;fontStyle=0;fontColor=#000000;fontSource=https%3A%2F%2Ffonts.googleapis.com%2Fcss%3Ffamily%3DMontserrat-Semibold;shadow=0;strokeWidth=3;arcSize=6;spacing=3;spacingTop=-5;gradientColor=none;" vertex="1" parent="1">
          <mxGeometry x="563" y="165" width="137" height="45" as="geometry" />
        </mxCell>
        <mxCell id="4x9cebfzLRmKb55fLWm_-38" value="Binding APIs" style="rounded=1;whiteSpace=wrap;html=1;fillColor=#f9c446;strokeColor=none;fontFamily=Montserrat-Semibold;fontSize=16;fontStyle=0;fontColor=#000000;fontSource=https%3A%2F%2Ffonts.googleapis.com%2Fcss%3Ffamily%3DMontserrat-Semibold;shadow=0;strokeWidth=3;arcSize=6;spacing=3;spacingTop=-5;gradientColor=none;" vertex="1" parent="1">
          <mxGeometry x="717" y="165" width="134" height="45" as="geometry" />
        </mxCell>
        <mxCell id="4x9cebfzLRmKb55fLWm_-39" value="VCI APIs" style="rounded=1;whiteSpace=wrap;html=1;fillColor=#f9c446;strokeColor=none;fontFamily=Montserrat-Semibold;fontSize=16;fontStyle=0;fontColor=#000000;fontSource=https%3A%2F%2Ffonts.googleapis.com%2Fcss%3Ffamily%3DMontserrat-Semibold;shadow=0;strokeWidth=3;arcSize=6;spacing=3;spacingTop=-5;gradientColor=none;" vertex="1" parent="1">
          <mxGeometry x="415" y="165" width="135" height="45" as="geometry" />
        </mxCell>
        <mxCell id="4x9cebfzLRmKb55fLWm_-40" value="Audit Plugin" style="rounded=1;whiteSpace=wrap;html=1;strokeColor=none;fontFamily=Montserrat-Semibold;fontSize=16;fontStyle=0;fillColor=#3b8755;fontColor=#FFFFFF;fontSource=https%3A%2F%2Ffonts.googleapis.com%2Fcss%3Ffamily%3DMontserrat-Semibold;shadow=0;strokeWidth=3;arcSize=6;spacing=3;spacingTop=-5;gradientColor=none;" vertex="1" parent="1">
          <mxGeometry x="496" y="300" width="171" height="40" as="geometry" />
        </mxCell>
        <mxCell id="4x9cebfzLRmKb55fLWm_-41" value="Authenticator" style="rounded=1;whiteSpace=wrap;html=1;strokeColor=none;fontFamily=Montserrat-Semibold;fontSize=16;fontStyle=0;fillColor=#3b8755;fontColor=#FFFFFF;fontSource=https%3A%2F%2Ffonts.googleapis.com%2Fcss%3Ffamily%3DMontserrat-Semibold;shadow=0;strokeWidth=3;arcSize=6;spacing=3;spacingTop=-5;gradientColor=none;" vertex="1" parent="1">
          <mxGeometry x="680" y="300" width="171" height="40" as="geometry" />
        </mxCell>
        <mxCell id="4x9cebfzLRmKb55fLWm_-42" value="VCI Plugin" style="rounded=1;whiteSpace=wrap;html=1;strokeColor=none;fontFamily=Montserrat-Semibold;fontSize=16;fontStyle=0;fillColor=#3b8755;fontColor=#FFFFFF;fontSource=https%3A%2F%2Ffonts.googleapis.com%2Fcss%3Ffamily%3DMontserrat-Semibold;shadow=0;strokeWidth=3;arcSize=6;spacing=3;spacingTop=-5;gradientColor=none;" vertex="1" parent="1">
          <mxGeometry x="306" y="300" width="175" height="40" as="geometry" />
        </mxCell>
        <mxCell id="4x9cebfzLRmKb55fLWm_-43" value="&lt;span style=&quot;font-size: 16px;&quot;&gt;VC&lt;br&gt;Issuer&lt;br&gt;&lt;/span&gt;" style="rounded=1;whiteSpace=wrap;html=1;fillColor=#808080;strokeColor=none;fontColor=#FFFFFF;fontFamily=Montserrat-Semibold;fontSource=https%3A%2F%2Ffonts.googleapis.com%2Fcss%3Ffamily%3DMontserrat-Semibold;fontStyle=0;fontSize=12;shadow=0;strokeWidth=3;arcSize=6;spacing=3;spacingTop=-5;gradientColor=none;" vertex="1" parent="1">
          <mxGeometry x="880" y="320" width="80" height="50" as="geometry" />
        </mxCell>
        <mxCell id="4x9cebfzLRmKb55fLWm_-44" value="Legends" style="text;html=1;strokeColor=none;fillColor=none;align=left;verticalAlign=middle;whiteSpace=wrap;rounded=0;fontFamily=Montserrat-Semibold;fontSize=15;fontStyle=0;fontSource=https%3A%2F%2Ffonts.googleapis.com%2Fcss%3Ffamily%3DMontserrat-Semibold;" vertex="1" parent="1">
          <mxGeometry x="110" y="414" width="135" height="30" as="geometry" />
        </mxCell>
      </root>
    </mxGraphModel>
  </diagram>
</mxfile>
